<?xml version="1.0" encoding="UTF-8" standalone="no"?>
<!DOCTYPE svg PUBLIC "-//W3C//DTD SVG 1.1//EN"
 "http://www.w3.org/Graphics/SVG/1.1/DTD/svg11.dtd">
<!-- Generated by graphviz version 2.40.1 (20161225.0304)
 -->
<!-- Title: CloudStove Pages: 1 -->
<svg width="373pt" height="196pt"
 viewBox="0.00 0.00 372.60 195.60" xmlns="http://www.w3.org/2000/svg" xmlns:xlink="http://www.w3.org/1999/xlink">
<g id="graph0" class="graph" transform="scale(1 1) rotate(0) translate(28.8 166.8)">
<title>CloudStove</title>
<polygon fill="#ffffff" stroke="transparent" points="-28.8,28.8 -28.8,-166.8 343.8,-166.8 343.8,28.8 -28.8,28.8"/>
<text text-anchor="middle" x="157.5" y="-123.6" font-family="Arial BoldMT" font-size="13.00" fill="#000000">Deployment Recommendations</text>
<!-- m_DeploymentRecommendation -->
<g id="node1" class="node">
<title>m_DeploymentRecommendation</title>
<path fill="none" stroke="#000000" d="M12,-.5C12,-.5 303,-.5 303,-.5 309,-.5 315,-6.5 315,-12.5 315,-12.5 315,-89.5 315,-89.5 315,-95.5 309,-101.5 303,-101.5 303,-101.5 12,-101.5 12,-101.5 6,-101.5 0,-95.5 0,-89.5 0,-89.5 0,-12.5 0,-12.5 0,-6.5 6,-.5 12,-.5"/>
<text text-anchor="start" x="4.5466" y="-47.2" font-family="Arial BoldMT" font-size="11.00" fill="#000000">DeploymentRecommendation</text>
<polyline fill="none" stroke="#000000" points="154,-.5 154,-101.5 "/>
<text text-anchor="start" x="161.5" y="-88" font-family="ArialMT" font-size="10.00" fill="#000000">ingredient_id </text>
<text text-anchor="start" x="221.5439" y="-88" font-family="Arial ItalicMT" font-size="10.00" fill="#999999">integer FK</text>
<text text-anchor="start" x="161.5" y="-75" font-family="ArialMT" font-size="10.00" fill="#000000">ingredients_data </text>
<text text-anchor="start" x="238.2236" y="-75" font-family="Arial ItalicMT" font-size="10.00" fill="#999999">text</text>
<text text-anchor="start" x="161.5" y="-62" font-family="ArialMT" font-size="10.00" fill="#000000">more_attributes </text>
<text text-anchor="start" x="233.7559" y="-62" font-family="Arial ItalicMT" font-size="10.00" fill="#999999">text</text>
<text text-anchor="start" x="161.3477" y="-49" font-family="ArialMT" font-size="10.00" fill="#000000">num_simultaneous_users </text>
<text text-anchor="start" x="278.0762" y="-49" font-family="Arial ItalicMT" font-size="10.00" fill="#999999">integer</text>
<text text-anchor="start" x="161.5" y="-36" font-family="ArialMT" font-size="10.00" fill="#000000">resources_data </text>
<text text-anchor="start" x="233.209" y="-36" font-family="Arial ItalicMT" font-size="10.00" fill="#999999">text</text>
<text text-anchor="start" x="161.5" y="-23" font-family="ArialMT" font-size="10.00" fill="#000000">status </text>
<text text-anchor="start" x="190.958" y="-23" font-family="Arial ItalicMT" font-size="10.00" fill="#999999">string</text>
<text text-anchor="start" x="161.5" y="-10" font-family="ArialMT" font-size="10.00" fill="#000000">user_id </text>
<text text-anchor="start" x="197.0762" y="-10" font-family="Arial ItalicMT" font-size="10.00" fill="#999999">integer FK</text>
</g>
</g>
</svg>
