<?xml version="1.0" encoding="UTF-8" standalone="no"?>
<!DOCTYPE svg PUBLIC "-//W3C//DTD SVG 1.1//EN"
 "http://www.w3.org/Graphics/SVG/1.1/DTD/svg11.dtd">
<!-- Generated by graphviz version 2.40.1 (20161225.0304)
 -->
<!-- Title: CloudStove Pages: 1 -->
<svg width="431pt" height="522pt"
 viewBox="0.00 0.00 430.60 522.10" xmlns="http://www.w3.org/2000/svg" xmlns:xlink="http://www.w3.org/1999/xlink">
<g id="graph0" class="graph" transform="scale(1 1) rotate(0) translate(28.8 493.3)">
<title>CloudStove</title>
<polygon fill="#ffffff" stroke="transparent" points="-28.8,28.8 -28.8,-493.3 401.8,-493.3 401.8,28.8 -28.8,28.8"/>
<text text-anchor="middle" x="186.5" y="-450.1" font-family="Arial BoldMT" font-size="13.00" fill="#000000">Ingredients and Workloads</text>
<!-- m_CpuWorkload -->
<g id="node1" class="node">
<title>m_CpuWorkload</title>
<path fill="none" stroke="#000000" d="M216.5,-347C216.5,-347 336.5,-347 336.5,-347 342.5,-347 348.5,-353 348.5,-359 348.5,-359 348.5,-416 348.5,-416 348.5,-422 342.5,-428 336.5,-428 336.5,-428 216.5,-428 216.5,-428 210.5,-428 204.5,-422 204.5,-416 204.5,-416 204.5,-359 204.5,-359 204.5,-353 210.5,-347 216.5,-347"/>
<text text-anchor="start" x="241.2771" y="-414.7" font-family="Arial BoldMT" font-size="11.00" fill="#000000">CpuWorkload</text>
<polyline fill="none" stroke="#000000" points="204.5,-409 348.5,-409 "/>
<text text-anchor="start" x="211.5" y="-396" font-family="ArialMT" font-size="10.00" fill="#000000">cspu_user_capacity </text>
<text text-anchor="start" x="302.6621" y="-396" font-family="Arial ItalicMT" font-size="10.00" fill="#999999">integer</text>
<text text-anchor="start" x="211.5" y="-383" font-family="ArialMT" font-size="10.00" fill="#000000">ingredient_id </text>
<text text-anchor="start" x="271.5439" y="-383" font-family="Arial ItalicMT" font-size="10.00" fill="#999999">integer FK</text>
<text text-anchor="start" x="211.5" y="-370" font-family="ArialMT" font-size="10.00" fill="#000000">parallelism </text>
<text text-anchor="start" x="262.0713" y="-370" font-family="Arial ItalicMT" font-size="10.00" fill="#999999">float</text>
<text text-anchor="start" x="211.5" y="-357" font-family="ArialMT" font-size="10.00" fill="#000000">user_id </text>
<text text-anchor="start" x="247.0762" y="-357" font-family="Arial ItalicMT" font-size="10.00" fill="#999999">integer FK</text>
</g>
<!-- m_Ingredient -->
<g id="node2" class="node">
<title>m_Ingredient</title>
<path fill="none" stroke="#000000" d="M12,-203C12,-203 132,-203 132,-203 138,-203 144,-209 144,-215 144,-215 144,-324 144,-324 144,-330 138,-336 132,-336 132,-336 12,-336 12,-336 6,-336 0,-330 0,-324 0,-324 0,-215 0,-215 0,-209 6,-203 12,-203"/>
<text text-anchor="start" x="45.5374" y="-322.7" font-family="Arial BoldMT" font-size="11.00" fill="#000000">Ingredient</text>
<polyline fill="none" stroke="#000000" points="0,-317 144,-317 "/>
<text text-anchor="start" x="7" y="-304" font-family="ArialMT" font-size="10.00" fill="#000000">body </text>
<text text-anchor="start" x="31.4629" y="-304" font-family="Arial ItalicMT" font-size="10.00" fill="#999999">text</text>
<text text-anchor="start" x="7" y="-291" font-family="ArialMT" font-size="10.00" fill="#000000">icon </text>
<text text-anchor="start" x="28.123" y="-291" font-family="Arial ItalicMT" font-size="10.00" fill="#999999">string</text>
<text text-anchor="start" x="7" y="-278" font-family="ArialMT" font-size="10.00" fill="#000000">is_template </text>
<text text-anchor="start" x="60.916" y="-278" font-family="Arial ItalicMT" font-size="10.00" fill="#999999">boolean</text>
<text text-anchor="start" x="7" y="-265" font-family="ArialMT" font-size="10.00" fill="#000000">more_attributes </text>
<text text-anchor="start" x="79.2559" y="-265" font-family="Arial ItalicMT" font-size="10.00" fill="#999999">text</text>
<text text-anchor="start" x="7" y="-252" font-family="ArialMT" font-size="10.00" fill="#000000">name </text>
<text text-anchor="start" x="34.793" y="-252" font-family="Arial ItalicMT" font-size="10.00" fill="#999999">string</text>
<text text-anchor="start" x="7" y="-239" font-family="ArialMT" font-size="10.00" fill="#000000">parent_id </text>
<text text-anchor="start" x="51.4775" y="-239" font-family="Arial ItalicMT" font-size="10.00" fill="#999999">integer FK</text>
<text text-anchor="start" x="7" y="-226" font-family="ArialMT" font-size="10.00" fill="#000000">template_id </text>
<text text-anchor="start" x="61.4775" y="-226" font-family="Arial ItalicMT" font-size="10.00" fill="#999999">integer FK</text>
<text text-anchor="start" x="7" y="-213" font-family="ArialMT" font-size="10.00" fill="#000000">user_id </text>
<text text-anchor="start" x="42.5762" y="-213" font-family="Arial ItalicMT" font-size="10.00" fill="#999999">integer FK</text>
</g>
<!-- m_Ingredient&#45;&gt;m_CpuWorkload -->
<g id="edge1" class="edge">
<title>m_Ingredient&#45;&gt;m_CpuWorkload</title>
<path fill="none" stroke="#000000" d="M144.099,-311.1024C164.2229,-322.7142 186.058,-335.3134 206.0836,-346.8685"/>
<text text-anchor="middle" x="197.6291" y="-329.4022" font-family="ArialMT" font-size="7.00" fill="#000000">0..1</text>
<text text-anchor="middle" x="152.5535" y="-325.418" font-family="ArialMT" font-size="7.00" fill="#000000">0..1</text>
</g>
<!-- m_Ingredient&#45;&gt;m_Ingredient -->
<g id="edge5" class="edge">
<title>m_Ingredient&#45;&gt;m_Ingredient</title>
<path fill="none" stroke="#000000" d="M53.1376,-336.3471C54.4567,-353.0303 60.7441,-365.5 72,-365.5 81.5851,-365.5 87.5673,-356.4575 89.9466,-343.4708"/>
<polygon fill="#000000" stroke="#000000" points="90.8624,-336.3471 93.094,-343.6917 90.416,-339.8186 89.9697,-343.29 89.9697,-343.29 89.9697,-343.29 90.416,-339.8186 86.8454,-342.8883 90.8624,-336.3471 90.8624,-336.3471"/>
<text text-anchor="middle" x="79.4553" y="-349.0069" font-family="ArialMT" font-size="7.00" fill="#000000">0..∗</text>
<text text-anchor="middle" x="45.3551" y="-351.0024" font-family="ArialMT" font-size="7.00" fill="#000000">0..1</text>
</g>
<!-- m_Ingredient&#45;&gt;m_Ingredient -->
<g id="edge6" class="edge">
<title>m_Ingredient&#45;&gt;m_Ingredient</title>
<path fill="none" stroke="#000000" d="M34.549,-336.0543C30.3308,-367.2093 42.8145,-394.5 72,-394.5 98.9054,-394.5 111.6167,-371.3069 110.1338,-343.2743"/>
<polygon fill="#000000" stroke="#000000" points="109.451,-336.0543 113.2462,-342.7266 109.7806,-339.5387 110.1101,-343.0232 110.1101,-343.0232 110.1101,-343.0232 109.7806,-339.5387 106.9741,-343.3198 109.451,-336.0543 109.451,-336.0543"/>
<text text-anchor="middle" x="101.3921" y="-350.8851" font-family="ArialMT" font-size="7.00" fill="#000000">0..∗</text>
<text text-anchor="middle" x="23.7802" y="-348.9023" font-family="ArialMT" font-size="7.00" fill="#000000">0..1</text>
</g>
<!-- m_RamWorkload -->
<g id="node3" class="node">
<title>m_RamWorkload</title>
<path fill="none" stroke="#000000" d="M192,-222.5C192,-222.5 361,-222.5 361,-222.5 367,-222.5 373,-228.5 373,-234.5 373,-234.5 373,-304.5 373,-304.5 373,-310.5 367,-316.5 361,-316.5 361,-316.5 192,-316.5 192,-316.5 186,-316.5 180,-310.5 180,-304.5 180,-304.5 180,-234.5 180,-234.5 180,-228.5 186,-222.5 192,-222.5"/>
<text text-anchor="start" x="239.7544" y="-303.2" font-family="Arial BoldMT" font-size="11.00" fill="#000000">RamWorkload</text>
<polyline fill="none" stroke="#000000" points="180,-297.5 373,-297.5 "/>
<text text-anchor="start" x="187.5" y="-284" font-family="ArialMT" font-size="10.00" fill="#000000">ingredient_id </text>
<text text-anchor="start" x="247.5439" y="-284" font-family="Arial ItalicMT" font-size="10.00" fill="#999999">integer FK</text>
<text text-anchor="start" x="187.5" y="-271" font-family="ArialMT" font-size="10.00" fill="#000000">ram_mb_growth_per_user </text>
<text text-anchor="start" x="307.5586" y="-271" font-family="Arial ItalicMT" font-size="10.00" fill="#999999">float</text>
<text text-anchor="start" x="187.5" y="-258" font-family="ArialMT" font-size="10.00" fill="#000000">ram_mb_required </text>
<text text-anchor="start" x="269.2041" y="-258" font-family="Arial ItalicMT" font-size="10.00" fill="#999999">integer</text>
<text text-anchor="start" x="187.2295" y="-245" font-family="ArialMT" font-size="10.00" fill="#000000">ram_mb_required_user_capacity </text>
<text text-anchor="start" x="336.1943" y="-245" font-family="Arial ItalicMT" font-size="10.00" fill="#999999">integer</text>
<text text-anchor="start" x="187.5" y="-232" font-family="ArialMT" font-size="10.00" fill="#000000">user_id </text>
<text text-anchor="start" x="223.0762" y="-232" font-family="Arial ItalicMT" font-size="10.00" fill="#999999">integer FK</text>
</g>
<!-- m_Ingredient&#45;&gt;m_RamWorkload -->
<g id="edge2" class="edge">
<title>m_Ingredient&#45;&gt;m_RamWorkload</title>
<path fill="none" stroke="#000000" d="M144.099,-269.5C155.7134,-269.5 167.8978,-269.5 179.9753,-269.5"/>
<text text-anchor="middle" x="164.7104" y="-258.3861" font-family="ArialMT" font-size="7.00" fill="#000000">0..1</text>
<text text-anchor="middle" x="159.3639" y="-277.4632" font-family="ArialMT" font-size="7.00" fill="#000000">0..1</text>
</g>
<!-- m_ScalingWorkload -->
<g id="node4" class="node">
<title>m_ScalingWorkload</title>
<path fill="none" stroke="#000000" d="M216.5,-124.5C216.5,-124.5 336.5,-124.5 336.5,-124.5 342.5,-124.5 348.5,-130.5 348.5,-136.5 348.5,-136.5 348.5,-180.5 348.5,-180.5 348.5,-186.5 342.5,-192.5 336.5,-192.5 336.5,-192.5 216.5,-192.5 216.5,-192.5 210.5,-192.5 204.5,-186.5 204.5,-180.5 204.5,-180.5 204.5,-136.5 204.5,-136.5 204.5,-130.5 210.5,-124.5 216.5,-124.5"/>
<text text-anchor="start" x="233.3279" y="-179.2" font-family="Arial BoldMT" font-size="11.00" fill="#000000">ScalingWorkload</text>
<polyline fill="none" stroke="#000000" points="204.5,-173.5 348.5,-173.5 "/>
<text text-anchor="start" x="211.5" y="-160" font-family="ArialMT" font-size="10.00" fill="#000000">ingredient_id </text>
<text text-anchor="start" x="271.5439" y="-160" font-family="Arial ItalicMT" font-size="10.00" fill="#999999">integer FK</text>
<text text-anchor="start" x="211.5" y="-147" font-family="ArialMT" font-size="10.00" fill="#000000">scale_ingredient </text>
<text text-anchor="start" x="287.1055" y="-147" font-family="Arial ItalicMT" font-size="10.00" fill="#999999">boolean</text>
<text text-anchor="start" x="211.5" y="-134" font-family="ArialMT" font-size="10.00" fill="#000000">user_id </text>
<text text-anchor="start" x="247.0762" y="-134" font-family="Arial ItalicMT" font-size="10.00" fill="#999999">integer FK</text>
</g>
<!-- m_Ingredient&#45;&gt;m_ScalingWorkload -->
<g id="edge3" class="edge">
<title>m_Ingredient&#45;&gt;m_ScalingWorkload</title>
<path fill="none" stroke="#000000" d="M144.0394,-227.4632C155.9928,-220.6845 168.3028,-213.8219 180,-207.5 189.0914,-202.5864 198.7306,-197.5224 208.2625,-192.5994"/>
<text text-anchor="middle" x="190.3216" y="-189.5669" font-family="ArialMT" font-size="7.00" fill="#000000">0..1</text>
<text text-anchor="middle" x="162.0225" y="-226.6687" font-family="ArialMT" font-size="7.00" fill="#000000">0..1</text>
</g>
<!-- m_TrafficWorkload -->
<g id="node5" class="node">
<title>m_TrafficWorkload</title>
<path fill="none" stroke="#000000" d="M216.5,-.5C216.5,-.5 336.5,-.5 336.5,-.5 342.5,-.5 348.5,-6.5 348.5,-12.5 348.5,-12.5 348.5,-82.5 348.5,-82.5 348.5,-88.5 342.5,-94.5 336.5,-94.5 336.5,-94.5 216.5,-94.5 216.5,-94.5 210.5,-94.5 204.5,-88.5 204.5,-82.5 204.5,-82.5 204.5,-12.5 204.5,-12.5 204.5,-6.5 210.5,-.5 216.5,-.5"/>
<text text-anchor="start" x="236.29" y="-81.2" font-family="Arial BoldMT" font-size="11.00" fill="#000000">TrafficWorkload</text>
<polyline fill="none" stroke="#000000" points="204.5,-75.5 348.5,-75.5 "/>
<text text-anchor="start" x="211.5" y="-62" font-family="ArialMT" font-size="10.00" fill="#000000">ingredient_id </text>
<text text-anchor="start" x="271.5439" y="-62" font-family="Arial ItalicMT" font-size="10.00" fill="#999999">integer FK</text>
<text text-anchor="start" x="211.5" y="-49" font-family="ArialMT" font-size="10.00" fill="#000000">request_size_kb </text>
<text text-anchor="start" x="287.1006" y="-49" font-family="Arial ItalicMT" font-size="10.00" fill="#999999">integer</text>
<text text-anchor="start" x="211.5" y="-36" font-family="ArialMT" font-size="10.00" fill="#000000">requests_per_visit </text>
<text text-anchor="start" x="295.4307" y="-36" font-family="Arial ItalicMT" font-size="10.00" fill="#999999">integer</text>
<text text-anchor="start" x="211.5" y="-23" font-family="ArialMT" font-size="10.00" fill="#000000">user_id </text>
<text text-anchor="start" x="247.0762" y="-23" font-family="Arial ItalicMT" font-size="10.00" fill="#999999">integer FK</text>
<text text-anchor="start" x="211.5" y="-10" font-family="ArialMT" font-size="10.00" fill="#000000">visits_per_month </text>
<text text-anchor="start" x="289.8691" y="-10" font-family="Arial ItalicMT" font-size="10.00" fill="#999999">integer</text>
</g>
<!-- m_Ingredient&#45;&gt;m_TrafficWorkload -->
<g id="edge4" class="edge">
<title>m_Ingredient&#45;&gt;m_TrafficWorkload</title>
<path fill="none" stroke="#000000" d="M108.6295,-202.6657C127.4197,-172.0753 152.2007,-136.676 180,-109.5 185.7848,-103.8449 192.1638,-98.4232 198.8027,-93.3034"/>
<polygon fill="#000000" stroke="#000000" points="204.4331,-89.0752 200.7272,-95.7975 201.6344,-91.177 198.8357,-93.2787 198.8357,-93.2787 198.8357,-93.2787 201.6344,-91.177 196.9441,-90.7598 204.4331,-89.0752 204.4331,-89.0752"/>
<text text-anchor="middle" x="186.499" y="-89.3499" font-family="ArialMT" font-size="7.00" fill="#000000">0..∗</text>
<text text-anchor="middle" x="124.8062" y="-193.1963" font-family="ArialMT" font-size="7.00" fill="#000000">0..1</text>
</g>
</g>
</svg>
