<?xml version="1.0" encoding="UTF-8" standalone="no"?>
<!DOCTYPE svg PUBLIC "-//W3C//DTD SVG 1.1//EN"
 "http://www.w3.org/Graphics/SVG/1.1/DTD/svg11.dtd">
<!-- Generated by graphviz version 2.40.1 (20161225.0304)
 -->
<!-- Title: CloudStove Pages: 1 -->
<svg width="346pt" height="282pt"
 viewBox="0.00 0.00 345.60 281.60" xmlns="http://www.w3.org/2000/svg" xmlns:xlink="http://www.w3.org/1999/xlink">
<g id="graph0" class="graph" transform="scale(1 1) rotate(0) translate(28.8 252.8)">
<title>CloudStove</title>
<polygon fill="#ffffff" stroke="transparent" points="-28.8,28.8 -28.8,-252.8 316.8,-252.8 316.8,28.8 -28.8,28.8"/>
<text text-anchor="middle" x="144" y="-209.6" font-family="Arial BoldMT" font-size="13.00" fill="#000000">Providers and Resources</text>
<!-- m_Provider -->
<g id="node1" class="node">
<title>m_Provider</title>
<path fill="none" stroke="#000000" d="M12,-151.5C12,-151.5 276,-151.5 276,-151.5 282,-151.5 288,-157.5 288,-163.5 288,-163.5 288,-175.5 288,-175.5 288,-181.5 282,-187.5 276,-187.5 276,-187.5 12,-187.5 12,-187.5 6,-187.5 0,-181.5 0,-175.5 0,-175.5 0,-163.5 0,-163.5 0,-157.5 6,-151.5 12,-151.5"/>
<text text-anchor="start" x="49.52" y="-165.7" font-family="Arial BoldMT" font-size="11.00" fill="#000000">Provider</text>
<polyline fill="none" stroke="#000000" points="144,-151.5 144,-187.5 "/>
<text text-anchor="start" x="151" y="-174.5" font-family="ArialMT" font-size="10.00" fill="#000000">more_attributes </text>
<text text-anchor="start" x="223.2559" y="-174.5" font-family="Arial ItalicMT" font-size="10.00" fill="#999999">text ∗</text>
<text text-anchor="start" x="151" y="-161.5" font-family="ArialMT" font-size="10.00" fill="#000000">name </text>
<text text-anchor="start" x="178.793" y="-161.5" font-family="Arial ItalicMT" font-size="10.00" fill="#999999">string</text>
</g>
<!-- m_Resource -->
<g id="node2" class="node">
<title>m_Resource</title>
<path fill="none" stroke="#000000" d="M12,-.5C12,-.5 276,-.5 276,-.5 282,-.5 288,-6.5 288,-12.5 288,-12.5 288,-102.5 288,-102.5 288,-108.5 282,-114.5 276,-114.5 276,-114.5 12,-114.5 12,-114.5 6,-114.5 0,-108.5 0,-102.5 0,-102.5 0,-12.5 0,-12.5 0,-6.5 6,-.5 12,-.5"/>
<text text-anchor="start" x="46.4612" y="-53.7" font-family="Arial BoldMT" font-size="11.00" fill="#000000">Resource</text>
<polyline fill="none" stroke="#000000" points="144,-.5 144,-114.5 "/>
<text text-anchor="start" x="151" y="-101.5" font-family="ArialMT" font-size="10.00" fill="#000000">more_attributes </text>
<text text-anchor="start" x="223.2559" y="-101.5" font-family="Arial ItalicMT" font-size="10.00" fill="#999999">text ∗</text>
<text text-anchor="start" x="151" y="-88.5" font-family="ArialMT" font-size="10.00" fill="#000000">name </text>
<text text-anchor="start" x="178.793" y="-88.5" font-family="Arial ItalicMT" font-size="10.00" fill="#999999">string</text>
<text text-anchor="start" x="151" y="-75.5" font-family="ArialMT" font-size="10.00" fill="#000000">provider_id </text>
<text text-anchor="start" x="203.251" y="-75.5" font-family="Arial ItalicMT" font-size="10.00" fill="#999999">integer FK</text>
<text text-anchor="start" x="151" y="-62.5" font-family="ArialMT" font-size="10.00" fill="#000000">region </text>
<text text-anchor="start" x="181.5762" y="-62.5" font-family="Arial ItalicMT" font-size="10.00" fill="#999999">string</text>
<text text-anchor="start" x="151" y="-49.5" font-family="ArialMT" font-size="10.00" fill="#000000">region_area </text>
<text text-anchor="start" x="207.1523" y="-49.5" font-family="Arial ItalicMT" font-size="10.00" fill="#999999">string</text>
<text text-anchor="start" x="151" y="-36.5" font-family="ArialMT" font-size="10.00" fill="#000000">region_code </text>
<text text-anchor="start" x="208.8223" y="-36.5" font-family="Arial ItalicMT" font-size="10.00" fill="#999999">integer (8)</text>
<text text-anchor="start" x="151" y="-23.5" font-family="ArialMT" font-size="10.00" fill="#000000">resource_code </text>
<text text-anchor="start" x="219.9307" y="-23.5" font-family="Arial ItalicMT" font-size="10.00" fill="#999999">integer (8)</text>
<text text-anchor="start" x="151" y="-10.5" font-family="ArialMT" font-size="10.00" fill="#000000">resource_type </text>
<text text-anchor="start" x="217.1475" y="-10.5" font-family="Arial ItalicMT" font-size="10.00" fill="#999999">string ∗</text>
</g>
<!-- m_Provider&#45;&gt;m_Resource -->
<g id="edge1" class="edge">
<title>m_Provider&#45;&gt;m_Resource</title>
<path fill="none" stroke="#000000" d="M144,-151.0055C144,-142.7488 144,-132.479 144,-121.7974"/>
<polygon fill="#000000" stroke="#000000" points="144,-114.7355 147.1501,-121.7355 144,-118.2355 144.0001,-121.7355 144.0001,-121.7355 144.0001,-121.7355 144,-118.2355 140.8501,-121.7356 144,-114.7355 144,-114.7355"/>
<text text-anchor="middle" x="134.4615" y="-128.7361" font-family="ArialMT" font-size="7.00" fill="#000000">0..∗</text>
<text text-anchor="middle" x="153.5385" y="-134.1653" font-family="ArialMT" font-size="7.00" fill="#000000">0..1</text>
</g>
</g>
</svg>
