<?xml version="1.0" encoding="UTF-8" standalone="no"?>
<!DOCTYPE svg PUBLIC "-//W3C//DTD SVG 1.1//EN"
 "http://www.w3.org/Graphics/SVG/1.1/DTD/svg11.dtd">
<!-- Generated by graphviz version 2.40.1 (20161225.0304)
 -->
<!-- Title: CloudStove Pages: 1 -->
<svg width="587pt" height="498pt"
 viewBox="0.00 0.00 587.32 497.60" xmlns="http://www.w3.org/2000/svg" xmlns:xlink="http://www.w3.org/1999/xlink">
<g id="graph0" class="graph" transform="scale(1 1) rotate(0) translate(28.8 468.8)">
<title>CloudStove</title>
<polygon fill="#ffffff" stroke="transparent" points="-28.8,28.8 -28.8,-468.8 558.5234,-468.8 558.5234,28.8 -28.8,28.8"/>
<text text-anchor="middle" x="264.8617" y="-425.6" font-family="Arial BoldMT" font-size="13.00" fill="#000000">Ingredients and Constraints</text>
<!-- m_Constraint -->
<g id="node1" class="node">
<title>m_Constraint</title>
<path fill="none" stroke="#000000" d="M192,-122C192,-122 312,-122 312,-122 318,-122 324,-128 324,-134 324,-134 324,-269 324,-269 324,-275 318,-281 312,-281 312,-281 192,-281 192,-281 186,-281 180,-275 180,-269 180,-269 180,-134 180,-134 180,-128 186,-122 192,-122"/>
<text text-anchor="start" x="224.9331" y="-267.7" font-family="Arial BoldMT" font-size="11.00" fill="#000000">Constraint</text>
<polyline fill="none" stroke="#000000" points="180,-262 324,-262 "/>
<text text-anchor="start" x="187" y="-249" font-family="ArialMT" font-size="10.00" fill="#000000">ingredient_id </text>
<text text-anchor="start" x="247.0439" y="-249" font-family="Arial ItalicMT" font-size="10.00" fill="#999999">integer FK</text>
<text text-anchor="start" x="187" y="-236" font-family="ArialMT" font-size="10.00" fill="#000000">max_num_instances </text>
<text text-anchor="start" x="281.4922" y="-236" font-family="Arial ItalicMT" font-size="10.00" fill="#999999">integer</text>
<text text-anchor="start" x="187" y="-223" font-family="ArialMT" font-size="10.00" fill="#000000">min_cpus </text>
<text text-anchor="start" x="232.5762" y="-223" font-family="Arial ItalicMT" font-size="10.00" fill="#999999">integer</text>
<text text-anchor="start" x="187" y="-210" font-family="ArialMT" font-size="10.00" fill="#000000">min_ram </text>
<text text-anchor="start" x="228.6748" y="-210" font-family="Arial ItalicMT" font-size="10.00" fill="#999999">integer</text>
<text text-anchor="start" x="187" y="-197" font-family="ArialMT" font-size="10.00" fill="#000000">more_attributes </text>
<text text-anchor="start" x="259.2559" y="-197" font-family="Arial ItalicMT" font-size="10.00" fill="#999999">text</text>
<text text-anchor="start" x="187" y="-184" font-family="ArialMT" font-size="10.00" fill="#000000">preferred_providers </text>
<text text-anchor="start" x="277.0439" y="-184" font-family="Arial ItalicMT" font-size="10.00" fill="#999999">string</text>
<text text-anchor="start" x="187" y="-171" font-family="ArialMT" font-size="10.00" fill="#000000">preferred_region_area </text>
<text text-anchor="start" x="289.29" y="-171" font-family="Arial ItalicMT" font-size="10.00" fill="#999999">string</text>
<text text-anchor="start" x="187" y="-158" font-family="ArialMT" font-size="10.00" fill="#000000">source_id </text>
<text text-anchor="start" x="233.1377" y="-158" font-family="Arial ItalicMT" font-size="10.00" fill="#999999">integer</text>
<text text-anchor="start" x="187" y="-145" font-family="ArialMT" font-size="10.00" fill="#000000">target_id </text>
<text text-anchor="start" x="228.6943" y="-145" font-family="Arial ItalicMT" font-size="10.00" fill="#999999">integer</text>
<text text-anchor="start" x="187" y="-132" font-family="ArialMT" font-size="10.00" fill="#000000">user_id </text>
<text text-anchor="start" x="222.5762" y="-132" font-family="Arial ItalicMT" font-size="10.00" fill="#999999">integer FK</text>
</g>
<!-- m_CpuConstraint -->
<g id="node2" class="node">
<title>m_CpuConstraint</title>
<path fill="none" stroke="#999999" d="M382,-367.5C382,-367.5 502,-367.5 502,-367.5 508,-367.5 514,-373.5 514,-379.5 514,-379.5 514,-391.5 514,-391.5 514,-397.5 508,-403.5 502,-403.5 502,-403.5 382,-403.5 382,-403.5 376,-403.5 370,-397.5 370,-391.5 370,-391.5 370,-379.5 370,-379.5 370,-373.5 376,-367.5 382,-367.5"/>
<text text-anchor="start" x="404.8435" y="-381.7" font-family="Arial BoldMT" font-size="11.00" fill="#999999">CpuConstraint</text>
</g>
<!-- m_Constraint&#45;&gt;m_CpuConstraint -->
<g id="edge1" class="edge">
<title>m_Constraint&#45;&gt;m_CpuConstraint</title>
<path fill="none" stroke="#999999" d="M315.2711,-290.9998C337.866,-322.7708 358.2491,-351.1235 360,-352.5 367.3589,-358.2855 375.8666,-363.1875 384.5579,-367.2986"/>
<polygon fill="none" stroke="#999999" points="318.5803,-288.4058 308.2061,-281.0562 311.7327,-293.2711 318.5803,-288.4058"/>
</g>
<!-- m_DependencyConstraint -->
<g id="node3" class="node">
<title>m_DependencyConstraint</title>
<path fill="none" stroke="#999999" d="M382,-301.5C382,-301.5 502,-301.5 502,-301.5 508,-301.5 514,-307.5 514,-313.5 514,-313.5 514,-325.5 514,-325.5 514,-331.5 508,-337.5 502,-337.5 502,-337.5 382,-337.5 382,-337.5 376,-337.5 370,-331.5 370,-325.5 370,-325.5 370,-313.5 370,-313.5 370,-307.5 376,-301.5 382,-301.5"/>
<text text-anchor="start" x="384.0493" y="-315.7" font-family="Arial BoldMT" font-size="11.00" fill="#999999">DependencyConstraint</text>
</g>
<!-- m_Constraint&#45;&gt;m_DependencyConstraint -->
<g id="edge2" class="edge">
<title>m_Constraint&#45;&gt;m_DependencyConstraint</title>
<path fill="none" stroke="#999999" d="M334.1325,-258.1561C342.7955,-263.7886 351.5312,-269.3293 360,-274.5 375.2458,-283.8084 392.5295,-293.4258 407.2849,-301.368"/>
<polygon fill="none" stroke="#999999" points="336.354,-254.5904 324.0169,-251.5187 331.7458,-261.6135 336.354,-254.5904"/>
</g>
<!-- m_PreferredRegionAreaConstraint -->
<g id="node5" class="node">
<title>m_PreferredRegionAreaConstraint</title>
<path fill="none" stroke="#999999" d="M372,-223.5C372,-223.5 512,-223.5 512,-223.5 518,-223.5 524,-229.5 524,-235.5 524,-235.5 524,-247.5 524,-247.5 524,-253.5 518,-259.5 512,-259.5 512,-259.5 372,-259.5 372,-259.5 366,-259.5 360,-253.5 360,-247.5 360,-247.5 360,-235.5 360,-235.5 360,-229.5 366,-223.5 372,-223.5"/>
<text text-anchor="start" x="364.9597" y="-237.7" font-family="Arial BoldMT" font-size="11.00" fill="#999999">PreferredRegionAreaConstraint</text>
</g>
<!-- m_Constraint&#45;&gt;m_PreferredRegionAreaConstraint -->
<g id="edge3" class="edge">
<title>m_Constraint&#45;&gt;m_PreferredRegionAreaConstraint</title>
<path fill="none" stroke="#999999" d="M335.9822,-219.1805C343.8815,-220.8435 351.8838,-222.5282 359.7667,-224.1877"/>
<polygon fill="none" stroke="#999999" points="336.7096,-215.0416 324.1018,-216.6793 334.9791,-223.2614 336.7096,-215.0416"/>
</g>
<!-- m_ProviderConstraint -->
<g id="node6" class="node">
<title>m_ProviderConstraint</title>
<path fill="none" stroke="#999999" d="M382,-132.5C382,-132.5 502,-132.5 502,-132.5 508,-132.5 514,-138.5 514,-144.5 514,-144.5 514,-156.5 514,-156.5 514,-162.5 508,-168.5 502,-168.5 502,-168.5 382,-168.5 382,-168.5 376,-168.5 370,-162.5 370,-156.5 370,-156.5 370,-144.5 370,-144.5 370,-138.5 376,-132.5 382,-132.5"/>
<text text-anchor="start" x="394.4531" y="-146.7" font-family="Arial BoldMT" font-size="11.00" fill="#999999">ProviderConstraint</text>
</g>
<!-- m_Constraint&#45;&gt;m_ProviderConstraint -->
<g id="edge4" class="edge">
<title>m_Constraint&#45;&gt;m_ProviderConstraint</title>
<path fill="none" stroke="#999999" d="M335.8993,-178.9797C348.8619,-175.5002 362.1039,-171.9458 374.6423,-168.5802"/>
<polygon fill="none" stroke="#999999" points="334.6027,-174.979 324.1018,-182.1464 336.7804,-183.0918 334.6027,-174.979"/>
</g>
<!-- m_RamConstraint -->
<g id="node7" class="node">
<title>m_RamConstraint</title>
<path fill="none" stroke="#999999" d="M382,-66.5C382,-66.5 502,-66.5 502,-66.5 508,-66.5 514,-72.5 514,-78.5 514,-78.5 514,-90.5 514,-90.5 514,-96.5 508,-102.5 502,-102.5 502,-102.5 382,-102.5 382,-102.5 376,-102.5 370,-96.5 370,-90.5 370,-90.5 370,-78.5 370,-78.5 370,-72.5 376,-66.5 382,-66.5"/>
<text text-anchor="start" x="403.3208" y="-80.7" font-family="Arial BoldMT" font-size="11.00" fill="#999999">RamConstraint</text>
</g>
<!-- m_Constraint&#45;&gt;m_RamConstraint -->
<g id="edge5" class="edge">
<title>m_Constraint&#45;&gt;m_RamConstraint</title>
<path fill="none" stroke="#999999" d="M334.0733,-133.9859C342.6139,-128.0876 351.3416,-122.4785 360,-117.5 369.5784,-111.9925 380.2553,-106.9727 390.6551,-102.6018"/>
<polygon fill="none" stroke="#999999" points="331.5087,-130.6556 324.1486,-141.0224 336.3671,-137.5081 331.5087,-130.6556"/>
</g>
<!-- m_ScalingConstraint -->
<g id="node8" class="node">
<title>m_ScalingConstraint</title>
<path fill="none" stroke="#999999" d="M382,-.5C382,-.5 502,-.5 502,-.5 508,-.5 514,-6.5 514,-12.5 514,-12.5 514,-24.5 514,-24.5 514,-30.5 508,-36.5 502,-36.5 502,-36.5 382,-36.5 382,-36.5 376,-36.5 370,-30.5 370,-24.5 370,-24.5 370,-12.5 370,-12.5 370,-6.5 376,-.5 382,-.5"/>
<text text-anchor="start" x="396.8943" y="-14.7" font-family="Arial BoldMT" font-size="11.00" fill="#999999">ScalingConstraint</text>
</g>
<!-- m_Constraint&#45;&gt;m_ScalingConstraint -->
<g id="edge6" class="edge">
<title>m_Constraint&#45;&gt;m_ScalingConstraint</title>
<path fill="none" stroke="#999999" d="M315.8316,-111.8178C338.2051,-80.5728 358.269,-52.8565 360,-51.5 367.4888,-45.6314 376.1599,-40.6698 385.0014,-36.5201"/>
<polygon fill="none" stroke="#999999" points="312.3978,-109.3992 308.8317,-121.6026 319.2296,-114.2866 312.3978,-109.3992"/>
</g>
<!-- m_Ingredient -->
<g id="node4" class="node">
<title>m_Ingredient</title>
<path fill="none" stroke="#000000" d="M12,-135C12,-135 132,-135 132,-135 138,-135 144,-141 144,-147 144,-147 144,-256 144,-256 144,-262 138,-268 132,-268 132,-268 12,-268 12,-268 6,-268 0,-262 0,-256 0,-256 0,-147 0,-147 0,-141 6,-135 12,-135"/>
<text text-anchor="start" x="45.5374" y="-254.7" font-family="Arial BoldMT" font-size="11.00" fill="#000000">Ingredient</text>
<polyline fill="none" stroke="#000000" points="0,-249 144,-249 "/>
<text text-anchor="start" x="7" y="-236" font-family="ArialMT" font-size="10.00" fill="#000000">body </text>
<text text-anchor="start" x="31.4629" y="-236" font-family="Arial ItalicMT" font-size="10.00" fill="#999999">text</text>
<text text-anchor="start" x="7" y="-223" font-family="ArialMT" font-size="10.00" fill="#000000">icon </text>
<text text-anchor="start" x="28.123" y="-223" font-family="Arial ItalicMT" font-size="10.00" fill="#999999">string</text>
<text text-anchor="start" x="7" y="-210" font-family="ArialMT" font-size="10.00" fill="#000000">is_template </text>
<text text-anchor="start" x="60.916" y="-210" font-family="Arial ItalicMT" font-size="10.00" fill="#999999">boolean</text>
<text text-anchor="start" x="7" y="-197" font-family="ArialMT" font-size="10.00" fill="#000000">more_attributes </text>
<text text-anchor="start" x="79.2559" y="-197" font-family="Arial ItalicMT" font-size="10.00" fill="#999999">text</text>
<text text-anchor="start" x="7" y="-184" font-family="ArialMT" font-size="10.00" fill="#000000">name </text>
<text text-anchor="start" x="34.793" y="-184" font-family="Arial ItalicMT" font-size="10.00" fill="#999999">string</text>
<text text-anchor="start" x="7" y="-171" font-family="ArialMT" font-size="10.00" fill="#000000">parent_id </text>
<text text-anchor="start" x="51.4775" y="-171" font-family="Arial ItalicMT" font-size="10.00" fill="#999999">integer FK</text>
<text text-anchor="start" x="7" y="-158" font-family="ArialMT" font-size="10.00" fill="#000000">template_id </text>
<text text-anchor="start" x="61.4775" y="-158" font-family="Arial ItalicMT" font-size="10.00" fill="#999999">integer FK</text>
<text text-anchor="start" x="7" y="-145" font-family="ArialMT" font-size="10.00" fill="#000000">user_id </text>
<text text-anchor="start" x="42.5762" y="-145" font-family="Arial ItalicMT" font-size="10.00" fill="#999999">integer FK</text>
</g>
<!-- m_Ingredient&#45;&gt;m_Constraint -->
<g id="edge7" class="edge">
<title>m_Ingredient&#45;&gt;m_Constraint</title>
<path fill="none" stroke="#000000" d="M144.1757,-201.5C153.5286,-201.5 163.1489,-201.5 172.6106,-201.5"/>
<polygon fill="#000000" stroke="#000000" points="179.8081,-201.5 172.8081,-204.6501 176.3081,-201.5 172.8081,-201.5001 172.8081,-201.5001 172.8081,-201.5001 176.3081,-201.5 172.808,-198.3501 179.8081,-201.5 179.8081,-201.5"/>
<text text-anchor="middle" x="164.5432" y="-190.6971" font-family="ArialMT" font-size="7.00" fill="#000000">0..∗</text>
<text text-anchor="middle" x="159.4406" y="-209.4632" font-family="ArialMT" font-size="7.00" fill="#000000">0..1</text>
</g>
<!-- m_Ingredient&#45;&gt;m_CpuConstraint -->
<g id="edge14" class="edge">
<title>m_Ingredient&#45;&gt;m_CpuConstraint</title>
<path fill="none" stroke="#000000" d="M252,-325.5C298.1052,-338.5246 349.9357,-355.0181 387.8017,-367.4147"/>
<text text-anchor="middle" x="376.2459" y="-352.0385" font-family="ArialMT" font-size="7.00" fill="#000000">0..1</text>
<text text-anchor="middle" x="264.0495" y="-337.2966" font-family="ArialMT" font-size="7.00" fill="#000000">0..1</text>
</g>
<!-- m_Ingredient&#45;&gt;m_DependencyConstraint -->
<g id="edge10" class="edge">
<title>m_Ingredient&#45;&gt;m_DependencyConstraint</title>
<path fill="none" stroke="#000000" d="M252,-325.5C287.4324,-335.5096 328.0669,-335.6553 362.64,-332.6335"/>
<polygon fill="#000000" stroke="#000000" points="369.9215,-331.943 363.2502,-335.7398 366.4372,-332.2734 362.9528,-332.6039 362.9528,-332.6039 362.9528,-332.6039 366.4372,-332.2734 362.6554,-329.468 369.9215,-331.943 369.9215,-331.943"/>
<text text-anchor="middle" x="353.8243" y="-322.6238" font-family="ArialMT" font-size="7.00" fill="#000000">0..∗</text>
<text text-anchor="middle" x="264.473" y="-336.9025" font-family="ArialMT" font-size="7.00" fill="#000000">0..1</text>
</g>
<!-- m_Ingredient&#45;&gt;m_Ingredient -->
<g id="edge8" class="edge">
<title>m_Ingredient&#45;&gt;m_Ingredient</title>
<path fill="none" stroke="#000000" d="M55.3567,-268.3471C56.5206,-285.0303 62.0684,-297.5 72,-297.5 80.4574,-297.5 85.7358,-288.4575 87.8352,-275.4708"/>
<polygon fill="#000000" stroke="#000000" points="88.6433,-268.3471 90.9841,-275.6576 88.2487,-271.8248 87.8542,-275.3025 87.8542,-275.3025 87.8542,-275.3025 88.2487,-271.8248 84.7243,-274.9475 88.6433,-268.3471 88.6433,-268.3471"/>
<text text-anchor="middle" x="77.445" y="-281.1753" font-family="ArialMT" font-size="7.00" fill="#000000">0..∗</text>
<text text-anchor="middle" x="47.3636" y="-282.8997" font-family="ArialMT" font-size="7.00" fill="#000000">0..1</text>
</g>
<!-- m_Ingredient&#45;&gt;m_Ingredient -->
<g id="edge9" class="edge">
<title>m_Ingredient&#45;&gt;m_Ingredient</title>
<path fill="none" stroke="#000000" d="M38.955,-268.0543C35.2331,-299.2093 46.248,-326.5 72,-326.5 95.7401,-326.5 106.9559,-303.3069 105.6475,-275.2743"/>
<polygon fill="#000000" stroke="#000000" points="105.045,-268.0543 108.7663,-274.768 105.3361,-271.5422 105.6272,-275.03 105.6272,-275.03 105.6272,-275.03 105.3361,-271.5422 102.4881,-275.292 105.045,-268.0543 105.045,-268.0543"/>
<text text-anchor="middle" x="96.8089" y="-282.7952" font-family="ArialMT" font-size="7.00" fill="#000000">0..∗</text>
<text text-anchor="middle" x="28.3267" y="-281.0061" font-family="ArialMT" font-size="7.00" fill="#000000">0..1</text>
</g>
<!-- m_Ingredient&#45;&gt;m_PreferredRegionAreaConstraint -->
<g id="edge15" class="edge">
<title>m_Ingredient&#45;&gt;m_PreferredRegionAreaConstraint</title>
<path fill="none" stroke="#000000" d="M140.7585,-268.0007C153.2634,-278.304 166.6059,-288.2479 180,-296.5 209.3713,-314.5956 218.8011,-316.1214 252,-325.5"/>
<path fill="none" stroke="#000000" d="M252,-325.5C267.792,-329.9612 357.1618,-285.6228 407.5093,-259.6169"/>
<text text-anchor="middle" x="389.574" y="-256.5164" font-family="ArialMT" font-size="7.00" fill="#000000">0..1</text>
<text text-anchor="middle" x="146.5609" y="-283.4645" font-family="ArialMT" font-size="7.00" fill="#000000">0..1</text>
</g>
<!-- m_Ingredient&#45;&gt;m_ProviderConstraint -->
<g id="edge16" class="edge">
<title>m_Ingredient&#45;&gt;m_ProviderConstraint</title>
<path fill="none" stroke="#000000" d="M252,-77.5C255.6898,-76.4262 342.1391,-110.5363 397.142,-132.4982"/>
<text text-anchor="middle" x="386.4925" y="-116.4113" font-family="ArialMT" font-size="7.00" fill="#000000">0..1</text>
<text text-anchor="middle" x="265.1287" y="-88.2387" font-family="ArialMT" font-size="7.00" fill="#000000">0..1</text>
</g>
<!-- m_Ingredient&#45;&gt;m_RamConstraint -->
<g id="edge13" class="edge">
<title>m_Ingredient&#45;&gt;m_RamConstraint</title>
<path fill="none" stroke="#000000" d="M252,-77.5C289.8739,-66.4778 333.7898,-67.2711 369.8543,-71.2508"/>
<text text-anchor="middle" x="355.6001" y="-58.6838" font-family="ArialMT" font-size="7.00" fill="#000000">0..1</text>
<text text-anchor="middle" x="269.1577" y="-81.3665" font-family="ArialMT" font-size="7.00" fill="#000000">0..1</text>
</g>
<!-- m_Ingredient&#45;&gt;m_ScalingConstraint -->
<g id="edge17" class="edge">
<title>m_Ingredient&#45;&gt;m_ScalingConstraint</title>
<path fill="none" stroke="#000000" d="M142.1014,-134.8869C154.2415,-125.0192 167.117,-115.4964 180,-107.5 209.4541,-89.218 218.7143,-87.187 252,-77.5"/>
<path fill="none" stroke="#000000" d="M252,-77.5C297.1031,-64.3739 347.9072,-48.5429 385.6257,-36.5855"/>
<text text-anchor="middle" x="368.1951" y="-30.5185" font-family="ArialMT" font-size="7.00" fill="#000000">0..1</text>
<text text-anchor="middle" x="159.9736" y="-131.1703" font-family="ArialMT" font-size="7.00" fill="#000000">0..1</text>
</g>
</g>
</svg>
