<?xml version="1.0" encoding="UTF-8" standalone="no"?>
<!DOCTYPE svg PUBLIC "-//W3C//DTD SVG 1.1//EN"
 "http://www.w3.org/Graphics/SVG/1.1/DTD/svg11.dtd">
<!-- Generated by graphviz version 2.38.0 (20140413.2041)
 -->
<!-- Title: CloudStove Pages: 1 -->
<svg width="202pt" height="273pt"
 viewBox="0.00 0.00 201.60 272.60" xmlns="http://www.w3.org/2000/svg" xmlns:xlink="http://www.w3.org/1999/xlink">
<g id="graph0" class="graph" transform="scale(1 1) rotate(0) translate(28.8 243.8)">
<title>CloudStove</title>
<polygon fill="white" stroke="none" points="-28.8,28.8 -28.8,-243.8 172.8,-243.8 172.8,28.8 -28.8,28.8"/>
<text text-anchor="middle" x="72" y="-200.6" font-family="Arial BoldMT" font-size="13.00">Ingredients</text>
<!-- m_Ingredient -->
<g id="node1" class="node"><title>m_Ingredient</title>
<path fill="none" stroke="black" d="M12,-0.5C12,-0.5 132,-0.5 132,-0.5 138,-0.5 144,-6.5 144,-12.5 144,-12.5 144,-108.5 144,-108.5 144,-114.5 138,-120.5 132,-120.5 132,-120.5 12,-120.5 12,-120.5 6,-120.5 0,-114.5 0,-108.5 0,-108.5 0,-12.5 0,-12.5 0,-6.5 6,-0.5 12,-0.5"/>
<text text-anchor="start" x="45.5374" y="-107.2" font-family="Arial BoldMT" font-size="11.00">Ingredient</text>
<polyline fill="none" stroke="black" points="0,-101.5 144,-101.5 "/>
<text text-anchor="start" x="7" y="-88" font-family="ArialMT" font-size="10.00">body </text>
<text text-anchor="start" x="31.4629" y="-88" font-family="Arial ItalicMT" font-size="10.00" fill="#999999">text</text>
<text text-anchor="start" x="7" y="-75" font-family="ArialMT" font-size="10.00">is_template </text>
<text text-anchor="start" x="60.916" y="-75" font-family="Arial ItalicMT" font-size="10.00" fill="#999999">boolean</text>
<text text-anchor="start" x="7" y="-62" font-family="ArialMT" font-size="10.00">more_attributes </text>
<text text-anchor="start" x="79.2559" y="-62" font-family="Arial ItalicMT" font-size="10.00" fill="#999999">text</text>
<text text-anchor="start" x="7" y="-49" font-family="ArialMT" font-size="10.00">name </text>
<text text-anchor="start" x="34.793" y="-49" font-family="Arial ItalicMT" font-size="10.00" fill="#999999">string</text>
<text text-anchor="start" x="7" y="-36" font-family="ArialMT" font-size="10.00">parent_id </text>
<text text-anchor="start" x="51.4775" y="-36" font-family="Arial ItalicMT" font-size="10.00" fill="#999999">integer FK</text>
<text text-anchor="start" x="7" y="-23" font-family="ArialMT" font-size="10.00">template_id </text>
<text text-anchor="start" x="61.4775" y="-23" font-family="Arial ItalicMT" font-size="10.00" fill="#999999">integer FK</text>
<text text-anchor="start" x="7" y="-10" font-family="ArialMT" font-size="10.00">user_id </text>
<text text-anchor="start" x="42.5762" y="-10" font-family="Arial ItalicMT" font-size="10.00" fill="#999999">integer FK</text>
</g>
<!-- m_Ingredient&#45;&gt;m_Ingredient -->
<g id="edge1" class="edge"><title>m_Ingredient&#45;&gt;m_Ingredient</title>
<path fill="none" stroke="black" d="M58.5824,-120.734C59.2306,-137.323 63.7031,-150 72,-150 79.0653,-150 83.3574,-140.807 84.8762,-127.834"/>
<polygon fill="black" stroke="black" points="85.4176,-120.734 88.0261,-127.953 85.1514,-124.224 84.8852,-127.714 84.8852,-127.714 84.8852,-127.714 85.1514,-124.224 81.7444,-127.474 85.4176,-120.734 85.4176,-120.734"/>
<text text-anchor="middle" x="74.746" y="-133.965" font-family="ArialMT" font-size="7.00">0..∗</text>
<text text-anchor="middle" x="50.0342" y="-134.999" font-family="ArialMT" font-size="7.00">0..1</text>
</g>
<!-- m_Ingredient&#45;&gt;m_Ingredient -->
<g id="edge2" class="edge"><title>m_Ingredient&#45;&gt;m_Ingredient</title>
<path fill="none" stroke="black" d="M45.9101,-120.557C41.9987,-151.332 50.6953,-179 72,-179 91.6403,-179 100.566,-155.487 98.7758,-127.702"/>
<polygon fill="black" stroke="black" points="98.0899,-120.557 101.895,-127.224 98.4244,-124.041 98.759,-127.525 98.759,-127.525 98.759,-127.525 98.4244,-124.041 95.6234,-127.827 98.0899,-120.557 98.0899,-120.557"/>
<text text-anchor="middle" x="90.0538" y="-135.4" font-family="ArialMT" font-size="7.00">0..∗</text>
<text text-anchor="middle" x="35.0809" y="-133.36" font-family="ArialMT" font-size="7.00">0..1</text>
</g>
</g>
</svg>
