<?xml version="1.0" encoding="UTF-8" standalone="no"?>
<!DOCTYPE svg PUBLIC "-//W3C//DTD SVG 1.1//EN"
 "http://www.w3.org/Graphics/SVG/1.1/DTD/svg11.dtd">
<!-- Generated by graphviz version 2.38.0 (20140413.2041)
 -->
<!-- Title: CloudStove Pages: 1 -->
<svg width="587pt" height="479pt"
 viewBox="0.00 0.00 587.32 478.60" xmlns="http://www.w3.org/2000/svg" xmlns:xlink="http://www.w3.org/1999/xlink">
<g id="graph0" class="graph" transform="scale(1 1) rotate(0) translate(28.8 449.8)">
<title>CloudStove</title>
<polygon fill="white" stroke="none" points="-28.8,28.8 -28.8,-449.8 558.523,-449.8 558.523,28.8 -28.8,28.8"/>
<text text-anchor="middle" x="264.862" y="-406.6" font-family="Arial BoldMT" font-size="13.00">Ingredients and Constraints</text>
<!-- m_Constraint -->
<g id="node1" class="node"><title>m_Constraint</title>
<path fill="none" stroke="black" d="M192,-122C192,-122 312,-122 312,-122 318,-122 324,-128 324,-134 324,-134 324,-269 324,-269 324,-275 318,-281 312,-281 312,-281 192,-281 192,-281 186,-281 180,-275 180,-269 180,-269 180,-134 180,-134 180,-128 186,-122 192,-122"/>
<text text-anchor="start" x="224.933" y="-267.7" font-family="Arial BoldMT" font-size="11.00">Constraint</text>
<polyline fill="none" stroke="black" points="180,-262 324,-262 "/>
<text text-anchor="start" x="187" y="-249" font-family="ArialMT" font-size="10.00">ingredient_id </text>
<text text-anchor="start" x="247.044" y="-249" font-family="Arial ItalicMT" font-size="10.00" fill="#999999">integer FK</text>
<text text-anchor="start" x="187" y="-236" font-family="ArialMT" font-size="10.00">max_num_instances </text>
<text text-anchor="start" x="281.492" y="-236" font-family="Arial ItalicMT" font-size="10.00" fill="#999999">integer</text>
<text text-anchor="start" x="187" y="-223" font-family="ArialMT" font-size="10.00">min_cpus </text>
<text text-anchor="start" x="232.576" y="-223" font-family="Arial ItalicMT" font-size="10.00" fill="#999999">integer</text>
<text text-anchor="start" x="187" y="-210" font-family="ArialMT" font-size="10.00">min_ram </text>
<text text-anchor="start" x="228.675" y="-210" font-family="Arial ItalicMT" font-size="10.00" fill="#999999">integer</text>
<text text-anchor="start" x="187" y="-197" font-family="ArialMT" font-size="10.00">more_attributes </text>
<text text-anchor="start" x="259.256" y="-197" font-family="Arial ItalicMT" font-size="10.00" fill="#999999">text</text>
<text text-anchor="start" x="187" y="-184" font-family="ArialMT" font-size="10.00">preferred_providers </text>
<text text-anchor="start" x="277.044" y="-184" font-family="Arial ItalicMT" font-size="10.00" fill="#999999">string</text>
<text text-anchor="start" x="187" y="-171" font-family="ArialMT" font-size="10.00">preferred_region_area </text>
<text text-anchor="start" x="289.29" y="-171" font-family="Arial ItalicMT" font-size="10.00" fill="#999999">string</text>
<text text-anchor="start" x="187" y="-158" font-family="ArialMT" font-size="10.00">source_id </text>
<text text-anchor="start" x="233.138" y="-158" font-family="Arial ItalicMT" font-size="10.00" fill="#999999">integer</text>
<text text-anchor="start" x="187" y="-145" font-family="ArialMT" font-size="10.00">target_id </text>
<text text-anchor="start" x="228.694" y="-145" font-family="Arial ItalicMT" font-size="10.00" fill="#999999">integer</text>
<text text-anchor="start" x="187" y="-132" font-family="ArialMT" font-size="10.00">user_id </text>
<text text-anchor="start" x="222.576" y="-132" font-family="Arial ItalicMT" font-size="10.00" fill="#999999">integer FK</text>
</g>
<!-- m_CpuConstraint -->
<g id="node2" class="node"><title>m_CpuConstraint</title>
<path fill="none" stroke="#999999" d="M382,-348.5C382,-348.5 502,-348.5 502,-348.5 508,-348.5 514,-354.5 514,-360.5 514,-360.5 514,-372.5 514,-372.5 514,-378.5 508,-384.5 502,-384.5 502,-384.5 382,-384.5 382,-384.5 376,-384.5 370,-378.5 370,-372.5 370,-372.5 370,-360.5 370,-360.5 370,-354.5 376,-348.5 382,-348.5"/>
<text text-anchor="start" x="404.844" y="-362.7" font-family="Arial BoldMT" font-size="11.00" fill="#999999">CpuConstraint</text>
</g>
<!-- m_Constraint&#45;&gt;m_CpuConstraint -->
<g id="edge1" class="edge"><title>m_Constraint&#45;&gt;m_CpuConstraint</title>
<path fill="none" stroke="#999999" d="M314.722,-290.512C328.359,-306.209 343.66,-321.379 360,-333.5 367.805,-339.29 376.77,-344.248 385.827,-348.427"/>
<polygon fill="none" stroke="#999999" points="317.838,-287.692 306.89,-281.228 311.418,-293.109 317.838,-287.692"/>
</g>
<!-- m_DependencyConstraint -->
<g id="node3" class="node"><title>m_DependencyConstraint</title>
<path fill="none" stroke="#999999" d="M382,-282.5C382,-282.5 502,-282.5 502,-282.5 508,-282.5 514,-288.5 514,-294.5 514,-294.5 514,-306.5 514,-306.5 514,-312.5 508,-318.5 502,-318.5 502,-318.5 382,-318.5 382,-318.5 376,-318.5 370,-312.5 370,-306.5 370,-306.5 370,-294.5 370,-294.5 370,-288.5 376,-282.5 382,-282.5"/>
<text text-anchor="start" x="384.049" y="-296.7" font-family="Arial BoldMT" font-size="11.00" fill="#999999">DependencyConstraint</text>
</g>
<!-- m_Constraint&#45;&gt;m_DependencyConstraint -->
<g id="edge3" class="edge"><title>m_Constraint&#45;&gt;m_DependencyConstraint</title>
<path fill="none" stroke="#999999" d="M334.739,-248.02C343.231,-252.647 351.764,-257.214 360,-261.5 373.568,-268.562 388.618,-275.932 402.027,-282.34"/>
<polygon fill="none" stroke="#999999" points="336.573,-244.235 324.032,-242.144 332.531,-251.599 336.573,-244.235"/>
</g>
<!-- m_PreferredRegionAreaConstraint -->
<g id="node5" class="node"><title>m_PreferredRegionAreaConstraint</title>
<path fill="none" stroke="#999999" d="M372,-210.5C372,-210.5 512,-210.5 512,-210.5 518,-210.5 524,-216.5 524,-222.5 524,-222.5 524,-234.5 524,-234.5 524,-240.5 518,-246.5 512,-246.5 512,-246.5 372,-246.5 372,-246.5 366,-246.5 360,-240.5 360,-234.5 360,-234.5 360,-222.5 360,-222.5 360,-216.5 366,-210.5 372,-210.5"/>
<text text-anchor="start" x="364.96" y="-224.7" font-family="Arial BoldMT" font-size="11.00" fill="#999999">PreferredRegionAreaConstraint</text>
</g>
<!-- m_Constraint&#45;&gt;m_PreferredRegionAreaConstraint -->
<g id="edge5" class="edge"><title>m_Constraint&#45;&gt;m_PreferredRegionAreaConstraint</title>
<path fill="none" stroke="#999999" d="M336.23,-213.453C344.038,-214.575 351.947,-215.71 359.736,-216.829"/>
<polygon fill="none" stroke="#999999" points="336.55,-209.256 324.075,-211.708 335.356,-217.571 336.55,-209.256"/>
</g>
<!-- m_ProviderConstraint -->
<g id="node6" class="node"><title>m_ProviderConstraint</title>
<path fill="none" stroke="#999999" d="M382,-132.5C382,-132.5 502,-132.5 502,-132.5 508,-132.5 514,-138.5 514,-144.5 514,-144.5 514,-156.5 514,-156.5 514,-162.5 508,-168.5 502,-168.5 502,-168.5 382,-168.5 382,-168.5 376,-168.5 370,-162.5 370,-156.5 370,-156.5 370,-144.5 370,-144.5 370,-138.5 376,-132.5 382,-132.5"/>
<text text-anchor="start" x="394.453" y="-146.7" font-family="Arial BoldMT" font-size="11.00" fill="#999999">ProviderConstraint</text>
</g>
<!-- m_Constraint&#45;&gt;m_ProviderConstraint -->
<g id="edge7" class="edge"><title>m_Constraint&#45;&gt;m_ProviderConstraint</title>
<path fill="none" stroke="#999999" d="M335.837,-179.028C348.763,-175.522 361.975,-171.938 374.476,-168.546"/>
<polygon fill="none" stroke="#999999" points="334.557,-175.024 324.075,-182.219 336.756,-183.131 334.557,-175.024"/>
</g>
<!-- m_RamConstraint -->
<g id="node7" class="node"><title>m_RamConstraint</title>
<path fill="none" stroke="#999999" d="M382,-66.5C382,-66.5 502,-66.5 502,-66.5 508,-66.5 514,-72.5 514,-78.5 514,-78.5 514,-90.5 514,-90.5 514,-96.5 508,-102.5 502,-102.5 502,-102.5 382,-102.5 382,-102.5 376,-102.5 370,-96.5 370,-90.5 370,-90.5 370,-78.5 370,-78.5 370,-72.5 376,-66.5 382,-66.5"/>
<text text-anchor="start" x="403.321" y="-80.7" font-family="Arial BoldMT" font-size="11.00" fill="#999999">RamConstraint</text>
</g>
<!-- m_Constraint&#45;&gt;m_RamConstraint -->
<g id="edge9" class="edge"><title>m_Constraint&#45;&gt;m_RamConstraint</title>
<path fill="none" stroke="#999999" d="M334.079,-134.156C342.613,-128.199 351.34,-122.53 360,-117.5 369.454,-112.009 379.997,-106.996 390.269,-102.627"/>
<polygon fill="none" stroke="#999999" points="331.471,-130.858 324.164,-141.262 336.365,-137.685 331.471,-130.858"/>
</g>
<!-- m_ScalingConstraint -->
<g id="node8" class="node"><title>m_ScalingConstraint</title>
<path fill="none" stroke="#999999" d="M382,-0.5C382,-0.5 502,-0.5 502,-0.5 508,-0.5 514,-6.5 514,-12.5 514,-12.5 514,-24.5 514,-24.5 514,-30.5 508,-36.5 502,-36.5 502,-36.5 382,-36.5 382,-36.5 376,-36.5 370,-30.5 370,-24.5 370,-24.5 370,-12.5 370,-12.5 370,-6.5 376,-0.5 382,-0.5"/>
<text text-anchor="start" x="396.894" y="-14.7" font-family="Arial BoldMT" font-size="11.00" fill="#999999">ScalingConstraint</text>
</g>
<!-- m_Constraint&#45;&gt;m_ScalingConstraint -->
<g id="edge11" class="edge"><title>m_Constraint&#45;&gt;m_ScalingConstraint</title>
<path fill="none" stroke="#999999" d="M315.372,-111.989C336.937,-81.435 356.604,-54.1854 360,-51.5 367.385,-45.6609 375.944,-40.7145 384.675,-36.5709"/>
<polygon fill="none" stroke="#999999" points="311.799,-109.768 308.322,-121.998 318.666,-114.606 311.799,-109.768"/>
</g>
<!-- m_Ingredient -->
<g id="node4" class="node"><title>m_Ingredient</title>
<path fill="none" stroke="black" d="M12,-141.5C12,-141.5 132,-141.5 132,-141.5 138,-141.5 144,-147.5 144,-153.5 144,-153.5 144,-249.5 144,-249.5 144,-255.5 138,-261.5 132,-261.5 132,-261.5 12,-261.5 12,-261.5 6,-261.5 0,-255.5 0,-249.5 0,-249.5 0,-153.5 0,-153.5 0,-147.5 6,-141.5 12,-141.5"/>
<text text-anchor="start" x="45.5374" y="-248.2" font-family="Arial BoldMT" font-size="11.00">Ingredient</text>
<polyline fill="none" stroke="black" points="0,-242.5 144,-242.5 "/>
<text text-anchor="start" x="7" y="-229" font-family="ArialMT" font-size="10.00">body </text>
<text text-anchor="start" x="31.4629" y="-229" font-family="Arial ItalicMT" font-size="10.00" fill="#999999">text</text>
<text text-anchor="start" x="7" y="-216" font-family="ArialMT" font-size="10.00">is_template </text>
<text text-anchor="start" x="60.916" y="-216" font-family="Arial ItalicMT" font-size="10.00" fill="#999999">boolean</text>
<text text-anchor="start" x="7" y="-203" font-family="ArialMT" font-size="10.00">more_attributes </text>
<text text-anchor="start" x="79.2559" y="-203" font-family="Arial ItalicMT" font-size="10.00" fill="#999999">text</text>
<text text-anchor="start" x="7" y="-190" font-family="ArialMT" font-size="10.00">name </text>
<text text-anchor="start" x="34.793" y="-190" font-family="Arial ItalicMT" font-size="10.00" fill="#999999">string</text>
<text text-anchor="start" x="7" y="-177" font-family="ArialMT" font-size="10.00">parent_id </text>
<text text-anchor="start" x="51.4775" y="-177" font-family="Arial ItalicMT" font-size="10.00" fill="#999999">integer FK</text>
<text text-anchor="start" x="7" y="-164" font-family="ArialMT" font-size="10.00">template_id </text>
<text text-anchor="start" x="61.4775" y="-164" font-family="Arial ItalicMT" font-size="10.00" fill="#999999">integer FK</text>
<text text-anchor="start" x="7" y="-151" font-family="ArialMT" font-size="10.00">user_id </text>
<text text-anchor="start" x="42.5762" y="-151" font-family="Arial ItalicMT" font-size="10.00" fill="#999999">integer FK</text>
</g>
<!-- m_Ingredient&#45;&gt;m_Constraint -->
<g id="edge13" class="edge"><title>m_Ingredient&#45;&gt;m_Constraint</title>
<path fill="none" stroke="black" d="M144.118,-201.5C153.532,-201.5 163.225,-201.5 172.751,-201.5"/>
<polygon fill="black" stroke="black" points="179.995,-201.5 172.995,-204.65 176.495,-201.5 172.995,-201.5 172.995,-201.5 172.995,-201.5 176.495,-201.5 172.995,-198.35 179.995,-201.5 179.995,-201.5"/>
<text text-anchor="middle" x="164.73" y="-190.697" font-family="ArialMT" font-size="7.00">0..∗</text>
<text text-anchor="middle" x="159.383" y="-209.463" font-family="ArialMT" font-size="7.00">0..1</text>
</g>
<!-- m_Ingredient&#45;&gt;m_CpuConstraint -->
<g id="edge20" class="edge"><title>m_Ingredient&#45;&gt;m_CpuConstraint</title>
<path fill="none" stroke="black" d="M253,-325.5C291.534,-334.565 334.677,-344.022 369.904,-351.567"/>
<text text-anchor="middle" x="356.983" y="-337.46" font-family="ArialMT" font-size="7.00">0..1</text>
<text text-anchor="middle" x="265.696" y="-336.685" font-family="ArialMT" font-size="7.00">0..1</text>
</g>
<!-- m_Ingredient&#45;&gt;m_DependencyConstraint -->
<g id="edge16" class="edge"><title>m_Ingredient&#45;&gt;m_DependencyConstraint</title>
<path fill="none" stroke="black" d="M253,-325.5C293.865,-335.113 340.659,-328.949 377.338,-320.339"/>
<polygon fill="black" stroke="black" points="384.535,-318.589 378.478,-323.304 381.134,-319.416 377.733,-320.243 377.733,-320.243 377.733,-320.243 381.134,-319.416 376.988,-317.183 384.535,-318.589 384.535,-318.589"/>
<text text-anchor="middle" x="367.448" y="-311.664" font-family="ArialMT" font-size="7.00">0..∗</text>
<text text-anchor="middle" x="266.155" y="-336.21" font-family="ArialMT" font-size="7.00">0..1</text>
</g>
<!-- m_Ingredient&#45;&gt;m_Ingredient -->
<g id="edge14" class="edge"><title>m_Ingredient&#45;&gt;m_Ingredient</title>
<path fill="none" stroke="black" d="M55.228,-261.734C56.0382,-278.323 61.6289,-291 72,-291 80.8316,-291 86.1967,-281.807 88.0952,-268.834"/>
<polygon fill="black" stroke="black" points="88.772,-261.734 91.2434,-269.001 88.4398,-265.218 88.1077,-268.702 88.1077,-268.702 88.1077,-268.702 88.4398,-265.218 84.9719,-268.403 88.772,-261.734 88.772,-261.734"/>
<text text-anchor="middle" x="77.828" y="-274.761" font-family="ArialMT" font-size="7.00">0..∗</text>
<text text-anchor="middle" x="46.932" y="-276.133" font-family="ArialMT" font-size="7.00">0..1</text>
</g>
<!-- m_Ingredient&#45;&gt;m_Ingredient -->
<g id="edge15" class="edge"><title>m_Ingredient&#45;&gt;m_Ingredient</title>
<path fill="none" stroke="black" d="M39.3876,-261.557C34.4983,-292.332 45.3691,-320 72,-320 96.5503,-320 107.707,-296.487 105.47,-268.702"/>
<polygon fill="black" stroke="black" points="104.612,-261.557 108.574,-268.132 105.029,-265.033 105.447,-268.508 105.447,-268.508 105.447,-268.508 105.029,-265.033 102.319,-268.883 104.612,-261.557 104.612,-261.557"/>
<text text-anchor="middle" x="96.9606" y="-276.586" font-family="ArialMT" font-size="7.00">0..∗</text>
<text text-anchor="middle" x="28.2504" y="-274.123" font-family="ArialMT" font-size="7.00">0..1</text>
</g>
<!-- m_Ingredient&#45;&gt;m_PreferredRegionAreaConstraint -->
<g id="edge21" class="edge"><title>m_Ingredient&#45;&gt;m_PreferredRegionAreaConstraint</title>
<path fill="none" stroke="black" d="M133.538,-261.552C148.032,-274.094 163.973,-286.521 180,-296.5 208.936,-314.517 217.819,-317.695 251,-325.5"/>
<path fill="none" stroke="black" d="M253,-325.5C305.655,-337.886 314.268,-296.39 360,-267.5 372.14,-259.831 386.015,-252.637 398.811,-246.568"/>
<text text-anchor="middle" x="380.923" y="-242.988" font-family="ArialMT" font-size="7.00">0..1</text>
<text text-anchor="middle" x="138.935" y="-277.149" font-family="ArialMT" font-size="7.00">0..1</text>
</g>
<!-- m_Ingredient&#45;&gt;m_ProviderConstraint -->
<g id="edge22" class="edge"><title>m_Ingredient&#45;&gt;m_ProviderConstraint</title>
<path fill="none" stroke="black" d="M253,-77.5C256.645,-76.4391 341.703,-110.347 396.146,-132.312"/>
<text text-anchor="middle" x="385.548" y="-116.187" font-family="ArialMT" font-size="7.00">0..1</text>
<text text-anchor="middle" x="266.101" y="-88.2683" font-family="ArialMT" font-size="7.00">0..1</text>
</g>
<!-- m_Ingredient&#45;&gt;m_RamConstraint -->
<g id="edge19" class="edge"><title>m_Ingredient&#45;&gt;m_RamConstraint</title>
<path fill="none" stroke="black" d="M253,-77.5C290.476,-66.5936 333.929,-67.3947 369.614,-71.3497"/>
<text text-anchor="middle" x="355.365" y="-58.776" font-family="ArialMT" font-size="7.00">0..1</text>
<text text-anchor="middle" x="270.157" y="-81.3672" font-family="ArialMT" font-size="7.00">0..1</text>
</g>
<!-- m_Ingredient&#45;&gt;m_ScalingConstraint -->
<g id="edge23" class="edge"><title>m_Ingredient&#45;&gt;m_ScalingConstraint</title>
<path fill="none" stroke="black" d="M134.844,-141.267C149.02,-129.181 164.5,-117.224 180,-107.5 209.019,-89.2946 218.108,-87.0724 251,-77.5"/>
<path fill="none" stroke="black" d="M253,-77.5C297.834,-64.4521 348.307,-48.5445 385.658,-36.5364"/>
<text text-anchor="middle" x="368.21" y="-30.5383" font-family="ArialMT" font-size="7.00">0..1</text>
<text text-anchor="middle" x="152.663" y="-137.139" font-family="ArialMT" font-size="7.00">0..1</text>
</g>
</g>
</svg>
