<?xml version="1.0" encoding="UTF-8" standalone="no"?>
<!DOCTYPE svg PUBLIC "-//W3C//DTD SVG 1.1//EN"
 "http://www.w3.org/Graphics/SVG/1.1/DTD/svg11.dtd">
<!-- Generated by graphviz version 2.38.0 (20140413.2041)
 -->
<!-- Title: CloudStove Pages: 1 -->
<svg width="382pt" height="228pt"
 viewBox="0.00 0.00 381.60 227.60" xmlns="http://www.w3.org/2000/svg" xmlns:xlink="http://www.w3.org/1999/xlink">
<g id="graph0" class="graph" transform="scale(1 1) rotate(0) translate(28.8 198.8)">
<title>CloudStove</title>
<polygon fill="white" stroke="none" points="-28.8,28.8 -28.8,-198.8 352.8,-198.8 352.8,28.8 -28.8,28.8"/>
<text text-anchor="middle" x="162" y="-155.6" font-family="Arial BoldMT" font-size="13.00">Providers and Resources</text>
<!-- m_Provider -->
<g id="node1" class="node"><title>m_Provider</title>
<path fill="none" stroke="black" d="M12,-39.5C12,-39.5 132,-39.5 132,-39.5 138,-39.5 144,-45.5 144,-51.5 144,-51.5 144,-82.5 144,-82.5 144,-88.5 138,-94.5 132,-94.5 132,-94.5 12,-94.5 12,-94.5 6,-94.5 0,-88.5 0,-82.5 0,-82.5 0,-51.5 0,-51.5 0,-45.5 6,-39.5 12,-39.5"/>
<text text-anchor="start" x="49.52" y="-81.2" font-family="Arial BoldMT" font-size="11.00">Provider</text>
<polyline fill="none" stroke="black" points="0,-75.5 144,-75.5 "/>
<text text-anchor="start" x="7" y="-62.5" font-family="ArialMT" font-size="10.00">more_attributes </text>
<text text-anchor="start" x="79.2559" y="-62.5" font-family="Arial ItalicMT" font-size="10.00" fill="#999999">text ∗</text>
<text text-anchor="start" x="7" y="-49.5" font-family="ArialMT" font-size="10.00">name </text>
<text text-anchor="start" x="34.793" y="-49.5" font-family="Arial ItalicMT" font-size="10.00" fill="#999999">string</text>
</g>
<!-- m_Resource -->
<g id="node2" class="node"><title>m_Resource</title>
<path fill="none" stroke="black" d="M192,-0.5C192,-0.5 312,-0.5 312,-0.5 318,-0.5 324,-6.5 324,-12.5 324,-12.5 324,-121.5 324,-121.5 324,-127.5 318,-133.5 312,-133.5 312,-133.5 192,-133.5 192,-133.5 186,-133.5 180,-127.5 180,-121.5 180,-121.5 180,-12.5 180,-12.5 180,-6.5 186,-0.5 192,-0.5"/>
<text text-anchor="start" x="226.461" y="-120.2" font-family="Arial BoldMT" font-size="11.00">Resource</text>
<polyline fill="none" stroke="black" points="180,-114.5 324,-114.5 "/>
<text text-anchor="start" x="187" y="-101.5" font-family="ArialMT" font-size="10.00">more_attributes </text>
<text text-anchor="start" x="259.256" y="-101.5" font-family="Arial ItalicMT" font-size="10.00" fill="#999999">text ∗</text>
<text text-anchor="start" x="187" y="-88.5" font-family="ArialMT" font-size="10.00">name </text>
<text text-anchor="start" x="214.793" y="-88.5" font-family="Arial ItalicMT" font-size="10.00" fill="#999999">string</text>
<text text-anchor="start" x="187" y="-75.5" font-family="ArialMT" font-size="10.00">provider_id </text>
<text text-anchor="start" x="239.251" y="-75.5" font-family="Arial ItalicMT" font-size="10.00" fill="#999999">integer FK</text>
<text text-anchor="start" x="187" y="-62.5" font-family="ArialMT" font-size="10.00">region </text>
<text text-anchor="start" x="217.576" y="-62.5" font-family="Arial ItalicMT" font-size="10.00" fill="#999999">string</text>
<text text-anchor="start" x="187" y="-49.5" font-family="ArialMT" font-size="10.00">region_area </text>
<text text-anchor="start" x="243.152" y="-49.5" font-family="Arial ItalicMT" font-size="10.00" fill="#999999">string</text>
<text text-anchor="start" x="187" y="-36.5" font-family="ArialMT" font-size="10.00">region_code </text>
<text text-anchor="start" x="244.822" y="-36.5" font-family="Arial ItalicMT" font-size="10.00" fill="#999999">integer (8)</text>
<text text-anchor="start" x="187" y="-23.5" font-family="ArialMT" font-size="10.00">resource_code </text>
<text text-anchor="start" x="255.931" y="-23.5" font-family="Arial ItalicMT" font-size="10.00" fill="#999999">integer (8)</text>
<text text-anchor="start" x="187" y="-10.5" font-family="ArialMT" font-size="10.00">resource_type </text>
<text text-anchor="start" x="253.147" y="-10.5" font-family="Arial ItalicMT" font-size="10.00" fill="#999999">string ∗</text>
</g>
<!-- m_Provider&#45;&gt;m_Resource -->
<g id="edge1" class="edge"><title>m_Provider&#45;&gt;m_Resource</title>
<path fill="none" stroke="black" d="M144.118,-67C153.532,-67 163.225,-67 172.751,-67"/>
<polygon fill="black" stroke="black" points="179.995,-67 172.995,-70.1501 176.495,-67 172.995,-67.0001 172.995,-67.0001 172.995,-67.0001 176.495,-67 172.995,-63.8501 179.995,-67 179.995,-67"/>
<text text-anchor="middle" x="164.73" y="-56.1971" font-family="ArialMT" font-size="7.00">0..∗</text>
<text text-anchor="middle" x="159.383" y="-74.9632" font-family="ArialMT" font-size="7.00">0..1</text>
</g>
</g>
</svg>
