<?xml version="1.0" encoding="UTF-8" standalone="no"?>
<!DOCTYPE svg PUBLIC "-//W3C//DTD SVG 1.1//EN"
 "http://www.w3.org/Graphics/SVG/1.1/DTD/svg11.dtd">
<!-- Generated by graphviz version 2.40.1 (20161225.0304)
 -->
<!-- Title: CloudStove Pages: 1 -->
<svg width="431pt" height="523pt"
 viewBox="0.00 0.00 430.60 522.60" xmlns="http://www.w3.org/2000/svg" xmlns:xlink="http://www.w3.org/1999/xlink">
<g id="graph0" class="graph" transform="scale(1 1) rotate(0) translate(28.8 493.8)">
<title>CloudStove</title>
<polygon fill="#ffffff" stroke="transparent" points="-28.8,28.8 -28.8,-493.8 401.8,-493.8 401.8,28.8 -28.8,28.8"/>
<text text-anchor="middle" x="186.5" y="-450.6" font-family="Arial BoldMT" font-size="13.00" fill="#000000">Ingredients and Workloads</text>
<!-- m_CpuWorkload -->
<g id="node1" class="node">
<title>m_CpuWorkload</title>
<path fill="none" stroke="#000000" d="M216.5,-125C216.5,-125 336.5,-125 336.5,-125 342.5,-125 348.5,-131 348.5,-137 348.5,-137 348.5,-194 348.5,-194 348.5,-200 342.5,-206 336.5,-206 336.5,-206 216.5,-206 216.5,-206 210.5,-206 204.5,-200 204.5,-194 204.5,-194 204.5,-137 204.5,-137 204.5,-131 210.5,-125 216.5,-125"/>
<text text-anchor="start" x="241.2771" y="-192.7" font-family="Arial BoldMT" font-size="11.00" fill="#000000">CpuWorkload</text>
<polyline fill="none" stroke="#000000" points="204.5,-187 348.5,-187 "/>
<text text-anchor="start" x="211.5" y="-174" font-family="ArialMT" font-size="10.00" fill="#000000">cspu_user_capacity </text>
<text text-anchor="start" x="302.6621" y="-174" font-family="Arial ItalicMT" font-size="10.00" fill="#999999">integer</text>
<text text-anchor="start" x="211.5" y="-161" font-family="ArialMT" font-size="10.00" fill="#000000">ingredient_id </text>
<text text-anchor="start" x="271.5439" y="-161" font-family="Arial ItalicMT" font-size="10.00" fill="#999999">integer FK</text>
<text text-anchor="start" x="211.5" y="-148" font-family="ArialMT" font-size="10.00" fill="#000000">parallelism </text>
<text text-anchor="start" x="262.0713" y="-148" font-family="Arial ItalicMT" font-size="10.00" fill="#999999">float</text>
<text text-anchor="start" x="211.5" y="-135" font-family="ArialMT" font-size="10.00" fill="#000000">user_id </text>
<text text-anchor="start" x="247.0762" y="-135" font-family="Arial ItalicMT" font-size="10.00" fill="#999999">integer FK</text>
</g>
<!-- m_Ingredient -->
<g id="node2" class="node">
<title>m_Ingredient</title>
<path fill="none" stroke="#000000" d="M12,-214C12,-214 132,-214 132,-214 138,-214 144,-220 144,-226 144,-226 144,-335 144,-335 144,-341 138,-347 132,-347 132,-347 12,-347 12,-347 6,-347 0,-341 0,-335 0,-335 0,-226 0,-226 0,-220 6,-214 12,-214"/>
<text text-anchor="start" x="45.5374" y="-333.7" font-family="Arial BoldMT" font-size="11.00" fill="#000000">Ingredient</text>
<polyline fill="none" stroke="#000000" points="0,-328 144,-328 "/>
<text text-anchor="start" x="7" y="-315" font-family="ArialMT" font-size="10.00" fill="#000000">body </text>
<text text-anchor="start" x="31.4629" y="-315" font-family="Arial ItalicMT" font-size="10.00" fill="#999999">text</text>
<text text-anchor="start" x="7" y="-302" font-family="ArialMT" font-size="10.00" fill="#000000">icon </text>
<text text-anchor="start" x="28.123" y="-302" font-family="Arial ItalicMT" font-size="10.00" fill="#999999">string</text>
<text text-anchor="start" x="7" y="-289" font-family="ArialMT" font-size="10.00" fill="#000000">is_template </text>
<text text-anchor="start" x="60.916" y="-289" font-family="Arial ItalicMT" font-size="10.00" fill="#999999">boolean</text>
<text text-anchor="start" x="7" y="-276" font-family="ArialMT" font-size="10.00" fill="#000000">more_attributes </text>
<text text-anchor="start" x="79.2559" y="-276" font-family="Arial ItalicMT" font-size="10.00" fill="#999999">text</text>
<text text-anchor="start" x="7" y="-263" font-family="ArialMT" font-size="10.00" fill="#000000">name </text>
<text text-anchor="start" x="34.793" y="-263" font-family="Arial ItalicMT" font-size="10.00" fill="#999999">string</text>
<text text-anchor="start" x="7" y="-250" font-family="ArialMT" font-size="10.00" fill="#000000">parent_id </text>
<text text-anchor="start" x="51.4775" y="-250" font-family="Arial ItalicMT" font-size="10.00" fill="#999999">integer FK</text>
<text text-anchor="start" x="7" y="-237" font-family="ArialMT" font-size="10.00" fill="#000000">template_id </text>
<text text-anchor="start" x="61.4775" y="-237" font-family="Arial ItalicMT" font-size="10.00" fill="#999999">integer FK</text>
<text text-anchor="start" x="7" y="-224" font-family="ArialMT" font-size="10.00" fill="#000000">user_id </text>
<text text-anchor="start" x="42.5762" y="-224" font-family="Arial ItalicMT" font-size="10.00" fill="#999999">integer FK</text>
</g>
<!-- m_Ingredient&#45;&gt;m_CpuWorkload -->
<g id="edge7" class="edge">
<title>m_Ingredient&#45;&gt;m_CpuWorkload</title>
<path fill="none" stroke="#000000" d="M144.099,-239.9553C163.648,-228.962 184.8117,-217.0607 204.3627,-206.0662"/>
<text text-anchor="middle" x="186.382" y="-203.659" font-family="ArialMT" font-size="7.00" fill="#000000">0..1</text>
<text text-anchor="middle" x="162.0798" y="-239.2118" font-family="ArialMT" font-size="7.00" fill="#000000">0..1</text>
</g>
<!-- m_Ingredient&#45;&gt;m_Ingredient -->
<g id="edge5" class="edge">
<title>m_Ingredient&#45;&gt;m_Ingredient</title>
<path fill="none" stroke="#000000" d="M53.1376,-347.3471C54.4567,-364.0303 60.7441,-376.5 72,-376.5 81.5851,-376.5 87.5673,-367.4575 89.9466,-354.4708"/>
<polygon fill="#000000" stroke="#000000" points="90.8624,-347.3471 93.094,-354.6917 90.416,-350.8186 89.9697,-354.29 89.9697,-354.29 89.9697,-354.29 90.416,-350.8186 86.8454,-353.8883 90.8624,-347.3471 90.8624,-347.3471"/>
<text text-anchor="middle" x="79.4553" y="-360.0069" font-family="ArialMT" font-size="7.00" fill="#000000">0..∗</text>
<text text-anchor="middle" x="45.3551" y="-362.0024" font-family="ArialMT" font-size="7.00" fill="#000000">0..1</text>
</g>
<!-- m_Ingredient&#45;&gt;m_Ingredient -->
<g id="edge6" class="edge">
<title>m_Ingredient&#45;&gt;m_Ingredient</title>
<path fill="none" stroke="#000000" d="M34.549,-347.0543C30.3308,-378.2093 42.8145,-405.5 72,-405.5 98.9054,-405.5 111.6167,-382.3069 110.1338,-354.2743"/>
<polygon fill="#000000" stroke="#000000" points="109.451,-347.0543 113.2462,-353.7266 109.7806,-350.5387 110.1101,-354.0232 110.1101,-354.0232 110.1101,-354.0232 109.7806,-350.5387 106.9741,-354.3198 109.451,-347.0543 109.451,-347.0543"/>
<text text-anchor="middle" x="101.3921" y="-361.8851" font-family="ArialMT" font-size="7.00" fill="#000000">0..∗</text>
<text text-anchor="middle" x="23.7802" y="-359.9023" font-family="ArialMT" font-size="7.00" fill="#000000">0..1</text>
</g>
<!-- m_RamWorkload -->
<g id="node3" class="node">
<title>m_RamWorkload</title>
<path fill="none" stroke="#000000" d="M192,-.5C192,-.5 361,-.5 361,-.5 367,-.5 373,-6.5 373,-12.5 373,-12.5 373,-82.5 373,-82.5 373,-88.5 367,-94.5 361,-94.5 361,-94.5 192,-94.5 192,-94.5 186,-94.5 180,-88.5 180,-82.5 180,-82.5 180,-12.5 180,-12.5 180,-6.5 186,-.5 192,-.5"/>
<text text-anchor="start" x="239.7544" y="-81.2" font-family="Arial BoldMT" font-size="11.00" fill="#000000">RamWorkload</text>
<polyline fill="none" stroke="#000000" points="180,-75.5 373,-75.5 "/>
<text text-anchor="start" x="187.5" y="-62" font-family="ArialMT" font-size="10.00" fill="#000000">ingredient_id </text>
<text text-anchor="start" x="247.5439" y="-62" font-family="Arial ItalicMT" font-size="10.00" fill="#999999">integer FK</text>
<text text-anchor="start" x="187.5" y="-49" font-family="ArialMT" font-size="10.00" fill="#000000">ram_mb_growth_per_user </text>
<text text-anchor="start" x="307.5586" y="-49" font-family="Arial ItalicMT" font-size="10.00" fill="#999999">float</text>
<text text-anchor="start" x="187.5" y="-36" font-family="ArialMT" font-size="10.00" fill="#000000">ram_mb_required </text>
<text text-anchor="start" x="269.2041" y="-36" font-family="Arial ItalicMT" font-size="10.00" fill="#999999">integer</text>
<text text-anchor="start" x="187.2295" y="-23" font-family="ArialMT" font-size="10.00" fill="#000000">ram_mb_required_user_capacity </text>
<text text-anchor="start" x="336.1943" y="-23" font-family="Arial ItalicMT" font-size="10.00" fill="#999999">integer</text>
<text text-anchor="start" x="187.5" y="-10" font-family="ArialMT" font-size="10.00" fill="#000000">user_id </text>
<text text-anchor="start" x="223.0762" y="-10" font-family="Arial ItalicMT" font-size="10.00" fill="#999999">integer FK</text>
</g>
<!-- m_Ingredient&#45;&gt;m_RamWorkload -->
<g id="edge8" class="edge">
<title>m_Ingredient&#45;&gt;m_RamWorkload</title>
<path fill="none" stroke="#000000" d="M133.5988,-213.8766C137.3074,-208.8122 140.8185,-203.6605 144,-198.5 166.3921,-162.1787 152.7723,-142.3526 180,-109.5 184.3204,-104.2871 189.1953,-99.3652 194.4013,-94.7491"/>
<text text-anchor="middle" x="176.6714" y="-96.2798" font-family="ArialMT" font-size="7.00" fill="#000000">0..1</text>
<text text-anchor="middle" x="150.2905" y="-205.5643" font-family="ArialMT" font-size="7.00" fill="#000000">0..1</text>
</g>
<!-- m_ScalingWorkload -->
<g id="node4" class="node">
<title>m_ScalingWorkload</title>
<path fill="none" stroke="#000000" d="M216.5,-360.5C216.5,-360.5 336.5,-360.5 336.5,-360.5 342.5,-360.5 348.5,-366.5 348.5,-372.5 348.5,-372.5 348.5,-416.5 348.5,-416.5 348.5,-422.5 342.5,-428.5 336.5,-428.5 336.5,-428.5 216.5,-428.5 216.5,-428.5 210.5,-428.5 204.5,-422.5 204.5,-416.5 204.5,-416.5 204.5,-372.5 204.5,-372.5 204.5,-366.5 210.5,-360.5 216.5,-360.5"/>
<text text-anchor="start" x="233.3279" y="-415.2" font-family="Arial BoldMT" font-size="11.00" fill="#000000">ScalingWorkload</text>
<polyline fill="none" stroke="#000000" points="204.5,-409.5 348.5,-409.5 "/>
<text text-anchor="start" x="211.5" y="-396" font-family="ArialMT" font-size="10.00" fill="#000000">ingredient_id </text>
<text text-anchor="start" x="271.5439" y="-396" font-family="Arial ItalicMT" font-size="10.00" fill="#999999">integer FK</text>
<text text-anchor="start" x="211.5" y="-383" font-family="ArialMT" font-size="10.00" fill="#000000">scale_ingredient </text>
<text text-anchor="start" x="287.1055" y="-383" font-family="Arial ItalicMT" font-size="10.00" fill="#999999">boolean</text>
<text text-anchor="start" x="211.5" y="-370" font-family="ArialMT" font-size="10.00" fill="#000000">user_id </text>
<text text-anchor="start" x="247.0762" y="-370" font-family="Arial ItalicMT" font-size="10.00" fill="#999999">integer FK</text>
</g>
<!-- m_Ingredient&#45;&gt;m_ScalingWorkload -->
<g id="edge9" class="edge">
<title>m_Ingredient&#45;&gt;m_ScalingWorkload</title>
<path fill="none" stroke="#000000" d="M144.1996,-324.9287C156.0778,-331.9559 168.3224,-339.0321 180,-345.5 188.958,-350.4616 198.4755,-355.5315 207.9082,-360.4386"/>
<text text-anchor="middle" x="198.784" y="-343.3472" font-family="ArialMT" font-size="7.00" fill="#000000">0..1</text>
<text text-anchor="middle" x="152.4978" y="-339.3265" font-family="ArialMT" font-size="7.00" fill="#000000">0..1</text>
</g>
<!-- m_TrafficWorkload -->
<g id="node5" class="node">
<title>m_TrafficWorkload</title>
<path fill="none" stroke="#000000" d="M216.5,-236.5C216.5,-236.5 336.5,-236.5 336.5,-236.5 342.5,-236.5 348.5,-242.5 348.5,-248.5 348.5,-248.5 348.5,-318.5 348.5,-318.5 348.5,-324.5 342.5,-330.5 336.5,-330.5 336.5,-330.5 216.5,-330.5 216.5,-330.5 210.5,-330.5 204.5,-324.5 204.5,-318.5 204.5,-318.5 204.5,-248.5 204.5,-248.5 204.5,-242.5 210.5,-236.5 216.5,-236.5"/>
<text text-anchor="start" x="236.29" y="-317.2" font-family="Arial BoldMT" font-size="11.00" fill="#000000">TrafficWorkload</text>
<polyline fill="none" stroke="#000000" points="204.5,-311.5 348.5,-311.5 "/>
<text text-anchor="start" x="211.5" y="-298" font-family="ArialMT" font-size="10.00" fill="#000000">ingredient_id </text>
<text text-anchor="start" x="271.5439" y="-298" font-family="Arial ItalicMT" font-size="10.00" fill="#999999">integer FK</text>
<text text-anchor="start" x="211.5" y="-285" font-family="ArialMT" font-size="10.00" fill="#000000">request_size_kb </text>
<text text-anchor="start" x="287.1006" y="-285" font-family="Arial ItalicMT" font-size="10.00" fill="#999999">integer</text>
<text text-anchor="start" x="211.5" y="-272" font-family="ArialMT" font-size="10.00" fill="#000000">requests_per_visit </text>
<text text-anchor="start" x="295.4307" y="-272" font-family="Arial ItalicMT" font-size="10.00" fill="#999999">integer</text>
<text text-anchor="start" x="211.5" y="-259" font-family="ArialMT" font-size="10.00" fill="#000000">user_id </text>
<text text-anchor="start" x="247.0762" y="-259" font-family="Arial ItalicMT" font-size="10.00" fill="#999999">integer FK</text>
<text text-anchor="start" x="211.5" y="-246" font-family="ArialMT" font-size="10.00" fill="#000000">visits_per_month </text>
<text text-anchor="start" x="289.8691" y="-246" font-family="Arial ItalicMT" font-size="10.00" fill="#999999">integer</text>
</g>
<!-- m_Ingredient&#45;&gt;m_TrafficWorkload -->
<g id="edge10" class="edge">
<title>m_Ingredient&#45;&gt;m_TrafficWorkload</title>
<path fill="none" stroke="#000000" d="M144.099,-281.5577C161.2044,-281.8086 179.546,-282.0777 196.9618,-282.3332"/>
<polygon fill="#000000" stroke="#000000" points="204.3627,-282.4418 197.3172,-285.4886 200.8631,-282.3904 197.3635,-282.339 197.3635,-282.339 197.3635,-282.339 200.8631,-282.3904 197.4097,-279.1893 204.3627,-282.4418 204.3627,-282.4418"/>
<text text-anchor="middle" x="189.2394" y="-271.416" font-family="ArialMT" font-size="7.00" fill="#000000">0..∗</text>
<text text-anchor="middle" x="159.2224" y="-289.7438" font-family="ArialMT" font-size="7.00" fill="#000000">0..1</text>
</g>
<!-- m_Workload -->
<g id="node6" class="node">
<title>m_Workload</title>
<path fill="none" stroke="#999999" d="M12,-147.5C12,-147.5 132,-147.5 132,-147.5 138,-147.5 144,-153.5 144,-159.5 144,-159.5 144,-171.5 144,-171.5 144,-177.5 138,-183.5 132,-183.5 132,-183.5 12,-183.5 12,-183.5 6,-183.5 0,-177.5 0,-171.5 0,-171.5 0,-159.5 0,-159.5 0,-153.5 6,-147.5 12,-147.5"/>
<text text-anchor="start" x="46.8667" y="-161.7" font-family="Arial BoldMT" font-size="11.00" fill="#999999">Workload</text>
</g>
<!-- m_Workload&#45;&gt;m_CpuWorkload -->
<g id="edge1" class="edge">
<title>m_Workload&#45;&gt;m_CpuWorkload</title>
<path fill="none" stroke="#999999" d="M156.1845,-165.5C172.1792,-165.5 188.783,-165.5 204.3627,-165.5"/>
<polygon fill="none" stroke="#999999" points="156.0991,-161.3001 144.099,-165.5 156.099,-169.7001 156.0991,-161.3001"/>
</g>
<!-- m_Workload&#45;&gt;m_RamWorkload -->
<g id="edge2" class="edge">
<title>m_Workload&#45;&gt;m_RamWorkload</title>
<path fill="none" stroke="#999999" d="M114.0808,-141.2186C137.4429,-127.7383 167.3096,-110.5047 195.0449,-94.501"/>
<polygon fill="none" stroke="#999999" points="111.7997,-137.6858 103.505,-147.3211 115.9979,-144.9615 111.7997,-137.6858"/>
</g>
<!-- m_Workload&#45;&gt;m_ScalingWorkload -->
<g id="edge3" class="edge">
<title>m_Workload&#45;&gt;m_ScalingWorkload</title>
<path fill="none" stroke="#999999" d="M136.0491,-190.5726C138.9434,-192.9885 141.6241,-195.6248 144,-198.5 186.8473,-250.3513 138.2004,-292.8005 180,-345.5 186.6555,-353.891 195.1313,-360.9746 204.2868,-366.9171"/>
<polygon fill="none" stroke="#999999" points="138.4089,-187.0973 126.19,-183.5848 133.5516,-193.9505 138.4089,-187.0973"/>
</g>
<!-- m_Workload&#45;&gt;m_TrafficWorkload -->
<g id="edge4" class="edge">
<title>m_Workload&#45;&gt;m_TrafficWorkload</title>
<path fill="none" stroke="#999999" d="M124.8779,-188.6972C131.3869,-191.8561 137.8932,-195.1632 144,-198.5 150.7153,-202.1692 176.9161,-218.8974 204.2671,-236.5557"/>
<polygon fill="none" stroke="#999999" points="126.6341,-184.8817 113.9911,-183.542 123.0391,-192.4736 126.6341,-184.8817"/>
</g>
</g>
</svg>
