<?xml version="1.0" encoding="UTF-8" standalone="no"?>
<!DOCTYPE svg PUBLIC "-//W3C//DTD SVG 1.1//EN"
 "http://www.w3.org/Graphics/SVG/1.1/DTD/svg11.dtd">
<!-- Generated by graphviz version 2.38.0 (20140413.2041)
 -->
<!-- Title: CloudStove Pages: 1 -->
<svg width="255pt" height="215pt"
 viewBox="0.00 0.00 254.97 214.60" xmlns="http://www.w3.org/2000/svg" xmlns:xlink="http://www.w3.org/1999/xlink">
<g id="graph0" class="graph" transform="scale(1 1) rotate(0) translate(28.8 185.8)">
<title>CloudStove</title>
<polygon fill="white" stroke="none" points="-28.8,28.8 -28.8,-185.8 226.165,-185.8 226.165,28.8 -28.8,28.8"/>
<text text-anchor="middle" x="98.6826" y="-142.6" font-family="Arial BoldMT" font-size="13.00">Deployment Recommendations</text>
<!-- m_DeploymentRecommendation -->
<g id="node1" class="node"><title>m_DeploymentRecommendation</title>
<path fill="none" stroke="black" d="M30.1826,-0.5C30.1826,-0.5 167.183,-0.5 167.183,-0.5 173.183,-0.5 179.183,-6.5 179.183,-12.5 179.183,-12.5 179.183,-108.5 179.183,-108.5 179.183,-114.5 173.183,-120.5 167.183,-120.5 167.183,-120.5 30.1826,-120.5 30.1826,-120.5 24.1826,-120.5 18.1826,-114.5 18.1826,-108.5 18.1826,-108.5 18.1826,-12.5 18.1826,-12.5 18.1826,-6.5 24.1826,-0.5 30.1826,-0.5"/>
<text text-anchor="start" x="26.2292" y="-107.2" font-family="Arial BoldMT" font-size="11.00">DeploymentRecommendation</text>
<polyline fill="none" stroke="black" points="18.1826,-101.5 179.183,-101.5 "/>
<text text-anchor="start" x="25.6826" y="-88" font-family="ArialMT" font-size="10.00">ingredient_id </text>
<text text-anchor="start" x="85.7266" y="-88" font-family="Arial ItalicMT" font-size="10.00" fill="#999999">integer FK</text>
<text text-anchor="start" x="25.6826" y="-75" font-family="ArialMT" font-size="10.00">ingredients_data </text>
<text text-anchor="start" x="102.406" y="-75" font-family="Arial ItalicMT" font-size="10.00" fill="#999999">text</text>
<text text-anchor="start" x="25.6826" y="-62" font-family="ArialMT" font-size="10.00">more_attributes </text>
<text text-anchor="start" x="97.9385" y="-62" font-family="Arial ItalicMT" font-size="10.00" fill="#999999">text</text>
<text text-anchor="start" x="25.5303" y="-49" font-family="ArialMT" font-size="10.00">num_simultaneous_users </text>
<text text-anchor="start" x="142.259" y="-49" font-family="Arial ItalicMT" font-size="10.00" fill="#999999">integer</text>
<text text-anchor="start" x="25.6826" y="-36" font-family="ArialMT" font-size="10.00">resources_data </text>
<text text-anchor="start" x="97.3916" y="-36" font-family="Arial ItalicMT" font-size="10.00" fill="#999999">text</text>
<text text-anchor="start" x="25.6826" y="-23" font-family="ArialMT" font-size="10.00">status </text>
<text text-anchor="start" x="55.1406" y="-23" font-family="Arial ItalicMT" font-size="10.00" fill="#999999">string</text>
<text text-anchor="start" x="25.6826" y="-10" font-family="ArialMT" font-size="10.00">user_id </text>
<text text-anchor="start" x="61.2588" y="-10" font-family="Arial ItalicMT" font-size="10.00" fill="#999999">integer FK</text>
</g>
</g>
</svg>
