<?xml version="1.0" encoding="UTF-8" standalone="no"?>
<!DOCTYPE svg PUBLIC "-//W3C//DTD SVG 1.1//EN"
 "http://www.w3.org/Graphics/SVG/1.1/DTD/svg11.dtd">
<!-- Generated by graphviz version 2.40.1 (20161225.0304)
 -->
<!-- Title: CloudStove Pages: 1 -->
<svg width="404pt" height="209pt"
 viewBox="0.00 0.00 403.60 208.60" xmlns="http://www.w3.org/2000/svg" xmlns:xlink="http://www.w3.org/1999/xlink">
<g id="graph0" class="graph" transform="scale(1 1) rotate(0) translate(28.8 179.8)">
<title>CloudStove</title>
<polygon fill="#ffffff" stroke="transparent" points="-28.8,28.8 -28.8,-179.8 374.8,-179.8 374.8,28.8 -28.8,28.8"/>
<text text-anchor="middle" x="173" y="-136.6" font-family="Arial BoldMT" font-size="13.00" fill="#000000">Ingredients</text>
<!-- m_Ingredient -->
<g id="node1" class="node">
<title>m_Ingredient</title>
<path fill="none" stroke="#000000" d="M12,-.5C12,-.5 276,-.5 276,-.5 282,-.5 288,-6.5 288,-12.5 288,-12.5 288,-102.5 288,-102.5 288,-108.5 282,-114.5 276,-114.5 276,-114.5 12,-114.5 12,-114.5 6,-114.5 0,-108.5 0,-102.5 0,-102.5 0,-12.5 0,-12.5 0,-6.5 6,-.5 12,-.5"/>
<text text-anchor="start" x="45.5374" y="-53.7" font-family="Arial BoldMT" font-size="11.00" fill="#000000">Ingredient</text>
<polyline fill="none" stroke="#000000" points="144,-.5 144,-114.5 "/>
<text text-anchor="start" x="151" y="-101.5" font-family="ArialMT" font-size="10.00" fill="#000000">body </text>
<text text-anchor="start" x="175.4629" y="-101.5" font-family="Arial ItalicMT" font-size="10.00" fill="#999999">text</text>
<text text-anchor="start" x="151" y="-88.5" font-family="ArialMT" font-size="10.00" fill="#000000">icon </text>
<text text-anchor="start" x="172.123" y="-88.5" font-family="Arial ItalicMT" font-size="10.00" fill="#999999">string</text>
<text text-anchor="start" x="151" y="-75.5" font-family="ArialMT" font-size="10.00" fill="#000000">is_template </text>
<text text-anchor="start" x="204.916" y="-75.5" font-family="Arial ItalicMT" font-size="10.00" fill="#999999">boolean</text>
<text text-anchor="start" x="151" y="-62.5" font-family="ArialMT" font-size="10.00" fill="#000000">more_attributes </text>
<text text-anchor="start" x="223.2559" y="-62.5" font-family="Arial ItalicMT" font-size="10.00" fill="#999999">text</text>
<text text-anchor="start" x="151" y="-49.5" font-family="ArialMT" font-size="10.00" fill="#000000">name </text>
<text text-anchor="start" x="178.793" y="-49.5" font-family="Arial ItalicMT" font-size="10.00" fill="#999999">string</text>
<text text-anchor="start" x="151" y="-36.5" font-family="ArialMT" font-size="10.00" fill="#000000">parent_id </text>
<text text-anchor="start" x="195.4775" y="-36.5" font-family="Arial ItalicMT" font-size="10.00" fill="#999999">integer FK</text>
<text text-anchor="start" x="151" y="-23.5" font-family="ArialMT" font-size="10.00" fill="#000000">template_id </text>
<text text-anchor="start" x="205.4775" y="-23.5" font-family="Arial ItalicMT" font-size="10.00" fill="#999999">integer FK</text>
<text text-anchor="start" x="151" y="-10.5" font-family="ArialMT" font-size="10.00" fill="#000000">user_id </text>
<text text-anchor="start" x="186.5762" y="-10.5" font-family="Arial ItalicMT" font-size="10.00" fill="#999999">integer FK</text>
</g>
<!-- m_Ingredient&#45;&gt;m_Ingredient -->
<g id="edge1" class="edge">
<title>m_Ingredient&#45;&gt;m_Ingredient</title>
<path fill="none" stroke="#000000" d="M288.1664,-66.7157C305.5958,-65.0529 317,-61.981 317,-57.5 317,-53.6492 308.5777,-50.839 295.147,-49.0694"/>
<polygon fill="#000000" stroke="#000000" points="288.1664,-48.2843 295.4747,-45.9365 291.6445,-48.6755 295.1225,-49.0667 295.1225,-49.0667 295.1225,-49.0667 291.6445,-48.6755 294.7704,-52.197 288.1664,-48.2843 288.1664,-48.2843"/>
<text text-anchor="middle" x="302.2695" y="-58.2048" font-family="ArialMT" font-size="7.00" fill="#000000">0..∗</text>
<text text-anchor="middle" x="304.3619" y="-72.9958" font-family="ArialMT" font-size="7.00" fill="#000000">0..1</text>
</g>
<!-- m_Ingredient&#45;&gt;m_Ingredient -->
<g id="edge2" class="edge">
<title>m_Ingredient&#45;&gt;m_Ingredient</title>
<path fill="none" stroke="#000000" d="M288.3513,-78.404C321.5863,-76.6028 346,-69.6348 346,-57.5 346,-46.2659 325.0757,-39.46 295.5991,-37.0824"/>
<polygon fill="#000000" stroke="#000000" points="288.3513,-36.596 295.5466,-33.9219 291.8434,-36.8304 295.3356,-37.0648 295.3356,-37.0648 295.3356,-37.0648 291.8434,-36.8304 295.1246,-40.2077 288.3513,-36.596 288.3513,-36.596"/>
<text text-anchor="middle" x="302.9432" y="-45.871" font-family="ArialMT" font-size="7.00" fill="#000000">0..∗</text>
<text text-anchor="middle" x="304.2597" y="-85.2502" font-family="ArialMT" font-size="7.00" fill="#000000">0..1</text>
</g>
</g>
</svg>
