<?xml version="1.0" encoding="UTF-8" standalone="no"?>
<!DOCTYPE svg PUBLIC "-//W3C//DTD SVG 1.1//EN"
 "http://www.w3.org/Graphics/SVG/1.1/DTD/svg11.dtd">
<!-- Generated by graphviz version 2.38.0 (20140413.2041)
 -->
<!-- Title: CloudStove Pages: 1 -->
<svg width="431pt" height="522pt"
 viewBox="0.00 0.00 430.60 522.10" xmlns="http://www.w3.org/2000/svg" xmlns:xlink="http://www.w3.org/1999/xlink">
<g id="graph0" class="graph" transform="scale(1 1) rotate(0) translate(28.8 493.3)">
<title>CloudStove</title>
<polygon fill="white" stroke="none" points="-28.8,28.8 -28.8,-493.3 401.8,-493.3 401.8,28.8 -28.8,28.8"/>
<text text-anchor="middle" x="186.5" y="-450.1" font-family="Arial BoldMT" font-size="13.00">Ingredients and Workloads</text>
<!-- m_CpuWorkload -->
<g id="node1" class="node"><title>m_CpuWorkload</title>
<path fill="none" stroke="black" d="M216.5,-347C216.5,-347 336.5,-347 336.5,-347 342.5,-347 348.5,-353 348.5,-359 348.5,-359 348.5,-416 348.5,-416 348.5,-422 342.5,-428 336.5,-428 336.5,-428 216.5,-428 216.5,-428 210.5,-428 204.5,-422 204.5,-416 204.5,-416 204.5,-359 204.5,-359 204.5,-353 210.5,-347 216.5,-347"/>
<text text-anchor="start" x="241.277" y="-414.7" font-family="Arial BoldMT" font-size="11.00">CpuWorkload</text>
<polyline fill="none" stroke="black" points="204.5,-409 348.5,-409 "/>
<text text-anchor="start" x="211.5" y="-396" font-family="ArialMT" font-size="10.00">cspu_user_capacity </text>
<text text-anchor="start" x="302.662" y="-396" font-family="Arial ItalicMT" font-size="10.00" fill="#999999">integer</text>
<text text-anchor="start" x="211.5" y="-383" font-family="ArialMT" font-size="10.00">ingredient_id </text>
<text text-anchor="start" x="271.544" y="-383" font-family="Arial ItalicMT" font-size="10.00" fill="#999999">integer FK</text>
<text text-anchor="start" x="211.5" y="-370" font-family="ArialMT" font-size="10.00">parallelism </text>
<text text-anchor="start" x="262.071" y="-370" font-family="Arial ItalicMT" font-size="10.00" fill="#999999">float</text>
<text text-anchor="start" x="211.5" y="-357" font-family="ArialMT" font-size="10.00">user_id </text>
<text text-anchor="start" x="247.076" y="-357" font-family="Arial ItalicMT" font-size="10.00" fill="#999999">integer FK</text>
</g>
<!-- m_Ingredient -->
<g id="node2" class="node"><title>m_Ingredient</title>
<path fill="none" stroke="black" d="M12,-209.5C12,-209.5 132,-209.5 132,-209.5 138,-209.5 144,-215.5 144,-221.5 144,-221.5 144,-317.5 144,-317.5 144,-323.5 138,-329.5 132,-329.5 132,-329.5 12,-329.5 12,-329.5 6,-329.5 0,-323.5 0,-317.5 0,-317.5 0,-221.5 0,-221.5 0,-215.5 6,-209.5 12,-209.5"/>
<text text-anchor="start" x="45.5374" y="-316.2" font-family="Arial BoldMT" font-size="11.00">Ingredient</text>
<polyline fill="none" stroke="black" points="0,-310.5 144,-310.5 "/>
<text text-anchor="start" x="7" y="-297" font-family="ArialMT" font-size="10.00">body </text>
<text text-anchor="start" x="31.4629" y="-297" font-family="Arial ItalicMT" font-size="10.00" fill="#999999">text</text>
<text text-anchor="start" x="7" y="-284" font-family="ArialMT" font-size="10.00">is_template </text>
<text text-anchor="start" x="60.916" y="-284" font-family="Arial ItalicMT" font-size="10.00" fill="#999999">boolean</text>
<text text-anchor="start" x="7" y="-271" font-family="ArialMT" font-size="10.00">more_attributes </text>
<text text-anchor="start" x="79.2559" y="-271" font-family="Arial ItalicMT" font-size="10.00" fill="#999999">text</text>
<text text-anchor="start" x="7" y="-258" font-family="ArialMT" font-size="10.00">name </text>
<text text-anchor="start" x="34.793" y="-258" font-family="Arial ItalicMT" font-size="10.00" fill="#999999">string</text>
<text text-anchor="start" x="7" y="-245" font-family="ArialMT" font-size="10.00">parent_id </text>
<text text-anchor="start" x="51.4775" y="-245" font-family="Arial ItalicMT" font-size="10.00" fill="#999999">integer FK</text>
<text text-anchor="start" x="7" y="-232" font-family="ArialMT" font-size="10.00">template_id </text>
<text text-anchor="start" x="61.4775" y="-232" font-family="Arial ItalicMT" font-size="10.00" fill="#999999">integer FK</text>
<text text-anchor="start" x="7" y="-219" font-family="ArialMT" font-size="10.00">user_id </text>
<text text-anchor="start" x="42.5762" y="-219" font-family="Arial ItalicMT" font-size="10.00" fill="#999999">integer FK</text>
</g>
<!-- m_Ingredient&#45;&gt;m_CpuWorkload -->
<g id="edge1" class="edge"><title>m_Ingredient&#45;&gt;m_CpuWorkload</title>
<path fill="none" stroke="black" d="M144.109,-310.936C164.166,-322.624 185.96,-335.324 205.926,-346.958"/>
<text text-anchor="middle" x="197.54" y="-329.456" font-family="ArialMT" font-size="7.00">0..1</text>
<text text-anchor="middle" x="152.496" y="-325.288" font-family="ArialMT" font-size="7.00">0..1</text>
</g>
<!-- m_Ingredient&#45;&gt;m_Ingredient -->
<g id="edge5" class="edge"><title>m_Ingredient&#45;&gt;m_Ingredient</title>
<path fill="none" stroke="black" d="M52.9917,-329.734C53.91,-346.323 60.2461,-359 72,-359 82.0092,-359 88.0896,-349.807 90.2412,-336.834"/>
<polygon fill="black" stroke="black" points="91.0083,-329.734 93.3881,-337.032 90.6323,-333.214 90.2563,-336.694 90.2563,-336.694 90.2563,-336.694 90.6323,-333.214 87.1245,-336.355 91.0083,-329.734 91.0083,-329.734"/>
<text text-anchor="middle" x="79.8853" y="-342.622" font-family="ArialMT" font-size="7.00">0..∗</text>
<text text-anchor="middle" x="44.8647" y="-344.22" font-family="ArialMT" font-size="7.00">0..1</text>
</g>
<!-- m_Ingredient&#45;&gt;m_Ingredient -->
<g id="edge6" class="edge"><title>m_Ingredient&#45;&gt;m_Ingredient</title>
<path fill="none" stroke="black" d="M35.0393,-329.557C29.4981,-360.332 41.8184,-388 72,-388 99.8237,-388 112.468,-364.487 109.932,-336.702"/>
<polygon fill="black" stroke="black" points="108.961,-329.557 113.025,-336.069 109.432,-333.026 109.904,-336.494 109.904,-336.494 109.904,-336.494 109.432,-333.026 106.783,-336.918 108.961,-329.557 108.961,-329.557"/>
<text text-anchor="middle" x="101.566" y="-344.704" font-family="ArialMT" font-size="7.00">0..∗</text>
<text text-anchor="middle" x="23.7004" y="-341.962" font-family="ArialMT" font-size="7.00">0..1</text>
</g>
<!-- m_RamWorkload -->
<g id="node3" class="node"><title>m_RamWorkload</title>
<path fill="none" stroke="black" d="M192,-222.5C192,-222.5 361,-222.5 361,-222.5 367,-222.5 373,-228.5 373,-234.5 373,-234.5 373,-304.5 373,-304.5 373,-310.5 367,-316.5 361,-316.5 361,-316.5 192,-316.5 192,-316.5 186,-316.5 180,-310.5 180,-304.5 180,-304.5 180,-234.5 180,-234.5 180,-228.5 186,-222.5 192,-222.5"/>
<text text-anchor="start" x="239.754" y="-303.2" font-family="Arial BoldMT" font-size="11.00">RamWorkload</text>
<polyline fill="none" stroke="black" points="180,-297.5 373,-297.5 "/>
<text text-anchor="start" x="187.5" y="-284" font-family="ArialMT" font-size="10.00">ingredient_id </text>
<text text-anchor="start" x="247.544" y="-284" font-family="Arial ItalicMT" font-size="10.00" fill="#999999">integer FK</text>
<text text-anchor="start" x="187.5" y="-271" font-family="ArialMT" font-size="10.00">ram_mb_growth_per_user </text>
<text text-anchor="start" x="307.559" y="-271" font-family="Arial ItalicMT" font-size="10.00" fill="#999999">float</text>
<text text-anchor="start" x="187.5" y="-258" font-family="ArialMT" font-size="10.00">ram_mb_required </text>
<text text-anchor="start" x="269.204" y="-258" font-family="Arial ItalicMT" font-size="10.00" fill="#999999">integer</text>
<text text-anchor="start" x="187.229" y="-245" font-family="ArialMT" font-size="10.00">ram_mb_required_user_capacity </text>
<text text-anchor="start" x="336.194" y="-245" font-family="Arial ItalicMT" font-size="10.00" fill="#999999">integer</text>
<text text-anchor="start" x="187.5" y="-232" font-family="ArialMT" font-size="10.00">user_id </text>
<text text-anchor="start" x="223.076" y="-232" font-family="Arial ItalicMT" font-size="10.00" fill="#999999">integer FK</text>
</g>
<!-- m_Ingredient&#45;&gt;m_RamWorkload -->
<g id="edge2" class="edge"><title>m_Ingredient&#45;&gt;m_RamWorkload</title>
<path fill="none" stroke="black" d="M144.109,-269.5C155.619,-269.5 167.701,-269.5 179.681,-269.5"/>
<text text-anchor="middle" x="164.417" y="-258.386" font-family="ArialMT" font-size="7.00">0..1</text>
<text text-anchor="middle" x="159.374" y="-277.463" font-family="ArialMT" font-size="7.00">0..1</text>
</g>
<!-- m_ScalingWorkload -->
<g id="node4" class="node"><title>m_ScalingWorkload</title>
<path fill="none" stroke="black" d="M216.5,-124.5C216.5,-124.5 336.5,-124.5 336.5,-124.5 342.5,-124.5 348.5,-130.5 348.5,-136.5 348.5,-136.5 348.5,-180.5 348.5,-180.5 348.5,-186.5 342.5,-192.5 336.5,-192.5 336.5,-192.5 216.5,-192.5 216.5,-192.5 210.5,-192.5 204.5,-186.5 204.5,-180.5 204.5,-180.5 204.5,-136.5 204.5,-136.5 204.5,-130.5 210.5,-124.5 216.5,-124.5"/>
<text text-anchor="start" x="233.328" y="-179.2" font-family="Arial BoldMT" font-size="11.00">ScalingWorkload</text>
<polyline fill="none" stroke="black" points="204.5,-173.5 348.5,-173.5 "/>
<text text-anchor="start" x="211.5" y="-160" font-family="ArialMT" font-size="10.00">ingredient_id </text>
<text text-anchor="start" x="271.544" y="-160" font-family="Arial ItalicMT" font-size="10.00" fill="#999999">integer FK</text>
<text text-anchor="start" x="211.5" y="-147" font-family="ArialMT" font-size="10.00">scale_ingredient </text>
<text text-anchor="start" x="287.105" y="-147" font-family="Arial ItalicMT" font-size="10.00" fill="#999999">boolean</text>
<text text-anchor="start" x="211.5" y="-134" font-family="ArialMT" font-size="10.00">user_id </text>
<text text-anchor="start" x="247.076" y="-134" font-family="Arial ItalicMT" font-size="10.00" fill="#999999">integer FK</text>
</g>
<!-- m_Ingredient&#45;&gt;m_ScalingWorkload -->
<g id="edge3" class="edge"><title>m_Ingredient&#45;&gt;m_ScalingWorkload</title>
<path fill="none" stroke="black" d="M144.082,-227.635C156.015,-220.802 168.316,-213.877 180,-207.5 188.996,-202.59 198.535,-197.528 207.968,-192.606"/>
<text text-anchor="middle" x="190.021" y="-189.648" font-family="ArialMT" font-size="7.00">0..1</text>
<text text-anchor="middle" x="162.068" y="-226.766" font-family="ArialMT" font-size="7.00">0..1</text>
</g>
<!-- m_TrafficWorkload -->
<g id="node5" class="node"><title>m_TrafficWorkload</title>
<path fill="none" stroke="black" d="M216.5,-0.5C216.5,-0.5 336.5,-0.5 336.5,-0.5 342.5,-0.5 348.5,-6.5 348.5,-12.5 348.5,-12.5 348.5,-82.5 348.5,-82.5 348.5,-88.5 342.5,-94.5 336.5,-94.5 336.5,-94.5 216.5,-94.5 216.5,-94.5 210.5,-94.5 204.5,-88.5 204.5,-82.5 204.5,-82.5 204.5,-12.5 204.5,-12.5 204.5,-6.5 210.5,-0.5 216.5,-0.5"/>
<text text-anchor="start" x="236.29" y="-81.2" font-family="Arial BoldMT" font-size="11.00">TrafficWorkload</text>
<polyline fill="none" stroke="black" points="204.5,-75.5 348.5,-75.5 "/>
<text text-anchor="start" x="211.5" y="-62" font-family="ArialMT" font-size="10.00">ingredient_id </text>
<text text-anchor="start" x="271.544" y="-62" font-family="Arial ItalicMT" font-size="10.00" fill="#999999">integer FK</text>
<text text-anchor="start" x="211.5" y="-49" font-family="ArialMT" font-size="10.00">request_size_kb </text>
<text text-anchor="start" x="287.101" y="-49" font-family="Arial ItalicMT" font-size="10.00" fill="#999999">integer</text>
<text text-anchor="start" x="211.5" y="-36" font-family="ArialMT" font-size="10.00">requests_per_visit </text>
<text text-anchor="start" x="295.431" y="-36" font-family="Arial ItalicMT" font-size="10.00" fill="#999999">integer</text>
<text text-anchor="start" x="211.5" y="-23" font-family="ArialMT" font-size="10.00">user_id </text>
<text text-anchor="start" x="247.076" y="-23" font-family="Arial ItalicMT" font-size="10.00" fill="#999999">integer FK</text>
<text text-anchor="start" x="211.5" y="-10" font-family="ArialMT" font-size="10.00">visits_per_month </text>
<text text-anchor="start" x="289.869" y="-10" font-family="Arial ItalicMT" font-size="10.00" fill="#999999">integer</text>
</g>
<!-- m_Ingredient&#45;&gt;m_TrafficWorkload -->
<g id="edge4" class="edge"><title>m_Ingredient&#45;&gt;m_TrafficWorkload</title>
<path fill="none" stroke="black" d="M105.249,-209.347C124.265,-177.359 150.382,-138.717 180,-109.5 185.603,-103.973 191.772,-98.6658 198.197,-93.6434"/>
<polygon fill="black" stroke="black" points="204.161,-89.113 200.492,-95.8559 201.374,-91.2303 198.587,-93.3476 198.587,-93.3476 198.587,-93.3476 201.374,-91.2303 196.681,-90.8394 204.161,-89.113 204.161,-89.113"/>
<text text-anchor="middle" x="186.235" y="-89.4878" font-family="ArialMT" font-size="7.00">0..∗</text>
<text text-anchor="middle" x="121.31" y="-199.646" font-family="ArialMT" font-size="7.00">0..1</text>
</g>
</g>
</svg>
