<?xml version="1.0" encoding="UTF-8" standalone="no"?>
<!DOCTYPE svg PUBLIC "-//W3C//DTD SVG 1.1//EN"
 "http://www.w3.org/Graphics/SVG/1.1/DTD/svg11.dtd">
<!-- Generated by graphviz version 2.40.1 (20161225.0304)
 -->
<!-- Title: CloudStove Pages: 1 -->
<svg width="777pt" height="767pt"
 viewBox="0.00 0.00 777.32 766.60" xmlns="http://www.w3.org/2000/svg" xmlns:xlink="http://www.w3.org/1999/xlink">
<g id="graph0" class="graph" transform="scale(1 1) rotate(0) translate(28.8 737.8)">
<title>CloudStove</title>
<polygon fill="#ffffff" stroke="transparent" points="-28.8,28.8 -28.8,-737.8 748.5234,-737.8 748.5234,28.8 -28.8,28.8"/>
<text text-anchor="middle" x="359.8617" y="-694.6" font-family="Arial BoldMT" font-size="13.00" fill="#000000">CloudStove domain model</text>
<!-- m_Base -->
<g id="node1" class="node">
<title>m_Base</title>
<path fill="none" stroke="#999999" d="M12,-253.5C12,-253.5 132,-253.5 132,-253.5 138,-253.5 144,-259.5 144,-265.5 144,-265.5 144,-277.5 144,-277.5 144,-283.5 138,-289.5 132,-289.5 132,-289.5 12,-289.5 12,-289.5 6,-289.5 0,-283.5 0,-277.5 0,-277.5 0,-265.5 0,-265.5 0,-259.5 6,-253.5 12,-253.5"/>
<text text-anchor="start" x="57.4639" y="-267.7" font-family="Arial BoldMT" font-size="11.00" fill="#999999">Base</text>
</g>
<!-- m_Constraint -->
<g id="node2" class="node">
<title>m_Constraint</title>
<path fill="none" stroke="#000000" d="M377,-510.5C377,-510.5 497,-510.5 497,-510.5 503,-510.5 509,-516.5 509,-522.5 509,-522.5 509,-534.5 509,-534.5 509,-540.5 503,-546.5 497,-546.5 497,-546.5 377,-546.5 377,-546.5 371,-546.5 365,-540.5 365,-534.5 365,-534.5 365,-522.5 365,-522.5 365,-516.5 371,-510.5 377,-510.5"/>
<text text-anchor="start" x="409.9331" y="-524.7" font-family="Arial BoldMT" font-size="11.00" fill="#000000">Constraint</text>
</g>
<!-- m_Base&#45;&gt;m_Constraint -->
<g id="edge1" class="edge">
<title>m_Base&#45;&gt;m_Constraint</title>
<path fill="none" stroke="#999999" d="M252,-607.5C265.9344,-615.0466 353.1021,-572.1823 402.6564,-546.5948"/>
<path fill="none" stroke="#999999" d="M76.9715,-301.6168C90.369,-371.5598 134.4948,-543.8612 252,-607.5"/>
<polygon fill="none" stroke="#999999" points="81.1009,-300.8495 74.8167,-289.7974 72.8372,-302.3561 81.1009,-300.8495"/>
</g>
<!-- m_DeploymentRecommendation -->
<g id="node6" class="node">
<title>m_DeploymentRecommendation</title>
<path fill="none" stroke="#000000" d="M372,-636.5C372,-636.5 502,-636.5 502,-636.5 508,-636.5 514,-642.5 514,-648.5 514,-648.5 514,-660.5 514,-660.5 514,-666.5 508,-672.5 502,-672.5 502,-672.5 372,-672.5 372,-672.5 366,-672.5 360,-666.5 360,-660.5 360,-660.5 360,-648.5 360,-648.5 360,-642.5 366,-636.5 372,-636.5"/>
<text text-anchor="start" x="364.5466" y="-650.7" font-family="Arial BoldMT" font-size="11.00" fill="#000000">DeploymentRecommendation</text>
</g>
<!-- m_Base&#45;&gt;m_DeploymentRecommendation -->
<g id="edge2" class="edge">
<title>m_Base&#45;&gt;m_DeploymentRecommendation</title>
<path fill="none" stroke="#999999" d="M252,-607.5C285.0731,-625.4118 325.1847,-636.6796 359.5925,-643.6738"/>
</g>
<!-- m_Ingredient -->
<g id="node7" class="node">
<title>m_Ingredient</title>
<path fill="none" stroke="#000000" d="M192,-444.5C192,-444.5 312,-444.5 312,-444.5 318,-444.5 324,-450.5 324,-456.5 324,-456.5 324,-468.5 324,-468.5 324,-474.5 318,-480.5 312,-480.5 312,-480.5 192,-480.5 192,-480.5 186,-480.5 180,-474.5 180,-468.5 180,-468.5 180,-456.5 180,-456.5 180,-450.5 186,-444.5 192,-444.5"/>
<text text-anchor="start" x="225.5374" y="-458.7" font-family="Arial BoldMT" font-size="11.00" fill="#000000">Ingredient</text>
</g>
<!-- m_Base&#45;&gt;m_Ingredient -->
<g id="edge3" class="edge">
<title>m_Base&#45;&gt;m_Ingredient</title>
<path fill="none" stroke="#999999" d="M97.5851,-298.6486C134.8259,-338.1653 202.981,-410.4854 234.7931,-444.2416"/>
<polygon fill="none" stroke="#999999" points="100.5458,-295.6664 89.2592,-289.8139 94.4327,-301.4275 100.5458,-295.6664"/>
</g>
<!-- m_Provider -->
<g id="node9" class="node">
<title>m_Provider</title>
<path fill="none" stroke="#000000" d="M192,-63.5C192,-63.5 312,-63.5 312,-63.5 318,-63.5 324,-69.5 324,-75.5 324,-75.5 324,-87.5 324,-87.5 324,-93.5 318,-99.5 312,-99.5 312,-99.5 192,-99.5 192,-99.5 186,-99.5 180,-93.5 180,-87.5 180,-87.5 180,-75.5 180,-75.5 180,-69.5 186,-63.5 192,-63.5"/>
<text text-anchor="start" x="229.52" y="-77.7" font-family="Arial BoldMT" font-size="11.00" fill="#000000">Provider</text>
</g>
<!-- m_Base&#45;&gt;m_Provider -->
<g id="edge4" class="edge">
<title>m_Base&#45;&gt;m_Provider</title>
<path fill="none" stroke="#999999" d="M97.5851,-244.4935C134.8259,-205.1838 202.981,-133.2423 234.7931,-99.6628"/>
<polygon fill="none" stroke="#999999" points="94.4631,-241.682 89.2592,-253.282 100.5611,-247.4591 94.4631,-241.682"/>
</g>
<!-- m_Resource -->
<g id="node13" class="node">
<title>m_Resource</title>
<path fill="none" stroke="#000000" d="M377,-.5C377,-.5 497,-.5 497,-.5 503,-.5 509,-6.5 509,-12.5 509,-12.5 509,-24.5 509,-24.5 509,-30.5 503,-36.5 497,-36.5 497,-36.5 377,-36.5 377,-36.5 371,-36.5 365,-30.5 365,-24.5 365,-24.5 365,-12.5 365,-12.5 365,-6.5 371,-.5 377,-.5"/>
<text text-anchor="start" x="411.4612" y="-14.7" font-family="Arial BoldMT" font-size="11.00" fill="#000000">Resource</text>
</g>
<!-- m_Base&#45;&gt;m_Resource -->
<g id="edge5" class="edge">
<title>m_Base&#45;&gt;m_Resource</title>
<path fill="none" stroke="#999999" d="M77.1248,-241.2734C87.222,-191.9342 114.6658,-94.9452 180,-48.5 233.3627,-10.5652 309.2677,-6.1014 364.7495,-9.2924"/>
<polygon fill="none" stroke="#999999" points="72.9559,-240.7124 74.8187,-253.2889 81.2053,-242.2957 72.9559,-240.7124"/>
</g>
<!-- m_CpuConstraint -->
<g id="node3" class="node">
<title>m_CpuConstraint</title>
<path fill="none" stroke="#999999" d="M572,-153.5C572,-153.5 692,-153.5 692,-153.5 698,-153.5 704,-159.5 704,-165.5 704,-165.5 704,-177.5 704,-177.5 704,-183.5 698,-189.5 692,-189.5 692,-189.5 572,-189.5 572,-189.5 566,-189.5 560,-183.5 560,-177.5 560,-177.5 560,-165.5 560,-165.5 560,-159.5 566,-153.5 572,-153.5"/>
<text text-anchor="start" x="594.8435" y="-167.7" font-family="Arial BoldMT" font-size="11.00" fill="#999999">CpuConstraint</text>
</g>
<!-- m_Constraint&#45;&gt;m_CpuConstraint -->
<g id="edge6" class="edge">
<title>m_Constraint&#45;&gt;m_CpuConstraint</title>
<path fill="none" stroke="#999999" d="M506.692,-503.2119C509.3624,-500.8621 511.8229,-498.2979 514,-495.5 577.0004,-414.5346 507.0702,-360.6744 550,-267.5 564.3089,-236.4441 591.6285,-207.5892 610.7886,-189.785"/>
<polygon fill="none" stroke="#999999" points="504.0923,-499.9103 496.9119,-510.4023 509.068,-506.678 504.0923,-499.9103"/>
</g>
<!-- m_DependencyConstraint -->
<g id="node5" class="node">
<title>m_DependencyConstraint</title>
<path fill="none" stroke="#999999" d="M572,-573.5C572,-573.5 692,-573.5 692,-573.5 698,-573.5 704,-579.5 704,-585.5 704,-585.5 704,-597.5 704,-597.5 704,-603.5 698,-609.5 692,-609.5 692,-609.5 572,-609.5 572,-609.5 566,-609.5 560,-603.5 560,-597.5 560,-597.5 560,-585.5 560,-585.5 560,-579.5 566,-573.5 572,-573.5"/>
<text text-anchor="start" x="574.0493" y="-587.7" font-family="Arial BoldMT" font-size="11.00" fill="#999999">DependencyConstraint</text>
</g>
<!-- m_Constraint&#45;&gt;m_DependencyConstraint -->
<g id="edge7" class="edge">
<title>m_Constraint&#45;&gt;m_DependencyConstraint</title>
<path fill="none" stroke="#999999" d="M504.4779,-550.3006C527.8513,-557.852 553.7755,-566.2275 576.1127,-573.4441"/>
<polygon fill="none" stroke="#999999" points="505.5893,-546.2459 492.8792,-546.5533 503.0068,-554.2391 505.5893,-546.2459"/>
</g>
<!-- m_PreferredRegionAreaConstraint -->
<g id="node8" class="node">
<title>m_PreferredRegionAreaConstraint</title>
<path fill="none" stroke="#999999" d="M562,-375.5C562,-375.5 702,-375.5 702,-375.5 708,-375.5 714,-381.5 714,-387.5 714,-387.5 714,-399.5 714,-399.5 714,-405.5 708,-411.5 702,-411.5 702,-411.5 562,-411.5 562,-411.5 556,-411.5 550,-405.5 550,-399.5 550,-399.5 550,-387.5 550,-387.5 550,-381.5 556,-375.5 562,-375.5"/>
<text text-anchor="start" x="554.9597" y="-389.7" font-family="Arial BoldMT" font-size="11.00" fill="#999999">PreferredRegionAreaConstraint</text>
</g>
<!-- m_Constraint&#45;&gt;m_PreferredRegionAreaConstraint -->
<g id="edge8" class="edge">
<title>m_Constraint&#45;&gt;m_PreferredRegionAreaConstraint</title>
<path fill="none" stroke="#999999" d="M503.095,-504.0219C506.9773,-501.4332 510.6564,-498.5987 514,-495.5 539.3701,-471.9882 524.3695,-449.7276 550,-426.5 556.4814,-420.6262 564.1418,-415.7321 572.1348,-411.6725"/>
<polygon fill="none" stroke="#999999" points="500.6347,-500.597 492.4343,-510.3127 504.9036,-507.8314 500.6347,-500.597"/>
</g>
<!-- m_ProviderConstraint -->
<g id="node10" class="node">
<title>m_ProviderConstraint</title>
<path fill="none" stroke="#999999" d="M572,-507.5C572,-507.5 692,-507.5 692,-507.5 698,-507.5 704,-513.5 704,-519.5 704,-519.5 704,-531.5 704,-531.5 704,-537.5 698,-543.5 692,-543.5 692,-543.5 572,-543.5 572,-543.5 566,-543.5 560,-537.5 560,-531.5 560,-531.5 560,-519.5 560,-519.5 560,-513.5 566,-507.5 572,-507.5"/>
<text text-anchor="start" x="584.4531" y="-521.7" font-family="Arial BoldMT" font-size="11.00" fill="#999999">ProviderConstraint</text>
</g>
<!-- m_Constraint&#45;&gt;m_ProviderConstraint -->
<g id="edge9" class="edge">
<title>m_Constraint&#45;&gt;m_ProviderConstraint</title>
<path fill="none" stroke="#999999" d="M521.2734,-527.2035C534.1469,-527.0054 547.3339,-526.8026 559.914,-526.609"/>
<polygon fill="none" stroke="#999999" points="520.9907,-523.0072 509.0568,-527.3914 521.12,-531.4062 520.9907,-523.0072"/>
</g>
<!-- m_RamConstraint -->
<g id="node11" class="node">
<title>m_RamConstraint</title>
<path fill="none" stroke="#999999" d="M572,-441.5C572,-441.5 692,-441.5 692,-441.5 698,-441.5 704,-447.5 704,-453.5 704,-453.5 704,-465.5 704,-465.5 704,-471.5 698,-477.5 692,-477.5 692,-477.5 572,-477.5 572,-477.5 566,-477.5 560,-471.5 560,-465.5 560,-465.5 560,-453.5 560,-453.5 560,-447.5 566,-441.5 572,-441.5"/>
<text text-anchor="start" x="593.3208" y="-455.7" font-family="Arial BoldMT" font-size="11.00" fill="#999999">RamConstraint</text>
</g>
<!-- m_Constraint&#45;&gt;m_RamConstraint -->
<g id="edge10" class="edge">
<title>m_Constraint&#45;&gt;m_RamConstraint</title>
<path fill="none" stroke="#999999" d="M499.3829,-506.4261C525.7215,-497.1063 556.0063,-486.3901 580.98,-477.5532"/>
<polygon fill="none" stroke="#999999" points="497.8909,-502.4987 487.9792,-510.4612 500.693,-510.4176 497.8909,-502.4987"/>
</g>
<!-- m_ScalingConstraint -->
<g id="node14" class="node">
<title>m_ScalingConstraint</title>
<path fill="none" stroke="#999999" d="M572,-282.5C572,-282.5 692,-282.5 692,-282.5 698,-282.5 704,-288.5 704,-294.5 704,-294.5 704,-306.5 704,-306.5 704,-312.5 698,-318.5 692,-318.5 692,-318.5 572,-318.5 572,-318.5 566,-318.5 560,-312.5 560,-306.5 560,-306.5 560,-294.5 560,-294.5 560,-288.5 566,-282.5 572,-282.5"/>
<text text-anchor="start" x="586.8943" y="-296.7" font-family="Arial BoldMT" font-size="11.00" fill="#999999">ScalingConstraint</text>
</g>
<!-- m_Constraint&#45;&gt;m_ScalingConstraint -->
<g id="edge11" class="edge">
<title>m_Constraint&#45;&gt;m_ScalingConstraint</title>
<path fill="none" stroke="#999999" d="M505.7335,-503.4201C508.7267,-501.0103 511.5109,-498.3769 514,-495.5 554.6297,-448.5402 514.945,-411.7557 550,-360.5 561.9499,-343.0274 580.7143,-328.7518 597.279,-318.5152"/>
<polygon fill="none" stroke="#999999" points="503.0978,-500.1346 495.5688,-510.3793 507.8432,-507.0658 503.0978,-500.1346"/>
</g>
<!-- m_CpuWorkload -->
<g id="node4" class="node">
<title>m_CpuWorkload</title>
<path fill="none" stroke="#000000" d="M377,-444.5C377,-444.5 497,-444.5 497,-444.5 503,-444.5 509,-450.5 509,-456.5 509,-456.5 509,-468.5 509,-468.5 509,-474.5 503,-480.5 497,-480.5 497,-480.5 377,-480.5 377,-480.5 371,-480.5 365,-474.5 365,-468.5 365,-468.5 365,-456.5 365,-456.5 365,-450.5 371,-444.5 377,-444.5"/>
<text text-anchor="start" x="401.7771" y="-458.7" font-family="Arial BoldMT" font-size="11.00" fill="#000000">CpuWorkload</text>
</g>
<!-- m_Ingredient&#45;&gt;m_Constraint -->
<g id="edge16" class="edge">
<title>m_Ingredient&#45;&gt;m_Constraint</title>
<path fill="none" stroke="#000000" d="M302.5521,-480.5348C326.4125,-489.0472 354.9974,-499.245 379.6632,-508.0447"/>
<polygon fill="#000000" stroke="#000000" points="386.5091,-510.487 378.8576,-511.1017 383.2126,-509.3109 379.9161,-508.1349 379.9161,-508.1349 379.9161,-508.1349 383.2126,-509.3109 380.9745,-505.168 386.5091,-510.487 386.5091,-510.487"/>
<text text-anchor="middle" x="375.3368" y="-495.1096" font-family="ArialMT" font-size="7.00" fill="#000000">0..∗</text>
<text text-anchor="middle" x="313.7243" y="-493.0726" font-family="ArialMT" font-size="7.00" fill="#000000">0..1</text>
</g>
<!-- m_Ingredient&#45;&gt;m_CpuConstraint -->
<g id="edge24" class="edge">
<title>m_Ingredient&#45;&gt;m_CpuConstraint</title>
<path fill="none" stroke="#000000" d="M254.7373,-444.3236C265.0872,-378.2878 304.0989,-152.7871 360,-111.5 435.8516,-55.4779 553.9666,-119.6149 605.9491,-153.361"/>
<text text-anchor="middle" x="598.0373" y="-135.6177" font-family="ArialMT" font-size="7.00" fill="#000000">0..1</text>
<text text-anchor="middle" x="266.6075" y="-429.2168" font-family="ArialMT" font-size="7.00" fill="#000000">0..1</text>
</g>
<!-- m_Ingredient&#45;&gt;m_CpuWorkload -->
<g id="edge12" class="edge">
<title>m_Ingredient&#45;&gt;m_CpuWorkload</title>
<path fill="none" stroke="#000000" d="M324.0556,-462.5C337.4476,-462.5 351.4415,-462.5 364.8368,-462.5"/>
<text text-anchor="middle" x="349.5719" y="-451.3861" font-family="ArialMT" font-size="7.00" fill="#000000">0..1</text>
<text text-anchor="middle" x="339.3204" y="-470.4632" font-family="ArialMT" font-size="7.00" fill="#000000">0..1</text>
</g>
<!-- m_Ingredient&#45;&gt;m_DependencyConstraint -->
<g id="edge20" class="edge">
<title>m_Ingredient&#45;&gt;m_DependencyConstraint</title>
<path fill="none" stroke="#000000" d="M437,-591.5C474.4724,-599.9045 517.0241,-600.8607 552.7959,-599.3192"/>
<polygon fill="#000000" stroke="#000000" points="559.8563,-598.9791 553.016,-602.4624 556.3604,-599.1476 552.8644,-599.316 552.8644,-599.316 552.8644,-599.316 556.3604,-599.1476 552.7128,-596.1697 559.8563,-598.9791 559.8563,-598.9791"/>
<text text-anchor="middle" x="544.1502" y="-588.9218" font-family="ArialMT" font-size="7.00" fill="#000000">0..∗</text>
<text text-anchor="middle" x="450.0702" y="-602.3008" font-family="ArialMT" font-size="7.00" fill="#000000">0..1</text>
</g>
<!-- m_Ingredient&#45;&gt;m_DeploymentRecommendation -->
<g id="edge17" class="edge">
<title>m_Ingredient&#45;&gt;m_DeploymentRecommendation</title>
<path fill="none" stroke="#000000" d="M261.4294,-480.8383C277.9383,-511.5152 314.6721,-573.7763 360,-613.5 368.4892,-620.9396 378.5619,-627.5225 388.5766,-633.117"/>
<polygon fill="#000000" stroke="#000000" points="394.79,-636.4714 387.1338,-635.9178 391.7102,-634.8087 388.6303,-633.1459 388.6303,-633.1459 388.6303,-633.1459 391.7102,-634.8087 390.1268,-630.3741 394.79,-636.4714 394.79,-636.4714"/>
<text text-anchor="middle" x="385.889" y="-619.5619" font-family="ArialMT" font-size="7.00" fill="#000000">0..∗</text>
<text text-anchor="middle" x="260.4208" y="-497.2347" font-family="ArialMT" font-size="7.00" fill="#000000">0..1</text>
</g>
<!-- m_Ingredient&#45;&gt;m_Ingredient -->
<g id="edge18" class="edge">
<title>m_Ingredient&#45;&gt;m_Ingredient</title>
<path fill="none" stroke="#000000" d="M237.498,-480.5328C231.6973,-495.0326 236.5313,-510 252,-510 265.0518,-510 270.5325,-499.3445 268.4422,-487.305"/>
<polygon fill="#000000" stroke="#000000" points="266.502,-480.5328 271.4581,-486.3945 267.466,-483.8975 268.43,-487.2621 268.43,-487.2621 268.43,-487.2621 267.466,-483.8975 265.4018,-488.1297 266.502,-480.5328 266.502,-480.5328"/>
<text text-anchor="middle" x="261.5365" y="-496.5701" font-family="ArialMT" font-size="7.00" fill="#000000">0..∗</text>
<text text-anchor="middle" x="223.6894" y="-490.5039" font-family="ArialMT" font-size="7.00" fill="#000000">0..1</text>
</g>
<!-- m_Ingredient&#45;&gt;m_Ingredient -->
<g id="edge19" class="edge">
<title>m_Ingredient&#45;&gt;m_Ingredient</title>
<path fill="none" stroke="#000000" d="M230.1482,-480.5543C208.8567,-506.6145 216.1406,-539 252,-539 285.1979,-539 293.9047,-511.2433 278.1203,-486.4455"/>
<polygon fill="#000000" stroke="#000000" points="273.8518,-480.5543 280.5098,-484.3746 275.9054,-483.3885 277.959,-486.2228 277.959,-486.2228 277.959,-486.2228 275.9054,-483.3885 275.4081,-488.071 273.8518,-480.5543 273.8518,-480.5543"/>
<text text-anchor="middle" x="275.084" y="-497.2478" font-family="ArialMT" font-size="7.00" fill="#000000">0..∗</text>
<text text-anchor="middle" x="213.6089" y="-486.0818" font-family="ArialMT" font-size="7.00" fill="#000000">0..1</text>
</g>
<!-- m_Ingredient&#45;&gt;m_PreferredRegionAreaConstraint -->
<g id="edge25" class="edge">
<title>m_Ingredient&#45;&gt;m_PreferredRegionAreaConstraint</title>
<path fill="none" stroke="#000000" d="M288.4232,-444.4311C324.9383,-427.6936 383.2973,-404.6344 437,-399.5"/>
<path fill="none" stroke="#000000" d="M437,-399.5C473.9195,-395.9702 514.9321,-394.3623 549.7816,-393.678"/>
<text text-anchor="middle" x="534.3105" y="-382.9024" font-family="ArialMT" font-size="7.00" fill="#000000">0..1</text>
<text text-anchor="middle" x="306.2533" y="-445.3231" font-family="ArialMT" font-size="7.00" fill="#000000">0..1</text>
</g>
<!-- m_Ingredient&#45;&gt;m_ProviderConstraint -->
<g id="edge26" class="edge">
<title>m_Ingredient&#45;&gt;m_ProviderConstraint</title>
<path fill="none" stroke="#000000" d="M437,-591.5C451.9088,-594.8438 533.9059,-564.2725 586.7135,-543.6026"/>
<path fill="none" stroke="#000000" d="M267.9469,-480.7753C287.7093,-502.4914 323.2893,-538.651 360,-561.5 391.1815,-580.9076 401.1624,-583.4622 437,-591.5"/>
<text text-anchor="middle" x="424.2182" y="-577.2508" font-family="ArialMT" font-size="7.00" fill="#000000">0..1</text>
<text text-anchor="middle" x="452.2207" y="-599.5336" font-family="ArialMT" font-size="7.00" fill="#000000">0..1</text>
</g>
<!-- m_Ingredient&#45;&gt;m_RamConstraint -->
<g id="edge23" class="edge">
<title>m_Ingredient&#45;&gt;m_RamConstraint</title>
<path fill="none" stroke="#000000" d="M437,-399.5C466.2656,-396.702 539.5692,-422.7609 587.4938,-441.4294"/>
<text text-anchor="middle" x="576.6623" y="-425.4777" font-family="ArialMT" font-size="7.00" fill="#000000">0..1</text>
<text text-anchor="middle" x="452.2743" y="-407.4481" font-family="ArialMT" font-size="7.00" fill="#000000">0..1</text>
</g>
<!-- m_RamWorkload -->
<g id="node12" class="node">
<title>m_RamWorkload</title>
<path fill="none" stroke="#000000" d="M377,-318.5C377,-318.5 497,-318.5 497,-318.5 503,-318.5 509,-324.5 509,-330.5 509,-330.5 509,-342.5 509,-342.5 509,-348.5 503,-354.5 497,-354.5 497,-354.5 377,-354.5 377,-354.5 371,-354.5 365,-348.5 365,-342.5 365,-342.5 365,-330.5 365,-330.5 365,-324.5 371,-318.5 377,-318.5"/>
<text text-anchor="start" x="400.2544" y="-332.7" font-family="Arial BoldMT" font-size="11.00" fill="#000000">RamWorkload</text>
</g>
<!-- m_Ingredient&#45;&gt;m_RamWorkload -->
<g id="edge13" class="edge">
<title>m_Ingredient&#45;&gt;m_RamWorkload</title>
<path fill="none" stroke="#000000" d="M272.6825,-444.4054C293.8315,-426.3475 328.0253,-398.3591 360,-377.5 372.5577,-369.3078 386.9182,-361.3202 399.8092,-354.604"/>
<text text-anchor="middle" x="381.8599" y="-351.6795" font-family="ArialMT" font-size="7.00" fill="#000000">0..1</text>
<text text-anchor="middle" x="290.4943" y="-440.2338" font-family="ArialMT" font-size="7.00" fill="#000000">0..1</text>
</g>
<!-- m_Ingredient&#45;&gt;m_ScalingConstraint -->
<g id="edge27" class="edge">
<title>m_Ingredient&#45;&gt;m_ScalingConstraint</title>
<path fill="none" stroke="#000000" d="M257.8985,-444.4261C270.3484,-409.6394 302.9587,-334.1146 360,-303.5 421.3758,-270.559 502.3225,-274.5814 559.9126,-283.9083"/>
<text text-anchor="middle" x="546.1787" y="-270.6976" font-family="ArialMT" font-size="7.00" fill="#000000">0..1</text>
<text text-anchor="middle" x="272.1932" y="-431.9117" font-family="ArialMT" font-size="7.00" fill="#000000">0..1</text>
</g>
<!-- m_ScalingWorkload -->
<g id="node15" class="node">
<title>m_ScalingWorkload</title>
<path fill="none" stroke="#000000" d="M377,-192.5C377,-192.5 497,-192.5 497,-192.5 503,-192.5 509,-198.5 509,-204.5 509,-204.5 509,-216.5 509,-216.5 509,-222.5 503,-228.5 497,-228.5 497,-228.5 377,-228.5 377,-228.5 371,-228.5 365,-222.5 365,-216.5 365,-216.5 365,-204.5 365,-204.5 365,-198.5 371,-192.5 377,-192.5"/>
<text text-anchor="start" x="393.8279" y="-206.7" font-family="Arial BoldMT" font-size="11.00" fill="#000000">ScalingWorkload</text>
</g>
<!-- m_Ingredient&#45;&gt;m_ScalingWorkload -->
<g id="edge14" class="edge">
<title>m_Ingredient&#45;&gt;m_ScalingWorkload</title>
<path fill="none" stroke="#000000" d="M257.1361,-444.4584C269.1629,-404.994 302.5647,-309.8735 360,-251.5 369.0287,-242.3238 380.5507,-234.7211 391.9148,-228.6587"/>
<text text-anchor="middle" x="373.9453" y="-226.0363" font-family="ArialMT" font-size="7.00" fill="#000000">0..1</text>
<text text-anchor="middle" x="270.8406" y="-431.2132" font-family="ArialMT" font-size="7.00" fill="#000000">0..1</text>
</g>
<!-- m_TrafficWorkload -->
<g id="node16" class="node">
<title>m_TrafficWorkload</title>
<path fill="none" stroke="#000000" d="M377,-126.5C377,-126.5 497,-126.5 497,-126.5 503,-126.5 509,-132.5 509,-138.5 509,-138.5 509,-150.5 509,-150.5 509,-156.5 503,-162.5 497,-162.5 497,-162.5 377,-162.5 377,-162.5 371,-162.5 365,-156.5 365,-150.5 365,-150.5 365,-138.5 365,-138.5 365,-132.5 371,-126.5 377,-126.5"/>
<text text-anchor="start" x="396.79" y="-140.7" font-family="Arial BoldMT" font-size="11.00" fill="#000000">TrafficWorkload</text>
</g>
<!-- m_Ingredient&#45;&gt;m_TrafficWorkload -->
<g id="edge15" class="edge">
<title>m_Ingredient&#45;&gt;m_TrafficWorkload</title>
<path fill="none" stroke="#000000" d="M253.981,-444.2239C260.2629,-394.7786 284.0378,-256.7743 360,-177.5 364.0501,-173.2733 368.7302,-169.5599 373.7419,-166.3029"/>
<polygon fill="#000000" stroke="#000000" points="379.7597,-162.6857 375.3829,-168.9918 376.7599,-164.4889 373.7601,-166.292 373.7601,-166.292 373.7601,-166.292 376.7599,-164.4889 372.1372,-163.5922 379.7597,-162.6857 379.7597,-162.6857"/>
<text text-anchor="middle" x="361.7624" y="-161.1102" font-family="ArialMT" font-size="7.00" fill="#000000">0..∗</text>
<text text-anchor="middle" x="265.5563" y="-428.8642" font-family="ArialMT" font-size="7.00" fill="#000000">0..1</text>
</g>
<!-- m_Provider&#45;&gt;m_Resource -->
<g id="edge28" class="edge">
<title>m_Provider&#45;&gt;m_Resource</title>
<path fill="none" stroke="#000000" d="M305.0136,-63.4467C327.5591,-55.7691 353.9574,-46.7794 377.196,-38.8657"/>
<polygon fill="#000000" stroke="#000000" points="383.9787,-36.5559 378.3678,-41.7943 380.6655,-37.6842 377.3524,-38.8125 377.3524,-38.8125 377.3524,-38.8125 380.6655,-37.6842 376.3369,-35.8307 383.9787,-36.5559 383.9787,-36.5559"/>
<text text-anchor="middle" x="366.4538" y="-31.1831" font-family="ArialMT" font-size="7.00" fill="#000000">0..∗</text>
<text text-anchor="middle" x="322.5384" y="-65.9799" font-family="ArialMT" font-size="7.00" fill="#000000">0..1</text>
</g>
</g>
</svg>
