<?xml version="1.0" encoding="UTF-8" standalone="no"?>
<!DOCTYPE svg PUBLIC "-//W3C//DTD SVG 1.1//EN"
 "http://www.w3.org/Graphics/SVG/1.1/DTD/svg11.dtd">
<!-- Generated by graphviz version 2.40.1 (20161225.0304)
 -->
<!-- Title: CloudStove Pages: 1 -->
<svg width="777pt" height="687pt"
 viewBox="0.00 0.00 777.32 686.60" xmlns="http://www.w3.org/2000/svg" xmlns:xlink="http://www.w3.org/1999/xlink">
<g id="graph0" class="graph" transform="scale(1 1) rotate(0) translate(28.8 657.8)">
<title>CloudStove</title>
<polygon fill="#ffffff" stroke="transparent" points="-28.8,28.8 -28.8,-657.8 748.5234,-657.8 748.5234,28.8 -28.8,28.8"/>
<text text-anchor="middle" x="359.8617" y="-614.6" font-family="Arial BoldMT" font-size="13.00" fill="#000000">CloudStove domain model</text>
<!-- m_Base -->
<g id="node1" class="node">
<title>m_Base</title>
<path fill="none" stroke="#999999" d="M12,-361.5C12,-361.5 132,-361.5 132,-361.5 138,-361.5 144,-367.5 144,-373.5 144,-373.5 144,-385.5 144,-385.5 144,-391.5 138,-397.5 132,-397.5 132,-397.5 12,-397.5 12,-397.5 6,-397.5 0,-391.5 0,-385.5 0,-385.5 0,-373.5 0,-373.5 0,-367.5 6,-361.5 12,-361.5"/>
<text text-anchor="start" x="57.4639" y="-375.7" font-family="Arial BoldMT" font-size="11.00" fill="#999999">Base</text>
</g>
<!-- m_Constraint -->
<g id="node2" class="node">
<title>m_Constraint</title>
<path fill="none" stroke="#000000" d="M377,-166.5C377,-166.5 497,-166.5 497,-166.5 503,-166.5 509,-172.5 509,-178.5 509,-178.5 509,-190.5 509,-190.5 509,-196.5 503,-202.5 497,-202.5 497,-202.5 377,-202.5 377,-202.5 371,-202.5 365,-196.5 365,-190.5 365,-190.5 365,-178.5 365,-178.5 365,-172.5 371,-166.5 377,-166.5"/>
<text text-anchor="start" x="409.9331" y="-180.7" font-family="Arial BoldMT" font-size="11.00" fill="#000000">Constraint</text>
</g>
<!-- m_Base&#45;&gt;m_Constraint -->
<g id="edge1" class="edge">
<title>m_Base&#45;&gt;m_Constraint</title>
<path fill="none" stroke="#999999" d="M252,-184.5C284.8445,-163.1312 328.3998,-162.1295 364.9978,-166.9357"/>
</g>
<!-- m_DeploymentRecommendation -->
<g id="node6" class="node">
<title>m_DeploymentRecommendation</title>
<path fill="none" stroke="#000000" d="M372,-40.5C372,-40.5 502,-40.5 502,-40.5 508,-40.5 514,-46.5 514,-52.5 514,-52.5 514,-64.5 514,-64.5 514,-70.5 508,-76.5 502,-76.5 502,-76.5 372,-76.5 372,-76.5 366,-76.5 360,-70.5 360,-64.5 360,-64.5 360,-52.5 360,-52.5 360,-46.5 366,-40.5 372,-40.5"/>
<text text-anchor="start" x="364.5466" y="-54.7" font-family="Arial BoldMT" font-size="11.00" fill="#000000">DeploymentRecommendation</text>
</g>
<!-- m_Base&#45;&gt;m_DeploymentRecommendation -->
<g id="edge2" class="edge">
<title>m_Base&#45;&gt;m_DeploymentRecommendation</title>
<path fill="none" stroke="#999999" d="M252,-184.5C303.2007,-151.1886 308.8405,-132.8746 360,-99.5 372.5577,-91.3078 386.9182,-83.3202 399.8092,-76.604"/>
<path fill="none" stroke="#999999" d="M84.6051,-350.047C101.4972,-313.7084 134.6834,-252.1315 180,-214.5 206.6699,-192.353 222.942,-203.4053 252,-184.5"/>
<polygon fill="none" stroke="#999999" points="80.6199,-348.667 79.5072,-361.332 88.2751,-352.1252 80.6199,-348.667"/>
</g>
<!-- m_Ingredient -->
<g id="node7" class="node">
<title>m_Ingredient</title>
<path fill="none" stroke="#000000" d="M192,-229.5C192,-229.5 312,-229.5 312,-229.5 318,-229.5 324,-235.5 324,-241.5 324,-241.5 324,-253.5 324,-253.5 324,-259.5 318,-265.5 312,-265.5 312,-265.5 192,-265.5 192,-265.5 186,-265.5 180,-259.5 180,-253.5 180,-253.5 180,-241.5 180,-241.5 180,-235.5 186,-229.5 192,-229.5"/>
<text text-anchor="start" x="225.5374" y="-243.7" font-family="Arial BoldMT" font-size="11.00" fill="#000000">Ingredient</text>
</g>
<!-- m_Base&#45;&gt;m_Ingredient -->
<g id="edge3" class="edge">
<title>m_Base&#45;&gt;m_Ingredient</title>
<path fill="none" stroke="#999999" d="M106.5437,-354.168C141.936,-328.2136 196.0782,-288.5093 227.3587,-265.5703"/>
<polygon fill="none" stroke="#999999" points="103.8439,-350.9394 96.6508,-361.4227 108.8114,-357.7132 103.8439,-350.9394"/>
</g>
<!-- m_Provider -->
<g id="node9" class="node">
<title>m_Provider</title>
<path fill="none" stroke="#000000" d="M192,-556.5C192,-556.5 312,-556.5 312,-556.5 318,-556.5 324,-562.5 324,-568.5 324,-568.5 324,-580.5 324,-580.5 324,-586.5 318,-592.5 312,-592.5 312,-592.5 192,-592.5 192,-592.5 186,-592.5 180,-586.5 180,-580.5 180,-580.5 180,-568.5 180,-568.5 180,-562.5 186,-556.5 192,-556.5"/>
<text text-anchor="start" x="229.52" y="-570.7" font-family="Arial BoldMT" font-size="11.00" fill="#000000">Provider</text>
</g>
<!-- m_Base&#45;&gt;m_Provider -->
<g id="edge4" class="edge">
<title>m_Base&#45;&gt;m_Provider</title>
<path fill="none" stroke="#999999" d="M96.7757,-406.7348C118.613,-430.7001 151.3246,-466.5033 180,-497.5 198.6427,-517.6519 220.1577,-540.6241 234.7786,-556.193"/>
<polygon fill="none" stroke="#999999" points="99.5932,-403.5909 88.4079,-397.5469 93.3827,-409.2469 99.5932,-403.5909"/>
</g>
<!-- m_Resource -->
<g id="node13" class="node">
<title>m_Resource</title>
<path fill="none" stroke="#000000" d="M377,-556.5C377,-556.5 497,-556.5 497,-556.5 503,-556.5 509,-562.5 509,-568.5 509,-568.5 509,-580.5 509,-580.5 509,-586.5 503,-592.5 497,-592.5 497,-592.5 377,-592.5 377,-592.5 371,-592.5 365,-586.5 365,-580.5 365,-580.5 365,-568.5 365,-568.5 365,-562.5 371,-556.5 377,-556.5"/>
<text text-anchor="start" x="411.4612" y="-570.7" font-family="Arial BoldMT" font-size="11.00" fill="#000000">Resource</text>
</g>
<!-- m_Base&#45;&gt;m_Resource -->
<g id="edge5" class="edge">
<title>m_Base&#45;&gt;m_Resource</title>
<path fill="none" stroke="#999999" d="M112.0396,-403.8368C167.0021,-436.8217 269.3392,-496.7356 360,-541.5 370.4328,-546.6513 381.8646,-551.8056 392.6522,-556.4581"/>
<polygon fill="none" stroke="#999999" points="114.1435,-400.201 101.6963,-397.6113 109.8118,-407.398 114.1435,-400.201"/>
</g>
<!-- m_CpuConstraint -->
<g id="node3" class="node">
<title>m_CpuConstraint</title>
<path fill="none" stroke="#999999" d="M572,-330.5C572,-330.5 692,-330.5 692,-330.5 698,-330.5 704,-336.5 704,-342.5 704,-342.5 704,-354.5 704,-354.5 704,-360.5 698,-366.5 692,-366.5 692,-366.5 572,-366.5 572,-366.5 566,-366.5 560,-360.5 560,-354.5 560,-354.5 560,-342.5 560,-342.5 560,-336.5 566,-330.5 572,-330.5"/>
<text text-anchor="start" x="594.8435" y="-344.7" font-family="Arial BoldMT" font-size="11.00" fill="#999999">CpuConstraint</text>
</g>
<!-- m_Constraint&#45;&gt;m_CpuConstraint -->
<g id="edge6" class="edge">
<title>m_Constraint&#45;&gt;m_CpuConstraint</title>
<path fill="none" stroke="#999999" d="M494.0289,-208.8053C501.3665,-213.5906 508.2959,-219.139 514,-225.5 542.762,-257.5741 519.5689,-285.0049 550,-315.5 555.9618,-321.4743 563.1468,-326.4048 570.7543,-330.4641"/>
<polygon fill="none" stroke="#999999" points="495.9326,-205.0513 483.4686,-202.5434 491.6482,-212.2766 495.9326,-205.0513"/>
</g>
<!-- m_DependencyConstraint -->
<g id="node5" class="node">
<title>m_DependencyConstraint</title>
<path fill="none" stroke="#999999" d="M572,-264.5C572,-264.5 692,-264.5 692,-264.5 698,-264.5 704,-270.5 704,-276.5 704,-276.5 704,-288.5 704,-288.5 704,-294.5 698,-300.5 692,-300.5 692,-300.5 572,-300.5 572,-300.5 566,-300.5 560,-294.5 560,-288.5 560,-288.5 560,-276.5 560,-276.5 560,-270.5 566,-264.5 572,-264.5"/>
<text text-anchor="start" x="574.0493" y="-278.7" font-family="Arial BoldMT" font-size="11.00" fill="#999999">DependencyConstraint</text>
</g>
<!-- m_Constraint&#45;&gt;m_DependencyConstraint -->
<g id="edge7" class="edge">
<title>m_Constraint&#45;&gt;m_DependencyConstraint</title>
<path fill="none" stroke="#999999" d="M483.4612,-208.2871C493.6299,-213.7564 504.2618,-219.6806 514,-225.5 530.5068,-235.3642 532.9908,-240.5298 550,-249.5 560.1803,-254.8688 571.4337,-259.9243 582.2577,-264.3891"/>
<polygon fill="none" stroke="#999999" points="485.2411,-204.4768 472.673,-202.5573 481.3009,-211.8954 485.2411,-204.4768"/>
</g>
<!-- m_PreferredRegionAreaConstraint -->
<g id="node8" class="node">
<title>m_PreferredRegionAreaConstraint</title>
<path fill="none" stroke="#999999" d="M562,-198.5C562,-198.5 702,-198.5 702,-198.5 708,-198.5 714,-204.5 714,-210.5 714,-210.5 714,-222.5 714,-222.5 714,-228.5 708,-234.5 702,-234.5 702,-234.5 562,-234.5 562,-234.5 556,-234.5 550,-228.5 550,-222.5 550,-222.5 550,-210.5 550,-210.5 550,-204.5 556,-198.5 562,-198.5"/>
<text text-anchor="start" x="554.9597" y="-212.7" font-family="Arial BoldMT" font-size="11.00" fill="#999999">PreferredRegionAreaConstraint</text>
</g>
<!-- m_Constraint&#45;&gt;m_PreferredRegionAreaConstraint -->
<g id="edge8" class="edge">
<title>m_Constraint&#45;&gt;m_PreferredRegionAreaConstraint</title>
<path fill="none" stroke="#999999" d="M520.995,-198.2838C530.516,-199.8462 540.2122,-201.4374 549.7109,-202.9961"/>
<polygon fill="none" stroke="#999999" points="521.5786,-194.1235 509.0568,-196.3247 520.2182,-202.4126 521.5786,-194.1235"/>
</g>
<!-- m_ProviderConstraint -->
<g id="node10" class="node">
<title>m_ProviderConstraint</title>
<path fill="none" stroke="#999999" d="M572,-132.5C572,-132.5 692,-132.5 692,-132.5 698,-132.5 704,-138.5 704,-144.5 704,-144.5 704,-156.5 704,-156.5 704,-162.5 698,-168.5 692,-168.5 692,-168.5 572,-168.5 572,-168.5 566,-168.5 560,-162.5 560,-156.5 560,-156.5 560,-144.5 560,-144.5 560,-138.5 566,-132.5 572,-132.5"/>
<text text-anchor="start" x="584.4531" y="-146.7" font-family="Arial BoldMT" font-size="11.00" fill="#999999">ProviderConstraint</text>
</g>
<!-- m_Constraint&#45;&gt;m_ProviderConstraint -->
<g id="edge9" class="edge">
<title>m_Constraint&#45;&gt;m_ProviderConstraint</title>
<path fill="none" stroke="#999999" d="M521.2734,-169.8062C534.1469,-167.5616 547.3339,-165.2623 559.914,-163.0688"/>
<polygon fill="none" stroke="#999999" points="520.157,-165.7374 509.0568,-171.9363 521.5999,-174.0125 520.157,-165.7374"/>
</g>
<!-- m_RamConstraint -->
<g id="node11" class="node">
<title>m_RamConstraint</title>
<path fill="none" stroke="#999999" d="M572,-66.5C572,-66.5 692,-66.5 692,-66.5 698,-66.5 704,-72.5 704,-78.5 704,-78.5 704,-90.5 704,-90.5 704,-96.5 698,-102.5 692,-102.5 692,-102.5 572,-102.5 572,-102.5 566,-102.5 560,-96.5 560,-90.5 560,-90.5 560,-78.5 560,-78.5 560,-72.5 566,-66.5 572,-66.5"/>
<text text-anchor="start" x="593.3208" y="-80.7" font-family="Arial BoldMT" font-size="11.00" fill="#999999">RamConstraint</text>
</g>
<!-- m_Constraint&#45;&gt;m_RamConstraint -->
<g id="edge10" class="edge">
<title>m_Constraint&#45;&gt;m_RamConstraint</title>
<path fill="none" stroke="#999999" d="M484.2256,-160.6621C494.2014,-155.2651 504.5613,-149.3832 514,-143.5 530.7492,-133.06 532.718,-127.0322 550,-117.5 559.9436,-112.0155 570.9902,-106.9443 581.6713,-102.5058"/>
<polygon fill="none" stroke="#999999" points="482.2364,-156.9629 473.6132,-166.3054 486.1803,-164.3795 482.2364,-156.9629"/>
</g>
<!-- m_ScalingConstraint -->
<g id="node14" class="node">
<title>m_ScalingConstraint</title>
<path fill="none" stroke="#999999" d="M572,-.5C572,-.5 692,-.5 692,-.5 698,-.5 704,-6.5 704,-12.5 704,-12.5 704,-24.5 704,-24.5 704,-30.5 698,-36.5 692,-36.5 692,-36.5 572,-36.5 572,-36.5 566,-36.5 560,-30.5 560,-24.5 560,-24.5 560,-12.5 560,-12.5 560,-6.5 566,-.5 572,-.5"/>
<text text-anchor="start" x="586.8943" y="-14.7" font-family="Arial BoldMT" font-size="11.00" fill="#999999">ScalingConstraint</text>
</g>
<!-- m_Constraint&#45;&gt;m_ScalingConstraint -->
<g id="edge11" class="edge">
<title>m_Constraint&#45;&gt;m_ScalingConstraint</title>
<path fill="none" stroke="#999999" d="M494.0726,-160.2337C501.4039,-155.4428 508.3198,-149.8824 514,-143.5 543.1908,-110.7006 519.1021,-82.6965 550,-51.5 555.8313,-45.6123 562.8511,-40.7402 570.2985,-36.7171"/>
<polygon fill="none" stroke="#999999" points="491.6918,-156.7626 483.5168,-166.4997 495.9797,-163.9859 491.6918,-156.7626"/>
</g>
<!-- m_CpuWorkload -->
<g id="node4" class="node">
<title>m_CpuWorkload</title>
<path fill="none" stroke="#000000" d="M377,-424.5C377,-424.5 497,-424.5 497,-424.5 503,-424.5 509,-430.5 509,-436.5 509,-436.5 509,-448.5 509,-448.5 509,-454.5 503,-460.5 497,-460.5 497,-460.5 377,-460.5 377,-460.5 371,-460.5 365,-454.5 365,-448.5 365,-448.5 365,-436.5 365,-436.5 365,-430.5 371,-424.5 377,-424.5"/>
<text text-anchor="start" x="401.7771" y="-438.7" font-family="Arial BoldMT" font-size="11.00" fill="#000000">CpuWorkload</text>
</g>
<!-- m_Ingredient&#45;&gt;m_Constraint -->
<g id="edge16" class="edge">
<title>m_Ingredient&#45;&gt;m_Constraint</title>
<path fill="none" stroke="#000000" d="M305.0136,-229.4467C327.5591,-221.7691 353.9574,-212.7794 377.196,-204.8657"/>
<polygon fill="#000000" stroke="#000000" points="383.9787,-202.5559 378.3678,-207.7943 380.6655,-203.6842 377.3524,-204.8125 377.3524,-204.8125 377.3524,-204.8125 380.6655,-203.6842 376.3369,-201.8307 383.9787,-202.5559 383.9787,-202.5559"/>
<text text-anchor="middle" x="366.4538" y="-197.1831" font-family="ArialMT" font-size="7.00" fill="#000000">0..∗</text>
<text text-anchor="middle" x="322.5384" y="-231.9799" font-family="ArialMT" font-size="7.00" fill="#000000">0..1</text>
</g>
<!-- m_Ingredient&#45;&gt;m_CpuConstraint -->
<g id="edge27" class="edge">
<title>m_Ingredient&#45;&gt;m_CpuConstraint</title>
<path fill="none" stroke="#000000" d="M437,-247.5C473.7274,-247.6883 483.5216,-257.006 514,-277.5 533.3059,-290.4815 530.7664,-302.4117 550,-315.5 558.3733,-321.198 567.8795,-326.1514 577.3778,-330.3653"/>
<text text-anchor="middle" x="567.3914" y="-313.8143" font-family="ArialMT" font-size="7.00" fill="#000000">0..1</text>
<text text-anchor="middle" x="451.9479" y="-255.9526" font-family="ArialMT" font-size="7.00" fill="#000000">0..1</text>
</g>
<!-- m_Ingredient&#45;&gt;m_CpuWorkload -->
<g id="edge20" class="edge">
<title>m_Ingredient&#45;&gt;m_CpuWorkload</title>
<path fill="none" stroke="#000000" d="M263.1906,-265.5132C288.1041,-305.43 346.9741,-398.6648 360,-409.5 366.9324,-415.2665 375.0234,-420.1755 383.3051,-424.3041"/>
<text text-anchor="middle" x="374.0322" y="-407.301" font-family="ArialMT" font-size="7.00" fill="#000000">0..1</text>
<text text-anchor="middle" x="263.2055" y="-281.9379" font-family="ArialMT" font-size="7.00" fill="#000000">0..1</text>
</g>
<!-- m_Ingredient&#45;&gt;m_DependencyConstraint -->
<g id="edge23" class="edge">
<title>m_Ingredient&#45;&gt;m_DependencyConstraint</title>
<path fill="none" stroke="#000000" d="M437,-247.5C477.1451,-247.7059 521.2188,-254.9996 557.2936,-262.8753"/>
<polygon fill="#000000" stroke="#000000" points="564.3984,-264.4562 556.8813,-266.0105 560.982,-263.696 557.5655,-262.9357 557.5655,-262.9357 557.5655,-262.9357 560.982,-263.696 558.2498,-259.8609 564.3984,-264.4562 564.3984,-264.4562"/>
<text text-anchor="middle" x="551.5698" y="-250.5655" font-family="ArialMT" font-size="7.00" fill="#000000">0..∗</text>
<text text-anchor="middle" x="452.0509" y="-255.7974" font-family="ArialMT" font-size="7.00" fill="#000000">0..1</text>
</g>
<!-- m_Ingredient&#45;&gt;m_DeploymentRecommendation -->
<g id="edge17" class="edge">
<title>m_Ingredient&#45;&gt;m_DeploymentRecommendation</title>
<path fill="none" stroke="#000000" d="M295.4299,-229.4783C305.9273,-223.4486 316.3194,-215.8279 324,-206.5 355.8937,-167.766 327.5602,-137.7778 360,-99.5 366.3203,-92.0423 374.3485,-85.7389 382.8216,-80.4817"/>
<polygon fill="#000000" stroke="#000000" points="389.3669,-76.6636 384.9076,-82.9117 386.3436,-78.4272 383.3204,-80.1908 383.3204,-80.1908 383.3204,-80.1908 386.3436,-78.4272 381.7332,-77.4699 389.3669,-76.6636 389.3669,-76.6636"/>
<text text-anchor="middle" x="371.3752" y="-74.8516" font-family="ArialMT" font-size="7.00" fill="#000000">0..∗</text>
<text text-anchor="middle" x="313.4243" y="-228.3524" font-family="ArialMT" font-size="7.00" fill="#000000">0..1</text>
</g>
<!-- m_Ingredient&#45;&gt;m_Ingredient -->
<g id="edge18" class="edge">
<title>m_Ingredient&#45;&gt;m_Ingredient</title>
<path fill="none" stroke="#000000" d="M237.498,-265.5328C231.6973,-280.0326 236.5313,-295 252,-295 265.0518,-295 270.5325,-284.3445 268.4422,-272.305"/>
<polygon fill="#000000" stroke="#000000" points="266.502,-265.5328 271.4581,-271.3945 267.466,-268.8975 268.43,-272.2621 268.43,-272.2621 268.43,-272.2621 267.466,-268.8975 265.4018,-273.1297 266.502,-265.5328 266.502,-265.5328"/>
<text text-anchor="middle" x="261.5365" y="-281.5701" font-family="ArialMT" font-size="7.00" fill="#000000">0..∗</text>
<text text-anchor="middle" x="223.6894" y="-275.5039" font-family="ArialMT" font-size="7.00" fill="#000000">0..1</text>
</g>
<!-- m_Ingredient&#45;&gt;m_Ingredient -->
<g id="edge19" class="edge">
<title>m_Ingredient&#45;&gt;m_Ingredient</title>
<path fill="none" stroke="#000000" d="M230.1482,-265.5543C208.8567,-291.6145 216.1406,-324 252,-324 285.1979,-324 293.9047,-296.2433 278.1203,-271.4455"/>
<polygon fill="#000000" stroke="#000000" points="273.8518,-265.5543 280.5098,-269.3746 275.9054,-268.3885 277.959,-271.2228 277.959,-271.2228 277.959,-271.2228 275.9054,-268.3885 275.4081,-273.071 273.8518,-265.5543 273.8518,-265.5543"/>
<text text-anchor="middle" x="275.084" y="-282.2478" font-family="ArialMT" font-size="7.00" fill="#000000">0..∗</text>
<text text-anchor="middle" x="213.6089" y="-271.0818" font-family="ArialMT" font-size="7.00" fill="#000000">0..1</text>
</g>
<!-- m_Ingredient&#45;&gt;m_PreferredRegionAreaConstraint -->
<g id="edge28" class="edge">
<title>m_Ingredient&#45;&gt;m_PreferredRegionAreaConstraint</title>
<path fill="none" stroke="#000000" d="M437,-247.5C476.4207,-247.7022 519.7748,-241.467 555.5735,-234.5372"/>
<text text-anchor="middle" x="538.8132" y="-226.3973" font-family="ArialMT" font-size="7.00" fill="#000000">0..1</text>
<text text-anchor="middle" x="452.3653" y="-255.3006" font-family="ArialMT" font-size="7.00" fill="#000000">0..1</text>
</g>
<!-- m_Ingredient&#45;&gt;m_ProviderConstraint -->
<g id="edge29" class="edge">
<title>m_Ingredient&#45;&gt;m_ProviderConstraint</title>
<path fill="none" stroke="#000000" d="M437,-247.5C473.7274,-247.6883 482.9638,-237.1391 514,-217.5 532.5973,-205.732 531.4683,-195.371 550,-183.5 558.7869,-177.8714 568.6914,-172.9046 578.4998,-168.6451"/>
<path fill="none" stroke="#000000" d="M324.0426,-247.3286C358.2661,-247.291 399.7435,-247.3089 437,-247.5"/>
<text text-anchor="middle" x="421.7794" y="-236.3156" font-family="ArialMT" font-size="7.00" fill="#000000">0..1</text>
<text text-anchor="middle" x="452.5055" y="-255.0668" font-family="ArialMT" font-size="7.00" fill="#000000">0..1</text>
</g>
<!-- m_Ingredient&#45;&gt;m_RamConstraint -->
<g id="edge26" class="edge">
<title>m_Ingredient&#45;&gt;m_RamConstraint</title>
<path fill="none" stroke="#000000" d="M437,-121.5C474.9167,-102.1784 521.6323,-92.8881 559.8327,-88.4472"/>
<text text-anchor="middle" x="543.4895" y="-79.3287" font-family="ArialMT" font-size="7.00" fill="#000000">0..1</text>
<text text-anchor="middle" x="454.8781" y="-122.0157" font-family="ArialMT" font-size="7.00" fill="#000000">0..1</text>
</g>
<!-- m_RamWorkload -->
<g id="node12" class="node">
<title>m_RamWorkload</title>
<path fill="none" stroke="#000000" d="M377,-358.5C377,-358.5 497,-358.5 497,-358.5 503,-358.5 509,-364.5 509,-370.5 509,-370.5 509,-382.5 509,-382.5 509,-388.5 503,-394.5 497,-394.5 497,-394.5 377,-394.5 377,-394.5 371,-394.5 365,-388.5 365,-382.5 365,-382.5 365,-370.5 365,-370.5 365,-364.5 371,-358.5 377,-358.5"/>
<text text-anchor="start" x="400.2544" y="-372.7" font-family="Arial BoldMT" font-size="11.00" fill="#000000">RamWorkload</text>
</g>
<!-- m_Ingredient&#45;&gt;m_RamWorkload -->
<g id="edge21" class="edge">
<title>m_Ingredient&#45;&gt;m_RamWorkload</title>
<path fill="none" stroke="#000000" d="M268.8992,-265.7235C289.0282,-286.6238 324.4216,-320.9073 360,-343.5 368.7172,-349.0355 378.5219,-354.0389 388.1403,-358.3795"/>
<text text-anchor="middle" x="378.2268" y="-341.7801" font-family="ArialMT" font-size="7.00" fill="#000000">0..1</text>
<text text-anchor="middle" x="272.7276" y="-281.7363" font-family="ArialMT" font-size="7.00" fill="#000000">0..1</text>
</g>
<!-- m_Ingredient&#45;&gt;m_ScalingConstraint -->
<g id="edge30" class="edge">
<title>m_Ingredient&#45;&gt;m_ScalingConstraint</title>
<path fill="none" stroke="#000000" d="M291.661,-229.3237C302.8673,-223.0663 314.5667,-215.3666 324,-206.5 345.2878,-186.491 337.3083,-169.9016 360,-151.5 388.5268,-128.3665 404.2759,-138.1755 437,-121.5"/>
<path fill="none" stroke="#000000" d="M437,-121.5C469.7241,-104.8245 483.786,-112.3819 514,-91.5 533.6756,-77.9015 530.4001,-65.2074 550,-51.5 558.1741,-45.7834 567.4836,-40.8423 576.8251,-36.6515"/>
<text text-anchor="middle" x="558.9767" y="-32.7455" font-family="ArialMT" font-size="7.00" fill="#000000">0..1</text>
<text text-anchor="middle" x="309.6458" y="-228.4877" font-family="ArialMT" font-size="7.00" fill="#000000">0..1</text>
</g>
<!-- m_ScalingWorkload -->
<g id="node15" class="node">
<title>m_ScalingWorkload</title>
<path fill="none" stroke="#000000" d="M377,-292.5C377,-292.5 497,-292.5 497,-292.5 503,-292.5 509,-298.5 509,-304.5 509,-304.5 509,-316.5 509,-316.5 509,-322.5 503,-328.5 497,-328.5 497,-328.5 377,-328.5 377,-328.5 371,-328.5 365,-322.5 365,-316.5 365,-316.5 365,-304.5 365,-304.5 365,-298.5 371,-292.5 377,-292.5"/>
<text text-anchor="start" x="393.8279" y="-306.7" font-family="Arial BoldMT" font-size="11.00" fill="#000000">ScalingWorkload</text>
</g>
<!-- m_Ingredient&#45;&gt;m_ScalingWorkload -->
<g id="edge22" class="edge">
<title>m_Ingredient&#45;&gt;m_ScalingWorkload</title>
<path fill="none" stroke="#000000" d="M305.0136,-265.5533C329.7846,-273.9888 359.2067,-284.0082 383.9787,-292.4441"/>
<text text-anchor="middle" x="372.6036" y="-276.9186" font-family="ArialMT" font-size="7.00" fill="#000000">0..1</text>
<text text-anchor="middle" x="316.3887" y="-277.9281" font-family="ArialMT" font-size="7.00" fill="#000000">0..1</text>
</g>
<!-- m_TrafficWorkload -->
<g id="node16" class="node">
<title>m_TrafficWorkload</title>
<path fill="none" stroke="#000000" d="M377,-490.5C377,-490.5 497,-490.5 497,-490.5 503,-490.5 509,-496.5 509,-502.5 509,-502.5 509,-514.5 509,-514.5 509,-520.5 503,-526.5 497,-526.5 497,-526.5 377,-526.5 377,-526.5 371,-526.5 365,-520.5 365,-514.5 365,-514.5 365,-502.5 365,-502.5 365,-496.5 371,-490.5 377,-490.5"/>
<text text-anchor="start" x="396.79" y="-504.7" font-family="Arial BoldMT" font-size="11.00" fill="#000000">TrafficWorkload</text>
</g>
<!-- m_Ingredient&#45;&gt;m_TrafficWorkload -->
<g id="edge32" class="edge">
<title>m_Ingredient&#45;&gt;m_TrafficWorkload</title>
<path fill="none" stroke="#000000" d="M265.5234,-265.6172C281.3006,-287.4289 307.3433,-325.6171 324,-361.5 346.3714,-409.6937 324.3346,-436.1161 360,-475.5 363.7754,-479.669 368.1673,-483.3315 372.9032,-486.5454"/>
<polygon fill="#000000" stroke="#000000" points="379.0656,-490.3808 371.4581,-489.3563 376.0941,-488.5314 373.1226,-486.6819 373.1226,-486.6819 373.1226,-486.6819 376.0941,-488.5314 374.7871,-484.0076 379.0656,-490.3808 379.0656,-490.3808"/>
<text text-anchor="middle" x="371.146" y="-472.9523" font-family="ArialMT" font-size="7.00" fill="#000000">0..∗</text>
<text text-anchor="middle" x="266.6509" y="-282.0065" font-family="ArialMT" font-size="7.00" fill="#000000">0..1</text>
</g>
<!-- m_Provider&#45;&gt;m_Resource -->
<g id="edge31" class="edge">
<title>m_Provider&#45;&gt;m_Resource</title>
<path fill="none" stroke="#000000" d="M324.0556,-574.5C335.0412,-574.5 346.4319,-574.5 357.5649,-574.5"/>
<polygon fill="#000000" stroke="#000000" points="364.8368,-574.5 357.8368,-577.6501 361.3368,-574.5 357.8368,-574.5001 357.8368,-574.5001 357.8368,-574.5001 361.3368,-574.5 357.8367,-571.3501 364.8368,-574.5 364.8368,-574.5"/>
<text text-anchor="middle" x="349.5719" y="-563.6971" font-family="ArialMT" font-size="7.00" fill="#000000">0..∗</text>
<text text-anchor="middle" x="339.3204" y="-582.4632" font-family="ArialMT" font-size="7.00" fill="#000000">0..1</text>
</g>
<!-- m_Workload -->
<g id="node17" class="node">
<title>m_Workload</title>
<path fill="none" stroke="#999999" d="M192,-376.5C192,-376.5 312,-376.5 312,-376.5 318,-376.5 324,-382.5 324,-388.5 324,-388.5 324,-400.5 324,-400.5 324,-406.5 318,-412.5 312,-412.5 312,-412.5 192,-412.5 192,-412.5 186,-412.5 180,-406.5 180,-400.5 180,-400.5 180,-388.5 180,-388.5 180,-382.5 186,-376.5 192,-376.5"/>
<text text-anchor="start" x="226.8667" y="-390.7" font-family="Arial BoldMT" font-size="11.00" fill="#999999">Workload</text>
</g>
<!-- m_Workload&#45;&gt;m_CpuWorkload -->
<g id="edge12" class="edge">
<title>m_Workload&#45;&gt;m_CpuWorkload</title>
<path fill="none" stroke="#999999" d="M333.2148,-415.572C344.6491,-418.5387 356.3169,-421.566 367.5052,-424.4689"/>
<polygon fill="none" stroke="#999999" points="334.0837,-411.4584 321.4135,-412.51 331.9741,-419.5892 334.0837,-411.4584"/>
</g>
<!-- m_Workload&#45;&gt;m_RamWorkload -->
<g id="edge13" class="edge">
<title>m_Workload&#45;&gt;m_RamWorkload</title>
<path fill="none" stroke="#999999" d="M336.1106,-386.3163C345.7037,-385.3829 355.4182,-384.4377 364.8368,-383.5213"/>
<polygon fill="none" stroke="#999999" points="335.5924,-382.1468 324.0556,-387.4892 336.4059,-390.5073 335.5924,-382.1468"/>
</g>
<!-- m_Workload&#45;&gt;m_ScalingWorkload -->
<g id="edge14" class="edge">
<title>m_Workload&#45;&gt;m_ScalingWorkload</title>
<path fill="none" stroke="#999999" d="M300.2106,-371.2763C318.8233,-362.4307 340.3354,-352.3534 360,-343.5 371.0074,-338.5443 382.9712,-333.3331 394.1143,-328.5531"/>
<polygon fill="none" stroke="#999999" points="298.3563,-367.5074 289.3316,-376.4626 301.9711,-375.0898 298.3563,-367.5074"/>
</g>
<!-- m_Workload&#45;&gt;m_TrafficWorkload -->
<g id="edge15" class="edge">
<title>m_Workload&#45;&gt;m_TrafficWorkload</title>
<path fill="none" stroke="#999999" d="M282.1745,-420.2199C303.1155,-437.2766 332.149,-459.398 360,-475.5 369.3174,-480.8869 379.6821,-485.9168 389.7101,-490.3461"/>
<polygon fill="none" stroke="#999999" points="284.7993,-416.9405 272.8709,-412.5411 279.4523,-423.4189 284.7993,-416.9405"/>
</g>
</g>
</svg>
