<?xml version="1.0" encoding="UTF-8" standalone="no"?>
<!DOCTYPE svg PUBLIC "-//W3C//DTD SVG 1.1//EN"
 "http://www.w3.org/Graphics/SVG/1.1/DTD/svg11.dtd">
<!-- Generated by graphviz version 2.38.0 (20140413.2041)
 -->
<!-- Title: CloudStove Pages: 1 -->
<svg width="777pt" height="773pt"
 viewBox="0.00 0.00 777.32 772.60" xmlns="http://www.w3.org/2000/svg" xmlns:xlink="http://www.w3.org/1999/xlink">
<g id="graph0" class="graph" transform="scale(1 1) rotate(0) translate(28.8 743.8)">
<title>CloudStove</title>
<polygon fill="white" stroke="none" points="-28.8,28.8 -28.8,-743.8 748.523,-743.8 748.523,28.8 -28.8,28.8"/>
<text text-anchor="middle" x="359.862" y="-700.6" font-family="Arial BoldMT" font-size="13.00">CloudStove domain model</text>
<!-- m_Base -->
<g id="node1" class="node"><title>m_Base</title>
<path fill="none" stroke="#999999" d="M12,-189.5C12,-189.5 132,-189.5 132,-189.5 138,-189.5 144,-195.5 144,-201.5 144,-201.5 144,-213.5 144,-213.5 144,-219.5 138,-225.5 132,-225.5 132,-225.5 12,-225.5 12,-225.5 6,-225.5 0,-219.5 0,-213.5 0,-213.5 0,-201.5 0,-201.5 0,-195.5 6,-189.5 12,-189.5"/>
<text text-anchor="start" x="57.4639" y="-203.7" font-family="Arial BoldMT" font-size="11.00" fill="#999999">Base</text>
</g>
<!-- m_Constraint -->
<g id="node2" class="node"><title>m_Constraint</title>
<path fill="none" stroke="black" d="M377,-126.5C377,-126.5 497,-126.5 497,-126.5 503,-126.5 509,-132.5 509,-138.5 509,-138.5 509,-150.5 509,-150.5 509,-156.5 503,-162.5 497,-162.5 497,-162.5 377,-162.5 377,-162.5 371,-162.5 365,-156.5 365,-150.5 365,-150.5 365,-138.5 365,-138.5 365,-132.5 371,-126.5 377,-126.5"/>
<text text-anchor="start" x="409.933" y="-140.7" font-family="Arial BoldMT" font-size="11.00">Constraint</text>
</g>
<!-- m_Base&#45;&gt;m_Constraint -->
<g id="edge1" class="edge"><title>m_Base&#45;&gt;m_Constraint</title>
<path fill="none" stroke="#999999" d="M253,-144.5C288.437,-132.265 330.086,-131.309 364.692,-133.834"/>
</g>
<!-- m_DeploymentRecommendation -->
<g id="node6" class="node"><title>m_DeploymentRecommendation</title>
<path fill="none" stroke="black" d="M372,-642.5C372,-642.5 502,-642.5 502,-642.5 508,-642.5 514,-648.5 514,-654.5 514,-654.5 514,-666.5 514,-666.5 514,-672.5 508,-678.5 502,-678.5 502,-678.5 372,-678.5 372,-678.5 366,-678.5 360,-672.5 360,-666.5 360,-666.5 360,-654.5 360,-654.5 360,-648.5 366,-642.5 372,-642.5"/>
<text text-anchor="start" x="364.547" y="-656.7" font-family="Arial BoldMT" font-size="11.00">DeploymentRecommendation</text>
</g>
<!-- m_Base&#45;&gt;m_DeploymentRecommendation -->
<g id="edge2" class="edge"><title>m_Base&#45;&gt;m_DeploymentRecommendation</title>
<path fill="none" stroke="#999999" d="M85.9732,-237.045C120.269,-312.068 220.37,-512.142 360,-627.5 366.986,-633.272 375.137,-638.202 383.455,-642.354"/>
<polygon fill="none" stroke="#999999" points="89.6247,-234.925 80.8618,-225.714 81.9677,-238.38 89.6247,-234.925"/>
</g>
<!-- m_Ingredient -->
<g id="node7" class="node"><title>m_Ingredient</title>
<path fill="none" stroke="black" d="M192,-252.5C192,-252.5 312,-252.5 312,-252.5 318,-252.5 324,-258.5 324,-264.5 324,-264.5 324,-276.5 324,-276.5 324,-282.5 318,-288.5 312,-288.5 312,-288.5 192,-288.5 192,-288.5 186,-288.5 180,-282.5 180,-276.5 180,-276.5 180,-264.5 180,-264.5 180,-258.5 186,-252.5 192,-252.5"/>
<text text-anchor="start" x="225.537" y="-266.7" font-family="Arial BoldMT" font-size="11.00">Ingredient</text>
</g>
<!-- m_Base&#45;&gt;m_Ingredient -->
<g id="edge3" class="edge"><title>m_Base&#45;&gt;m_Ingredient</title>
<path fill="none" stroke="#999999" d="M135.473,-229.611C156.579,-237.081 179.874,-245.326 199.985,-252.444"/>
<polygon fill="none" stroke="#999999" points="136.721,-225.598 124.008,-225.553 133.919,-233.516 136.721,-225.598"/>
</g>
<!-- m_Provider -->
<g id="node9" class="node"><title>m_Provider</title>
<path fill="none" stroke="black" d="M192,-0.5C192,-0.5 312,-0.5 312,-0.5 318,-0.5 324,-6.5 324,-12.5 324,-12.5 324,-24.5 324,-24.5 324,-30.5 318,-36.5 312,-36.5 312,-36.5 192,-36.5 192,-36.5 186,-36.5 180,-30.5 180,-24.5 180,-24.5 180,-12.5 180,-12.5 180,-6.5 186,-0.5 192,-0.5"/>
<text text-anchor="start" x="229.52" y="-14.7" font-family="Arial BoldMT" font-size="11.00">Provider</text>
</g>
<!-- m_Base&#45;&gt;m_Provider -->
<g id="edge4" class="edge"><title>m_Base&#45;&gt;m_Provider</title>
<path fill="none" stroke="#999999" d="M98.3008,-180.636C135.128,-141.533 202.526,-69.9699 233.984,-36.5672"/>
<polygon fill="none" stroke="#999999" points="95.2372,-177.763 90.0674,-189.378 101.352,-183.522 95.2372,-177.763"/>
</g>
<!-- m_Resource -->
<g id="node13" class="node"><title>m_Resource</title>
<path fill="none" stroke="black" d="M377,-0.5C377,-0.5 497,-0.5 497,-0.5 503,-0.5 509,-6.5 509,-12.5 509,-12.5 509,-24.5 509,-24.5 509,-30.5 503,-36.5 497,-36.5 497,-36.5 377,-36.5 377,-36.5 371,-36.5 365,-30.5 365,-24.5 365,-24.5 365,-12.5 365,-12.5 365,-6.5 371,-0.5 377,-0.5"/>
<text text-anchor="start" x="411.461" y="-14.7" font-family="Arial BoldMT" font-size="11.00">Resource</text>
</g>
<!-- m_Base&#45;&gt;m_Resource -->
<g id="edge5" class="edge"><title>m_Base&#45;&gt;m_Resource</title>
<path fill="none" stroke="#999999" d="M135.244,-185.205C169.378,-173.045 212.472,-157.802 251,-144.5"/>
<polygon fill="none" stroke="#999999" points="133.458,-181.383 123.566,-189.369 136.279,-189.295 133.458,-181.383"/>
<path fill="none" stroke="#999999" d="M253,-144.5C310.409,-124.679 309.298,-92.9372 360,-59.5 372.39,-51.3287 386.563,-43.3458 399.287,-36.6276"/>
</g>
<!-- m_CpuConstraint -->
<g id="node3" class="node"><title>m_CpuConstraint</title>
<path fill="none" stroke="#999999" d="M572,-318.5C572,-318.5 692,-318.5 692,-318.5 698,-318.5 704,-324.5 704,-330.5 704,-330.5 704,-342.5 704,-342.5 704,-348.5 698,-354.5 692,-354.5 692,-354.5 572,-354.5 572,-354.5 566,-354.5 560,-348.5 560,-342.5 560,-342.5 560,-330.5 560,-330.5 560,-324.5 566,-318.5 572,-318.5"/>
<text text-anchor="start" x="594.844" y="-332.7" font-family="Arial BoldMT" font-size="11.00" fill="#999999">CpuConstraint</text>
</g>
<!-- m_Constraint&#45;&gt;m_CpuConstraint -->
<g id="edge6" class="edge"><title>m_Constraint&#45;&gt;m_CpuConstraint</title>
<path fill="none" stroke="#999999" d="M464.82,-171.181C504.689,-210.844 578.553,-284.325 612.751,-318.345"/>
<polygon fill="none" stroke="#999999" points="467.626,-168.049 456.157,-162.563 461.702,-174.004 467.626,-168.049"/>
</g>
<!-- m_DependencyConstraint -->
<g id="node5" class="node"><title>m_DependencyConstraint</title>
<path fill="none" stroke="#999999" d="M572,-189.5C572,-189.5 692,-189.5 692,-189.5 698,-189.5 704,-195.5 704,-201.5 704,-201.5 704,-213.5 704,-213.5 704,-219.5 698,-225.5 692,-225.5 692,-225.5 572,-225.5 572,-225.5 566,-225.5 560,-219.5 560,-213.5 560,-213.5 560,-201.5 560,-201.5 560,-195.5 566,-189.5 572,-189.5"/>
<text text-anchor="start" x="574.049" y="-203.7" font-family="Arial BoldMT" font-size="11.00" fill="#999999">DependencyConstraint</text>
</g>
<!-- m_Constraint&#45;&gt;m_DependencyConstraint -->
<g id="edge8" class="edge"><title>m_Constraint&#45;&gt;m_DependencyConstraint</title>
<path fill="none" stroke="#999999" d="M504.786,-166.301C527.92,-173.852 553.578,-182.227 575.686,-189.444"/>
<polygon fill="none" stroke="#999999" points="506.017,-162.284 493.306,-162.553 503.41,-170.27 506.017,-162.284"/>
</g>
<!-- m_PreferredRegionAreaConstraint -->
<g id="node8" class="node"><title>m_PreferredRegionAreaConstraint</title>
<path fill="none" stroke="#999999" d="M562,-123.5C562,-123.5 702,-123.5 702,-123.5 708,-123.5 714,-129.5 714,-135.5 714,-135.5 714,-147.5 714,-147.5 714,-153.5 708,-159.5 702,-159.5 702,-159.5 562,-159.5 562,-159.5 556,-159.5 550,-153.5 550,-147.5 550,-147.5 550,-135.5 550,-135.5 550,-129.5 556,-123.5 562,-123.5"/>
<text text-anchor="start" x="554.96" y="-137.7" font-family="Arial BoldMT" font-size="11.00" fill="#999999">PreferredRegionAreaConstraint</text>
</g>
<!-- m_Constraint&#45;&gt;m_PreferredRegionAreaConstraint -->
<g id="edge10" class="edge"><title>m_Constraint&#45;&gt;m_PreferredRegionAreaConstraint</title>
<path fill="none" stroke="#999999" d="M521.288,-143.205C530.701,-143.059 540.284,-142.91 549.671,-142.764"/>
<polygon fill="none" stroke="#999999" points="520.977,-139.01 509.044,-143.396 521.108,-147.409 520.977,-139.01"/>
</g>
<!-- m_ProviderConstraint -->
<g id="node10" class="node"><title>m_ProviderConstraint</title>
<path fill="none" stroke="#999999" d="M572,-57.5C572,-57.5 692,-57.5 692,-57.5 698,-57.5 704,-63.5 704,-69.5 704,-69.5 704,-81.5 704,-81.5 704,-87.5 698,-93.5 692,-93.5 692,-93.5 572,-93.5 572,-93.5 566,-93.5 560,-87.5 560,-81.5 560,-81.5 560,-69.5 560,-69.5 560,-63.5 566,-57.5 572,-57.5"/>
<text text-anchor="start" x="584.453" y="-71.7" font-family="Arial BoldMT" font-size="11.00" fill="#999999">ProviderConstraint</text>
</g>
<!-- m_Constraint&#45;&gt;m_ProviderConstraint -->
<g id="edge12" class="edge"><title>m_Constraint&#45;&gt;m_ProviderConstraint</title>
<path fill="none" stroke="#999999" d="M500.094,-122.301C526.08,-113.01 555.897,-102.35 580.503,-93.5532"/>
<polygon fill="none" stroke="#999999" points="498.342,-118.467 488.456,-126.461 501.17,-126.376 498.342,-118.467"/>
</g>
<!-- m_RamConstraint -->
<g id="node11" class="node"><title>m_RamConstraint</title>
<path fill="none" stroke="#999999" d="M572,-513.5C572,-513.5 692,-513.5 692,-513.5 698,-513.5 704,-519.5 704,-525.5 704,-525.5 704,-537.5 704,-537.5 704,-543.5 698,-549.5 692,-549.5 692,-549.5 572,-549.5 572,-549.5 566,-549.5 560,-543.5 560,-537.5 560,-537.5 560,-525.5 560,-525.5 560,-519.5 566,-513.5 572,-513.5"/>
<text text-anchor="start" x="593.321" y="-527.7" font-family="Arial BoldMT" font-size="11.00" fill="#999999">RamConstraint</text>
</g>
<!-- m_Constraint&#45;&gt;m_RamConstraint -->
<g id="edge14" class="edge"><title>m_Constraint&#45;&gt;m_RamConstraint</title>
<path fill="none" stroke="#999999" d="M466.94,-171.542C483.505,-188.774 503.102,-212.502 514,-237.5 560.795,-344.842 478.159,-406.029 550,-498.5 554.658,-504.496 560.586,-509.408 567.111,-513.432"/>
<polygon fill="none" stroke="#999999" points="469.561,-168.222 458.124,-162.671 463.603,-174.143 469.561,-168.222"/>
</g>
<!-- m_ScalingConstraint -->
<g id="node14" class="node"><title>m_ScalingConstraint</title>
<path fill="none" stroke="#999999" d="M572,-447.5C572,-447.5 692,-447.5 692,-447.5 698,-447.5 704,-453.5 704,-459.5 704,-459.5 704,-471.5 704,-471.5 704,-477.5 698,-483.5 692,-483.5 692,-483.5 572,-483.5 572,-483.5 566,-483.5 560,-477.5 560,-471.5 560,-471.5 560,-459.5 560,-459.5 560,-453.5 566,-447.5 572,-447.5"/>
<text text-anchor="start" x="586.894" y="-461.7" font-family="Arial BoldMT" font-size="11.00" fill="#999999">ScalingConstraint</text>
</g>
<!-- m_Constraint&#45;&gt;m_ScalingConstraint -->
<g id="edge16" class="edge"><title>m_Constraint&#45;&gt;m_ScalingConstraint</title>
<path fill="none" stroke="#999999" d="M465.486,-171.748C481.696,-189.207 501.431,-213.102 514,-237.5 541.848,-291.558 521.728,-315.663 550,-369.5 566.019,-400.004 593.119,-429.423 611.52,-447.477"/>
<polygon fill="none" stroke="#999999" points="468.23,-168.539 456.911,-162.749 462.148,-174.334 468.23,-168.539"/>
</g>
<!-- m_CpuWorkload -->
<g id="node4" class="node"><title>m_CpuWorkload</title>
<path fill="none" stroke="black" d="M377,-252.5C377,-252.5 497,-252.5 497,-252.5 503,-252.5 509,-258.5 509,-264.5 509,-264.5 509,-276.5 509,-276.5 509,-282.5 503,-288.5 497,-288.5 497,-288.5 377,-288.5 377,-288.5 371,-288.5 365,-282.5 365,-276.5 365,-276.5 365,-264.5 365,-264.5 365,-258.5 371,-252.5 377,-252.5"/>
<text text-anchor="start" x="401.777" y="-266.7" font-family="Arial BoldMT" font-size="11.00">CpuWorkload</text>
</g>
<!-- m_Ingredient&#45;&gt;m_Constraint -->
<g id="edge23" class="edge"><title>m_Ingredient&#45;&gt;m_Constraint</title>
<path fill="none" stroke="black" d="M273.487,-252.422C294.437,-234.377 328.312,-206.398 360,-185.5 370.357,-178.669 381.961,-171.97 392.922,-166.032"/>
<polygon fill="black" stroke="black" points="399.287,-162.628 394.6,-168.706 396.201,-164.278 393.115,-165.929 393.115,-165.929 393.115,-165.929 396.201,-164.278 391.629,-163.151 399.287,-162.628 399.287,-162.628"/>
<text text-anchor="middle" x="381.328" y="-160.15" font-family="ArialMT" font-size="7.00">0..∗</text>
<text text-anchor="middle" x="291.287" y="-248.173" font-family="ArialMT" font-size="7.00">0..1</text>
</g>
<!-- m_Ingredient&#45;&gt;m_CpuConstraint -->
<g id="edge31" class="edge"><title>m_Ingredient&#45;&gt;m_CpuConstraint</title>
<path fill="none" stroke="black" d="M438,-531.5C473.025,-541.09 487.011,-525.796 514,-501.5 539.708,-478.358 530.731,-461.225 550,-432.5 569.437,-403.525 596.218,-373.269 613.571,-354.651"/>
<path fill="none" stroke="black" d="M256.538,-288.501C265.844,-331.286 294.911,-440.07 360,-501.5 386.409,-526.425 400.975,-521.91 436,-531.5"/>
<text text-anchor="middle" x="423.524" y="-516.95" font-family="ArialMT" font-size="7.00">0..1</text>
<text text-anchor="middle" x="450.9" y="-542.478" font-family="ArialMT" font-size="7.00">0..1</text>
</g>
<!-- m_Ingredient&#45;&gt;m_CpuWorkload -->
<g id="edge18" class="edge"><title>m_Ingredient&#45;&gt;m_CpuWorkload</title>
<path fill="none" stroke="black" d="M324.015,-270.5C337.377,-270.5 351.354,-270.5 364.724,-270.5"/>
<text text-anchor="middle" x="349.459" y="-259.386" font-family="ArialMT" font-size="7.00">0..1</text>
<text text-anchor="middle" x="339.279" y="-278.463" font-family="ArialMT" font-size="7.00">0..1</text>
</g>
<!-- m_Ingredient&#45;&gt;m_DependencyConstraint -->
<g id="edge27" class="edge"><title>m_Ingredient&#45;&gt;m_DependencyConstraint</title>
<path fill="none" stroke="black" d="M304.46,-252.473C321.908,-246.941 341.632,-241.313 360,-237.5 424.206,-224.17 498.279,-216.482 552.74,-212.233"/>
<polygon fill="black" stroke="black" points="559.954,-211.681 553.215,-215.356 556.465,-211.948 552.975,-212.215 552.975,-212.215 552.975,-212.215 556.465,-211.948 552.735,-209.074 559.954,-211.681 559.954,-211.681"/>
<text text-anchor="middle" x="544.007" y="-202.07" font-family="ArialMT" font-size="7.00">0..∗</text>
<text text-anchor="middle" x="321.879" y="-255.435" font-family="ArialMT" font-size="7.00">0..1</text>
</g>
<!-- m_Ingredient&#45;&gt;m_DeploymentRecommendation -->
<g id="edge24" class="edge"><title>m_Ingredient&#45;&gt;m_DeploymentRecommendation</title>
<path fill="none" stroke="black" d="M259.1,-288.537C271.774,-326.233 301.639,-416.196 324,-492.5 341.463,-552.091 319.482,-580.444 360,-627.5 363.564,-631.639 367.742,-635.276 372.275,-638.469"/>
<polygon fill="black" stroke="black" points="378.185,-642.28 370.595,-641.134 375.244,-640.383 372.302,-638.487 372.302,-638.487 372.302,-638.487 375.244,-640.383 374.009,-635.839 378.185,-642.28 378.185,-642.28"/>
<text text-anchor="middle" x="370.526" y="-624.727" font-family="ArialMT" font-size="7.00">0..∗</text>
<text text-anchor="middle" x="254.906" y="-304.466" font-family="ArialMT" font-size="7.00">0..1</text>
</g>
<!-- m_Ingredient&#45;&gt;m_Ingredient -->
<g id="edge25" class="edge"><title>m_Ingredient&#45;&gt;m_Ingredient</title>
<path fill="none" stroke="black" d="M237.498,-288.533C231.697,-303.033 236.531,-318 252,-318 265.052,-318 270.532,-307.344 268.442,-295.305"/>
<polygon fill="black" stroke="black" points="266.502,-288.533 271.458,-294.395 267.466,-291.897 268.43,-295.262 268.43,-295.262 268.43,-295.262 267.466,-291.897 265.402,-296.13 266.502,-288.533 266.502,-288.533"/>
<text text-anchor="middle" x="261.537" y="-304.57" font-family="ArialMT" font-size="7.00">0..∗</text>
<text text-anchor="middle" x="223.689" y="-298.504" font-family="ArialMT" font-size="7.00">0..1</text>
</g>
<!-- m_Ingredient&#45;&gt;m_Ingredient -->
<g id="edge26" class="edge"><title>m_Ingredient&#45;&gt;m_Ingredient</title>
<path fill="none" stroke="black" d="M230.148,-288.554C208.857,-314.615 216.141,-347 252,-347 285.198,-347 293.905,-319.243 278.12,-294.445"/>
<polygon fill="black" stroke="black" points="273.852,-288.554 280.51,-292.375 275.905,-291.389 277.959,-294.223 277.959,-294.223 277.959,-294.223 275.905,-291.389 275.408,-296.071 273.852,-288.554 273.852,-288.554"/>
<text text-anchor="middle" x="275.084" y="-305.248" font-family="ArialMT" font-size="7.00">0..∗</text>
<text text-anchor="middle" x="213.609" y="-294.082" font-family="ArialMT" font-size="7.00">0..1</text>
</g>
<!-- m_Ingredient&#45;&gt;m_PreferredRegionAreaConstraint -->
<g id="edge32" class="edge"><title>m_Ingredient&#45;&gt;m_PreferredRegionAreaConstraint</title>
<path fill="none" stroke="black" d="M438,-81.5C451.946,-76.7349 530.706,-104.064 583.206,-123.416"/>
<text text-anchor="middle" x="572.138" y="-107.645" font-family="ArialMT" font-size="7.00">0..1</text>
<text text-anchor="middle" x="454.009" y="-88.1529" font-family="ArialMT" font-size="7.00">0..1</text>
</g>
<!-- m_Ingredient&#45;&gt;m_ProviderConstraint -->
<g id="edge33" class="edge"><title>m_Ingredient&#45;&gt;m_ProviderConstraint</title>
<path fill="none" stroke="black" d="M438,-81.5C476.86,-68.2219 522.722,-66.2775 559.988,-67.8605"/>
<path fill="none" stroke="black" d="M265.677,-252.163C279.965,-231.442 303.831,-196.67 324,-166.5 340.237,-142.212 337.349,-129.952 360,-111.5 388.155,-88.5645 401.637,-93.2417 436,-81.5"/>
<text text-anchor="middle" x="418.569" y="-75.4339" font-family="ArialMT" font-size="7.00">0..1</text>
<text text-anchor="middle" x="455.397" y="-84.5464" font-family="ArialMT" font-size="7.00">0..1</text>
</g>
<!-- m_Ingredient&#45;&gt;m_RamConstraint -->
<g id="edge30" class="edge"><title>m_Ingredient&#45;&gt;m_RamConstraint</title>
<path fill="none" stroke="black" d="M438,-531.5C477.266,-542.252 522.734,-542.798 559.672,-540.403"/>
<text text-anchor="middle" x="543.906" y="-530.142" font-family="ArialMT" font-size="7.00">0..1</text>
<text text-anchor="middle" x="450.558" y="-542.82" font-family="ArialMT" font-size="7.00">0..1</text>
</g>
<!-- m_RamWorkload -->
<g id="node12" class="node"><title>m_RamWorkload</title>
<path fill="none" stroke="black" d="M377,-576.5C377,-576.5 497,-576.5 497,-576.5 503,-576.5 509,-582.5 509,-588.5 509,-588.5 509,-600.5 509,-600.5 509,-606.5 503,-612.5 497,-612.5 497,-612.5 377,-612.5 377,-612.5 371,-612.5 365,-606.5 365,-600.5 365,-600.5 365,-588.5 365,-588.5 365,-582.5 371,-576.5 377,-576.5"/>
<text text-anchor="start" x="400.254" y="-590.7" font-family="Arial BoldMT" font-size="11.00">RamWorkload</text>
</g>
<!-- m_Ingredient&#45;&gt;m_RamWorkload -->
<g id="edge19" class="edge"><title>m_Ingredient&#45;&gt;m_RamWorkload</title>
<path fill="none" stroke="black" d="M258.035,-288.598C273.785,-344.23 323.252,-511.497 360,-553.5 368.193,-562.865 379.063,-570.467 390.012,-576.465"/>
<text text-anchor="middle" x="381.394" y="-559.087" font-family="ArialMT" font-size="7.00">0..1</text>
<text text-anchor="middle" x="253.083" y="-304.328" font-family="ArialMT" font-size="7.00">0..1</text>
</g>
<!-- m_Ingredient&#45;&gt;m_ScalingConstraint -->
<g id="edge34" class="edge"><title>m_Ingredient&#45;&gt;m_ScalingConstraint</title>
<path fill="none" stroke="black" d="M438,-531.5C452.644,-535.51 534.285,-504.527 586.585,-483.636"/>
<text text-anchor="middle" x="568.88" y="-478.813" font-family="ArialMT" font-size="7.00">0..1</text>
<text text-anchor="middle" x="452.958" y="-539.938" font-family="ArialMT" font-size="7.00">0..1</text>
</g>
<!-- m_ScalingWorkload -->
<g id="node15" class="node"><title>m_ScalingWorkload</title>
<path fill="none" stroke="black" d="M377,-450.5C377,-450.5 497,-450.5 497,-450.5 503,-450.5 509,-456.5 509,-462.5 509,-462.5 509,-474.5 509,-474.5 509,-480.5 503,-486.5 497,-486.5 497,-486.5 377,-486.5 377,-486.5 371,-486.5 365,-480.5 365,-474.5 365,-474.5 365,-462.5 365,-462.5 365,-456.5 371,-450.5 377,-450.5"/>
<text text-anchor="start" x="393.828" y="-464.7" font-family="Arial BoldMT" font-size="11.00">ScalingWorkload</text>
</g>
<!-- m_Ingredient&#45;&gt;m_ScalingWorkload -->
<g id="edge20" class="edge"><title>m_Ingredient&#45;&gt;m_ScalingWorkload</title>
<path fill="none" stroke="black" d="M260.452,-288.599C274.981,-321.881 310.102,-393.252 360,-435.5 366.916,-441.356 375.031,-446.328 383.336,-450.497"/>
<text text-anchor="middle" x="374.109" y="-433.467" font-family="ArialMT" font-size="7.00">0..1</text>
<text text-anchor="middle" x="258.009" y="-304.857" font-family="ArialMT" font-size="7.00">0..1</text>
</g>
<!-- m_TrafficWorkload -->
<g id="node16" class="node"><title>m_TrafficWorkload</title>
<path fill="none" stroke="black" d="M377,-384.5C377,-384.5 497,-384.5 497,-384.5 503,-384.5 509,-390.5 509,-396.5 509,-396.5 509,-408.5 509,-408.5 509,-414.5 503,-420.5 497,-420.5 497,-420.5 377,-420.5 377,-420.5 371,-420.5 365,-414.5 365,-408.5 365,-408.5 365,-396.5 365,-396.5 365,-390.5 371,-384.5 377,-384.5"/>
<text text-anchor="start" x="396.79" y="-398.7" font-family="Arial BoldMT" font-size="11.00">TrafficWorkload</text>
</g>
<!-- m_Ingredient&#45;&gt;m_TrafficWorkload -->
<g id="edge21" class="edge"><title>m_Ingredient&#45;&gt;m_TrafficWorkload</title>
<path fill="none" stroke="black" d="M268.914,-288.551C288.606,-310.047 323.968,-345.99 360,-369.5 366.549,-373.773 373.743,-377.719 381.014,-381.285"/>
<polygon fill="black" stroke="black" points="387.696,-384.451 380.021,-384.3 384.533,-382.952 381.37,-381.453 381.37,-381.453 381.37,-381.453 384.533,-382.952 382.718,-378.607 387.696,-384.451 387.696,-384.451"/>
<text text-anchor="middle" x="377.985" y="-368.03" font-family="ArialMT" font-size="7.00">0..∗</text>
<text text-anchor="middle" x="272.307" y="-304.653" font-family="ArialMT" font-size="7.00">0..1</text>
</g>
<!-- m_UserWorkload -->
<g id="node17" class="node"><title>m_UserWorkload</title>
<path fill="none" stroke="black" d="M377,-318.5C377,-318.5 497,-318.5 497,-318.5 503,-318.5 509,-324.5 509,-330.5 509,-330.5 509,-342.5 509,-342.5 509,-348.5 503,-354.5 497,-354.5 497,-354.5 377,-354.5 377,-354.5 371,-354.5 365,-348.5 365,-342.5 365,-342.5 365,-330.5 365,-330.5 365,-324.5 371,-318.5 377,-318.5"/>
<text text-anchor="start" x="400.254" y="-332.7" font-family="Arial BoldMT" font-size="11.00">UserWorkload</text>
</g>
<!-- m_Ingredient&#45;&gt;m_UserWorkload -->
<g id="edge22" class="edge"><title>m_Ingredient&#45;&gt;m_UserWorkload</title>
<path fill="none" stroke="black" d="M303.006,-288.535C328.827,-297.847 360.242,-309.177 386.055,-318.487"/>
<text text-anchor="middle" x="374.931" y="-302.76" font-family="ArialMT" font-size="7.00">0..1</text>
<text text-anchor="middle" x="314.129" y="-301.111" font-family="ArialMT" font-size="7.00">0..1</text>
</g>
<!-- m_Provider&#45;&gt;m_Resource -->
<g id="edge35" class="edge"><title>m_Provider&#45;&gt;m_Resource</title>
<path fill="none" stroke="black" d="M324.015,-18.5C334.976,-18.5 346.351,-18.5 357.465,-18.5"/>
<polygon fill="black" stroke="black" points="364.724,-18.5 357.724,-21.6501 361.224,-18.5 357.724,-18.5001 357.724,-18.5001 357.724,-18.5001 361.224,-18.5 357.724,-15.3501 364.724,-18.5 364.724,-18.5"/>
<text text-anchor="middle" x="349.459" y="-7.69715" font-family="ArialMT" font-size="7.00">0..∗</text>
<text text-anchor="middle" x="339.279" y="-26.4632" font-family="ArialMT" font-size="7.00">0..1</text>
</g>
</g>
</svg>
